<svg width="400" height="435" viewBox="0 0 400 435" fill="none" xmlns="http://www.w3.org/2000/svg">
<g clip-path="url(#clip0_465_1843)">
<rect x="26" y="127" width="190" height="191" rx="95" fill="#6A8069" fill-opacity="0.56"/>
<path d="M73.7815 227.5V218.045H79.9306V219.481H75.4942V222.048H79.6121V223.484H75.4942V226.064H79.9676V227.5H73.7815ZM89.9675 218.045V227.5H88.4441L83.9892 221.06H83.9107V227.5H82.198V218.045H83.7306L88.1809 224.49H88.264V218.045H89.9675ZM98.6875 221.065C98.6106 220.815 98.5044 220.592 98.369 220.395C98.2367 220.195 98.0766 220.024 97.8889 219.883C97.7042 219.741 97.4919 219.635 97.2518 219.564C97.0117 219.49 96.7501 219.453 96.467 219.453C95.9592 219.453 95.5068 219.581 95.1098 219.837C94.7127 220.092 94.4004 220.468 94.1726 220.963C93.9479 221.455 93.8356 222.056 93.8356 222.763C93.8356 223.478 93.9479 224.082 94.1726 224.578C94.3973 225.073 94.7097 225.45 95.1098 225.709C95.5099 225.964 95.9746 226.092 96.5039 226.092C96.984 226.092 97.3995 226 97.7504 225.815C98.1043 225.63 98.3767 225.369 98.5675 225.03C98.7583 224.689 98.8537 224.288 98.8537 223.83L99.2415 223.89H96.6747V222.551H100.511V223.687C100.511 224.496 100.339 225.196 99.994 225.787C99.6493 226.378 99.1753 226.834 98.5721 227.154C97.9689 227.471 97.2764 227.629 96.4947 227.629C95.6237 227.629 94.8589 227.434 94.2003 227.043C93.5448 226.649 93.0323 226.09 92.663 225.367C92.2968 224.641 92.1137 223.779 92.1137 222.782C92.1137 222.019 92.2214 221.337 92.4368 220.737C92.6553 220.137 92.96 219.627 93.3509 219.209C93.7417 218.787 94.2003 218.467 94.7266 218.249C95.2529 218.027 95.8253 217.916 96.4439 217.916C96.9671 217.916 97.4549 217.993 97.9073 218.147C98.3598 218.298 98.7614 218.513 99.1122 218.793C99.4662 219.073 99.757 219.406 99.9848 219.79C100.213 220.175 100.362 220.6 100.433 221.065H98.6875ZM103.609 227.5H101.781L105.11 218.045H107.224L110.557 227.5H108.729L106.204 219.984H106.13L103.609 227.5ZM103.669 223.793H108.655V225.169H103.669V223.793ZM118.212 221.065C118.135 220.815 118.029 220.592 117.893 220.395C117.761 220.195 117.601 220.024 117.413 219.883C117.229 219.741 117.016 219.635 116.776 219.564C116.536 219.49 116.275 219.453 115.991 219.453C115.484 219.453 115.031 219.581 114.634 219.837C114.237 220.092 113.925 220.468 113.697 220.963C113.472 221.455 113.36 222.056 113.36 222.763C113.36 223.478 113.472 224.082 113.697 224.578C113.922 225.073 114.234 225.45 114.634 225.709C115.034 225.964 115.499 226.092 116.028 226.092C116.508 226.092 116.924 226 117.275 225.815C117.629 225.63 117.901 225.369 118.092 225.03C118.283 224.689 118.378 224.288 118.378 223.83L118.766 223.89H116.199V222.551H120.035V223.687C120.035 224.496 119.863 225.196 119.518 225.787C119.174 226.378 118.7 226.834 118.096 227.154C117.493 227.471 116.801 227.629 116.019 227.629C115.148 227.629 114.383 227.434 113.725 227.043C113.069 226.649 112.557 226.09 112.187 225.367C111.821 224.641 111.638 223.779 111.638 222.782C111.638 222.019 111.746 221.337 111.961 220.737C112.18 220.137 112.484 219.627 112.875 219.209C113.266 218.787 113.725 218.467 114.251 218.249C114.777 218.027 115.35 217.916 115.968 217.916C116.491 217.916 116.979 217.993 117.432 218.147C117.884 218.298 118.286 218.513 118.637 218.793C118.991 219.073 119.281 219.406 119.509 219.79C119.737 220.175 119.886 220.6 119.957 221.065H118.212ZM122.212 227.5V218.045H128.361V219.481H123.924V222.048H128.042V223.484H123.924V226.064H128.398V227.5H122.212ZM130.628 218.045H132.724L135.531 224.896H135.642L138.448 218.045H140.544V227.5H138.901V221.005H138.813L136.2 227.472H134.972L132.359 220.991H132.272V227.5H130.628V218.045ZM142.929 227.5V218.045H149.078V219.481H144.642V222.048H148.76V223.484H144.642V226.064H149.115V227.5H142.929ZM159.115 218.045V227.5H157.592L153.137 221.06H153.059V227.5H151.346V218.045H152.878L157.329 224.49H157.412V218.045H159.115ZM161.086 219.481V218.045H168.629V219.481H165.707V227.5H164.008V219.481H161.086Z" fill="white"/>
<path d="M118.333 256.672C118.333 258.145 119.527 259.339 121 259.339C122.473 259.339 123.667 258.145 123.667 256.672C123.667 255.199 122.473 254.005 121 254.005C119.527 254.005 118.333 255.199 118.333 256.672ZM120.5 354.159C120.5 354.435 120.724 354.659 121 354.659C121.276 354.659 121.5 354.435 121.5 354.159H120.5ZM120.5 256.672V354.159H121.5V256.672H120.5Z" fill="#767676"/>
<rect x="184" y="127" width="190" height="191" rx="95" fill="#6A8069" fill-opacity="0.56"/>
<path d="M234.739 218.045V227.5H233.026V218.045H234.739ZM244.883 218.045V227.5H243.359L238.904 221.06H238.826V227.5H237.113V218.045H238.646L243.096 224.49H243.179V218.045H244.883ZM246.854 219.481V218.045H254.397V219.481H251.475V227.5H249.776V219.481H246.854ZM256.371 227.5V218.045H262.52V219.481H258.084V222.048H262.202V223.484H258.084V226.064H262.557V227.5H256.371ZM264.788 227.5V218.045H268.333C269.059 218.045 269.669 218.172 270.161 218.424C270.657 218.676 271.031 219.03 271.283 219.486C271.538 219.938 271.666 220.466 271.666 221.069C271.666 221.676 271.537 222.202 271.278 222.648C271.023 223.091 270.646 223.434 270.147 223.678C269.649 223.918 269.036 224.038 268.31 224.038H265.785V222.616H268.079C268.504 222.616 268.852 222.557 269.122 222.44C269.393 222.32 269.593 222.146 269.723 221.919C269.855 221.688 269.921 221.405 269.921 221.069C269.921 220.734 269.855 220.448 269.723 220.211C269.59 219.971 269.389 219.789 269.118 219.666C268.847 219.54 268.498 219.477 268.07 219.477H266.5V227.5H264.788ZM269.672 223.216L272.012 227.5H270.101L267.802 223.216H269.672ZM274.977 227.5H273.149L276.477 218.045H278.591L281.925 227.5H280.096L277.571 219.984H277.497L274.977 227.5ZM275.037 223.793H280.023V225.169H275.037V223.793ZM291.338 221.235H289.612C289.562 220.952 289.472 220.701 289.339 220.483C289.207 220.261 289.042 220.074 288.845 219.92C288.648 219.766 288.424 219.65 288.171 219.574C287.922 219.493 287.653 219.453 287.363 219.453C286.849 219.453 286.394 219.583 285.997 219.841C285.6 220.097 285.289 220.472 285.064 220.968C284.84 221.46 284.727 222.062 284.727 222.773C284.727 223.496 284.84 224.105 285.064 224.601C285.292 225.093 285.603 225.466 285.997 225.718C286.394 225.967 286.848 226.092 287.359 226.092C287.642 226.092 287.907 226.055 288.153 225.981C288.402 225.904 288.625 225.792 288.822 225.644C289.022 225.496 289.19 225.315 289.325 225.099C289.464 224.884 289.559 224.638 289.612 224.361L291.338 224.37C291.274 224.819 291.134 225.241 290.918 225.635C290.706 226.029 290.427 226.377 290.083 226.678C289.738 226.977 289.335 227.211 288.873 227.38C288.411 227.546 287.899 227.629 287.336 227.629C286.505 227.629 285.763 227.437 285.111 227.052C284.458 226.667 283.944 226.112 283.569 225.386C283.193 224.659 283.005 223.788 283.005 222.773C283.005 221.754 283.195 220.883 283.573 220.16C283.952 219.433 284.467 218.878 285.12 218.493C285.772 218.109 286.511 217.916 287.336 217.916C287.862 217.916 288.351 217.99 288.804 218.138C289.256 218.286 289.659 218.502 290.013 218.789C290.367 219.072 290.658 219.42 290.886 219.832C291.117 220.241 291.267 220.709 291.338 221.235ZM293.011 219.481V218.045H300.554V219.481H297.632V227.5H295.933V219.481H293.011ZM304.241 218.045V227.5H302.529V218.045H304.241ZM315.064 222.773C315.064 223.791 314.873 224.664 314.492 225.39C314.113 226.114 313.596 226.667 312.941 227.052C312.288 227.437 311.548 227.629 310.72 227.629C309.892 227.629 309.15 227.437 308.495 227.052C307.842 226.664 307.325 226.109 306.944 225.386C306.565 224.659 306.376 223.788 306.376 222.773C306.376 221.754 306.565 220.883 306.944 220.16C307.325 219.433 307.842 218.878 308.495 218.493C309.15 218.109 309.892 217.916 310.72 217.916C311.548 217.916 312.288 218.109 312.941 218.493C313.596 218.878 314.113 219.433 314.492 220.16C314.873 220.883 315.064 221.754 315.064 222.773ZM313.342 222.773C313.342 222.056 313.23 221.451 313.005 220.958C312.784 220.463 312.476 220.089 312.082 219.837C311.688 219.581 311.234 219.453 310.72 219.453C310.206 219.453 309.752 219.581 309.358 219.837C308.964 220.089 308.655 220.463 308.43 220.958C308.209 221.451 308.098 222.056 308.098 222.773C308.098 223.49 308.209 224.096 308.43 224.592C308.655 225.084 308.964 225.458 309.358 225.713C309.752 225.966 310.206 226.092 310.72 226.092C311.234 226.092 311.688 225.966 312.082 225.713C312.476 225.458 312.784 225.084 313.005 224.592C313.23 224.096 313.342 223.49 313.342 222.773ZM324.973 218.045V227.5H323.45L318.995 221.06H318.916V227.5H317.203V218.045H318.736L323.186 224.49H323.269V218.045H324.973Z" fill="white"/>
<rect x="105" width="190" height="191" rx="95" fill="#6A8069" fill-opacity="0.56"/>
<path d="M159.599 100.5V91.0455H163.145C163.871 91.0455 164.48 91.1716 164.973 91.424C165.468 91.6764 165.842 92.0303 166.095 92.4858C166.35 92.9382 166.478 93.466 166.478 94.0692C166.478 94.6755 166.348 95.2018 166.09 95.6481C165.834 96.0913 165.457 96.4344 164.959 96.6776C164.46 96.9176 163.848 97.0376 163.122 97.0376H160.596V95.6158H162.891C163.315 95.6158 163.663 95.5573 163.934 95.4403C164.205 95.3203 164.405 95.1464 164.534 94.9187C164.666 94.6879 164.733 94.4047 164.733 94.0692C164.733 93.7338 164.666 93.4476 164.534 93.2106C164.402 92.9705 164.2 92.7889 163.929 92.6658C163.659 92.5397 163.309 92.4766 162.881 92.4766H161.312V100.5H159.599ZM164.483 96.2159L166.824 100.5H164.913L162.614 96.2159H164.483ZM168.574 100.5V91.0455H174.723V92.4812H170.287V95.0479H174.405V96.4837H170.287V99.0643H174.76V100.5H168.574ZM176.991 100.5V91.0455H178.703V99.0643H182.867V100.5H176.991ZM186.587 91.0455V100.5H184.874V91.0455H186.587ZM190.175 100.5H188.347L191.676 91.0455H193.79L197.123 100.5H195.295L192.77 92.9844H192.696L190.175 100.5ZM190.236 96.793H195.221V98.1687H190.236V96.793ZM198.889 100.5V91.0455H202.508C203.191 91.0455 203.759 91.1532 204.211 91.3686C204.667 91.581 205.007 91.8718 205.232 92.2411C205.459 92.6104 205.573 93.029 205.573 93.4968C205.573 93.8815 205.499 94.2108 205.352 94.4847C205.204 94.7556 205.005 94.9756 204.756 95.1449C204.507 95.3142 204.228 95.4357 203.921 95.5096V95.6019C204.256 95.6204 204.578 95.7235 204.885 95.9112C205.196 96.0959 205.45 96.3575 205.647 96.696C205.844 97.0346 205.943 97.4439 205.943 97.924C205.943 98.4134 205.824 98.8535 205.587 99.2443C205.35 99.6321 204.993 99.9383 204.516 100.163C204.039 100.388 203.439 100.5 202.716 100.5H198.889ZM200.601 99.0689H202.443C203.065 99.0689 203.513 98.9504 203.787 98.7134C204.064 98.4734 204.202 98.1656 204.202 97.7901C204.202 97.5101 204.133 97.2577 203.994 97.033C203.856 96.8053 203.659 96.6268 203.403 96.4975C203.148 96.3652 202.843 96.299 202.489 96.299H200.601V99.0689ZM200.601 95.0664H202.296C202.591 95.0664 202.857 95.0125 203.094 94.9048C203.331 94.794 203.517 94.6386 203.653 94.4386C203.791 94.2354 203.861 93.9954 203.861 93.7184C203.861 93.3522 203.731 93.0505 203.473 92.8136C203.217 92.5766 202.837 92.4581 202.332 92.4581H200.601V95.0664ZM209.665 91.0455V100.5H207.953V91.0455H209.665ZM212.04 100.5V91.0455H213.753V99.0643H217.917V100.5H212.04ZM221.636 91.0455V100.5H219.923V91.0455H221.636ZM223.595 92.4812V91.0455H231.138V92.4812H228.216V100.5H226.517V92.4812H223.595ZM232.466 91.0455H234.401L236.713 95.228H236.806L239.119 91.0455H241.053L237.614 96.973V100.5H235.906V96.973L232.466 91.0455Z" fill="white"/>
<path d="M106.466 382.997C106.026 382.997 105.641 382.889 105.31 382.672C104.984 382.452 104.741 382.159 104.581 381.793C104.424 381.428 104.384 381.025 104.458 380.584C104.529 380.162 104.694 379.778 104.954 379.434C105.216 379.089 105.538 378.816 105.918 378.613C106.298 378.411 106.697 378.31 107.116 378.31C107.56 378.31 107.945 378.42 108.272 378.64C108.599 378.86 108.84 379.153 108.997 379.519C109.156 379.881 109.201 380.282 109.13 380.723C109.062 381.145 108.897 381.531 108.634 381.879C108.372 382.223 108.05 382.496 107.67 382.699C107.29 382.898 106.889 382.997 106.466 382.997ZM128.882 379.652C128.691 380.799 128.318 381.783 127.764 382.603C127.213 383.423 126.539 384.054 125.74 384.494C124.944 384.931 124.085 385.149 123.162 385.149C122.199 385.149 121.377 384.92 120.695 384.462C120.017 384 119.531 383.345 119.236 382.496C118.941 381.644 118.891 380.629 119.087 379.45C119.278 378.303 119.65 377.319 120.2 376.499C120.754 375.675 121.43 375.043 122.229 374.602C123.032 374.162 123.898 373.942 124.829 373.942C125.784 373.942 126.599 374.173 127.274 374.634C127.952 375.092 128.439 375.749 128.733 376.605C129.028 377.457 129.078 378.473 128.882 379.652ZM127.279 379.45C127.425 378.58 127.407 377.848 127.226 377.255C127.048 376.658 126.745 376.207 126.315 375.902C125.885 375.597 125.367 375.444 124.76 375.444C124.113 375.444 123.508 375.607 122.943 375.934C122.382 376.261 121.903 376.737 121.505 377.362C121.107 377.987 120.836 378.75 120.69 379.652C120.541 380.522 120.557 381.254 120.738 381.847C120.919 382.44 121.224 382.889 121.654 383.194C122.087 383.496 122.608 383.647 123.215 383.647C123.858 383.647 124.46 383.485 125.021 383.162C125.585 382.836 126.066 382.362 126.464 381.74C126.862 381.115 127.134 380.352 127.279 379.45ZM135.1 376.818L134.892 378.097H130.423L130.631 376.818H135.1ZM132.149 374.858H133.742L132.453 382.598C132.403 382.907 132.412 383.139 132.479 383.295C132.547 383.448 132.65 383.553 132.788 383.61C132.93 383.663 133.088 383.69 133.262 383.69C133.39 383.69 133.502 383.681 133.598 383.663C133.694 383.645 133.77 383.631 133.827 383.62L133.912 384.936C133.806 384.972 133.662 385.007 133.481 385.043C133.303 385.082 133.087 385.103 132.831 385.107C132.412 385.114 132.034 385.039 131.696 384.883C131.359 384.723 131.107 384.482 130.94 384.158C130.773 383.832 130.732 383.422 130.817 382.928L132.149 374.858ZM138.071 380.142L137.272 385H135.679L137.49 374.091H139.062L138.391 378.15H138.492C138.751 377.706 139.099 377.356 139.536 377.1C139.976 376.841 140.516 376.712 141.155 376.712C141.716 376.712 142.187 376.827 142.567 377.058C142.95 377.289 143.22 377.633 143.376 378.091C143.536 378.546 143.561 379.114 143.451 379.796L142.577 385H140.985L141.816 379.988C141.915 379.387 141.837 378.922 141.581 378.592C141.326 378.258 140.926 378.091 140.383 378.091C140.003 378.091 139.651 378.171 139.328 378.331C139.009 378.491 138.739 378.725 138.518 379.034C138.298 379.339 138.149 379.709 138.071 380.142ZM148.202 385.165C147.4 385.165 146.736 384.993 146.21 384.648C145.688 384.3 145.322 383.812 145.113 383.184C144.903 382.551 144.87 381.811 145.012 380.962C145.15 380.124 145.429 379.386 145.848 378.746C146.267 378.107 146.789 377.608 147.414 377.25C148.043 376.891 148.737 376.712 149.497 376.712C149.958 376.712 150.393 376.788 150.802 376.941C151.214 377.093 151.564 377.333 151.851 377.66C152.139 377.987 152.338 378.411 152.448 378.933C152.561 379.451 152.558 380.082 152.437 380.824L152.347 381.388H145.837L146.024 380.195H150.967C151.042 379.776 151.022 379.405 150.908 379.082C150.795 378.755 150.599 378.498 150.322 378.31C150.049 378.121 149.705 378.027 149.289 378.027C148.863 378.027 148.465 378.139 148.096 378.363C147.727 378.587 147.418 378.873 147.169 379.221C146.924 379.565 146.77 379.92 146.706 380.286L146.519 381.378C146.427 381.974 146.443 382.454 146.567 382.816C146.695 383.178 146.919 383.441 147.238 383.604C147.558 383.768 147.957 383.849 148.437 383.849C148.746 383.849 149.032 383.807 149.294 383.722C149.561 383.633 149.797 383.503 150.003 383.333C150.209 383.159 150.381 382.942 150.52 382.683L151.979 382.955C151.784 383.398 151.503 383.787 151.137 384.121C150.772 384.451 150.34 384.709 149.843 384.893C149.349 385.075 148.803 385.165 148.202 385.165ZM153.53 385L154.894 376.818H156.434L156.215 378.118H156.3C156.521 377.678 156.842 377.331 157.264 377.079C157.687 376.824 158.138 376.696 158.617 376.696C158.72 376.696 158.838 376.699 158.969 376.706C159.1 376.71 159.207 376.719 159.289 376.733L159.033 378.256C158.973 378.239 158.862 378.219 158.703 378.198C158.543 378.173 158.378 378.161 158.207 378.161C157.834 378.161 157.488 378.24 157.169 378.4C156.849 378.556 156.581 378.775 156.364 379.055C156.148 379.332 156.007 379.648 155.943 380.004L155.123 385H153.53ZM165.646 385.181C165.128 385.181 164.675 385.085 164.288 384.893C163.901 384.698 163.615 384.416 163.43 384.047C163.245 383.677 163.198 383.224 163.286 382.688C163.364 382.227 163.517 381.847 163.744 381.548C163.975 381.25 164.256 381.014 164.586 380.84C164.916 380.662 165.275 380.529 165.662 380.44C166.049 380.352 166.44 380.286 166.834 380.243C167.331 380.186 167.734 380.138 168.043 380.099C168.356 380.06 168.59 380 168.746 379.918C168.902 379.833 168.997 379.695 169.028 379.503V379.466C169.103 379.004 169.036 378.645 168.826 378.39C168.62 378.13 168.261 378.001 167.75 378.001C167.217 378.001 166.77 378.118 166.408 378.352C166.049 378.587 165.785 378.849 165.614 379.141L164.187 378.8C164.442 378.303 164.767 377.901 165.161 377.596C165.559 377.287 165.994 377.063 166.466 376.925C166.939 376.783 167.422 376.712 167.915 376.712C168.242 376.712 168.581 376.751 168.933 376.829C169.284 376.903 169.604 377.042 169.891 377.244C170.183 377.447 170.399 377.736 170.541 378.113C170.683 378.485 170.705 378.97 170.605 379.567L169.705 385H168.15L168.341 383.881H168.277C168.142 384.087 167.954 384.29 167.713 384.489C167.475 384.687 167.184 384.853 166.839 384.984C166.495 385.115 166.097 385.181 165.646 385.181ZM166.189 383.903C166.633 383.903 167.026 383.816 167.367 383.642C167.711 383.468 167.99 383.24 168.203 382.96C168.416 382.676 168.549 382.372 168.602 382.049L168.778 380.994C168.711 381.051 168.592 381.103 168.421 381.149C168.254 381.195 168.066 381.236 167.857 381.271C167.647 381.307 167.441 381.337 167.239 381.362C167.04 381.387 166.875 381.41 166.743 381.431C166.431 381.47 166.138 381.536 165.864 381.628C165.595 381.721 165.369 381.854 165.188 382.028C165.007 382.198 164.893 382.425 164.847 382.71C164.783 383.104 164.877 383.402 165.129 383.604C165.385 383.803 165.738 383.903 166.189 383.903ZM175.251 385.165C174.456 385.165 173.804 384.986 173.297 384.627C172.789 384.265 172.435 383.766 172.237 383.13C172.038 382.495 172.006 381.767 172.141 380.946C172.276 380.115 172.551 379.382 172.966 378.746C173.385 378.107 173.909 377.608 174.538 377.25C175.17 376.891 175.871 376.712 176.642 376.712C177.263 376.712 177.798 376.827 178.245 377.058C178.692 377.285 179.032 377.605 179.262 378.017C179.493 378.429 179.593 378.91 179.561 379.46H178.011C177.986 379.077 177.844 378.746 177.585 378.469C177.325 378.192 176.944 378.054 176.439 378.054C175.995 378.054 175.587 378.171 175.214 378.406C174.841 378.636 174.527 378.967 174.271 379.396C174.016 379.822 173.842 380.327 173.749 380.909C173.65 381.506 173.655 382.021 173.765 382.454C173.875 382.887 174.078 383.223 174.373 383.461C174.667 383.699 175.038 383.817 175.486 383.817C175.791 383.817 176.075 383.762 176.338 383.652C176.604 383.539 176.839 383.377 177.041 383.168C177.247 382.958 177.407 382.706 177.521 382.411H179.076C178.923 382.94 178.668 383.413 178.309 383.828C177.954 384.244 177.517 384.57 176.999 384.808C176.48 385.046 175.898 385.165 175.251 385.165ZM185.52 376.818L185.312 378.097H180.843L181.051 376.818H185.52ZM182.569 374.858H184.162L182.873 382.598C182.823 382.907 182.832 383.139 182.899 383.295C182.967 383.448 183.07 383.553 183.208 383.61C183.35 383.663 183.508 383.69 183.682 383.69C183.81 383.69 183.922 383.681 184.018 383.663C184.114 383.645 184.19 383.631 184.247 383.62L184.332 384.936C184.226 384.972 184.082 385.007 183.901 385.043C183.723 385.082 183.506 385.103 183.251 385.107C182.832 385.114 182.454 385.039 182.116 384.883C181.779 384.723 181.527 384.482 181.36 384.158C181.193 383.832 181.152 383.422 181.237 382.928L182.569 374.858ZM185.918 385L187.282 376.818H188.874L187.511 385H185.918ZM188.411 375.54C188.134 375.54 187.9 375.447 187.708 375.263C187.52 375.075 187.433 374.851 187.447 374.592C187.461 374.329 187.571 374.105 187.777 373.92C187.983 373.732 188.223 373.638 188.496 373.638C188.773 373.638 189.006 373.732 189.194 373.92C189.382 374.105 189.471 374.329 189.46 374.592C189.446 374.851 189.336 375.075 189.13 375.263C188.928 375.447 188.688 375.54 188.411 375.54ZM198.016 376.818L193.686 385H191.981L190.373 376.818H192.019L193.041 383.114H193.127L196.243 376.818H198.016ZM201.376 385.165C200.574 385.165 199.91 384.993 199.384 384.648C198.862 384.3 198.496 383.812 198.287 383.184C198.077 382.551 198.044 381.811 198.186 380.962C198.324 380.124 198.603 379.386 199.022 378.746C199.441 378.107 199.963 377.608 200.588 377.25C201.216 376.891 201.911 376.712 202.671 376.712C203.132 376.712 203.567 376.788 203.976 376.941C204.388 377.093 204.737 377.333 205.025 377.66C205.313 377.987 205.512 378.411 205.622 378.933C205.735 379.451 205.732 380.082 205.611 380.824L205.52 381.388H199.011L199.198 380.195H204.141C204.215 379.776 204.196 379.405 204.082 379.082C203.969 378.755 203.773 378.498 203.496 378.31C203.223 378.121 202.878 378.027 202.463 378.027C202.037 378.027 201.639 378.139 201.27 378.363C200.9 378.587 200.591 378.873 200.343 379.221C200.098 379.565 199.943 379.92 199.879 380.286L199.693 381.378C199.601 381.974 199.617 382.454 199.741 382.816C199.869 383.178 200.093 383.441 200.412 383.604C200.732 383.768 201.131 383.849 201.611 383.849C201.92 383.849 202.205 383.807 202.468 383.722C202.735 383.633 202.971 383.503 203.177 383.333C203.383 383.159 203.555 382.942 203.693 382.683L205.153 382.955C204.958 383.398 204.677 383.787 204.311 384.121C203.945 384.451 203.514 384.709 203.017 384.893C202.523 385.075 201.976 385.165 201.376 385.165ZM210.679 385L212.043 376.818H213.572L213.348 378.15H213.449C213.698 377.699 214.035 377.347 214.461 377.095C214.891 376.839 215.377 376.712 215.921 376.712C216.461 376.712 216.896 376.839 217.226 377.095C217.56 377.351 217.778 377.702 217.881 378.15H217.966C218.229 377.71 218.597 377.36 219.069 377.1C219.541 376.841 220.072 376.712 220.662 376.712C221.397 376.712 221.961 376.946 222.355 377.415C222.753 377.88 222.874 378.58 222.718 379.513L221.801 385H220.203L221.098 379.663C221.187 379.105 221.102 378.704 220.843 378.459C220.583 378.21 220.244 378.086 219.825 378.086C219.307 378.086 218.877 378.246 218.536 378.565C218.195 378.881 217.986 379.288 217.908 379.785L217.029 385H215.447L216.358 379.561C216.429 379.114 216.347 378.757 216.113 378.491C215.882 378.221 215.544 378.086 215.1 378.086C214.799 378.086 214.506 378.166 214.222 378.326C213.941 378.485 213.701 378.706 213.502 378.986C213.304 379.267 213.174 379.59 213.114 379.956L212.272 385H210.679ZM227.436 385.165C226.633 385.165 225.969 384.993 225.444 384.648C224.922 384.3 224.556 383.812 224.346 383.184C224.137 382.551 224.103 381.811 224.245 380.962C224.384 380.124 224.662 379.386 225.081 378.746C225.5 378.107 226.022 377.608 226.647 377.25C227.276 376.891 227.97 376.712 228.73 376.712C229.192 376.712 229.627 376.788 230.035 376.941C230.447 377.093 230.797 377.333 231.085 377.66C231.372 377.987 231.571 378.411 231.681 378.933C231.795 379.451 231.791 380.082 231.671 380.824L231.58 381.388H225.071L225.257 380.195H230.2C230.275 379.776 230.255 379.405 230.142 379.082C230.028 378.755 229.833 378.498 229.556 378.31C229.282 378.121 228.938 378.027 228.522 378.027C228.096 378.027 227.699 378.139 227.329 378.363C226.96 378.587 226.651 378.873 226.402 379.221C226.157 379.565 226.003 379.92 225.939 380.286L225.753 381.378C225.66 381.974 225.676 382.454 225.801 382.816C225.928 383.178 226.152 383.441 226.472 383.604C226.791 383.768 227.191 383.849 227.67 383.849C227.979 383.849 228.265 383.807 228.528 383.722C228.794 383.633 229.03 383.503 229.236 383.333C229.442 383.159 229.614 382.942 229.753 382.683L231.212 382.955C231.017 383.398 230.737 383.787 230.371 384.121C230.005 384.451 229.574 384.709 229.076 384.893C228.583 385.075 228.036 385.165 227.436 385.165ZM232.769 385L234.133 376.818H235.662L235.438 378.15H235.539C235.788 377.699 236.125 377.347 236.551 377.095C236.981 376.839 237.467 376.712 238.011 376.712C238.55 376.712 238.985 376.839 239.316 377.095C239.65 377.351 239.868 377.702 239.971 378.15H240.056C240.319 377.71 240.686 377.36 241.159 377.1C241.631 376.841 242.162 376.712 242.751 376.712C243.487 376.712 244.051 376.946 244.445 377.415C244.843 377.88 244.964 378.58 244.808 379.513L243.891 385H242.293L243.188 379.663C243.277 379.105 243.192 378.704 242.933 378.459C242.673 378.21 242.334 378.086 241.915 378.086C241.397 378.086 240.967 378.246 240.626 378.565C240.285 378.881 240.076 379.288 239.998 379.785L239.119 385H237.537L238.447 379.561C238.518 379.114 238.437 378.757 238.202 378.491C237.972 378.221 237.634 378.086 237.19 378.086C236.888 378.086 236.596 378.166 236.311 378.326C236.031 378.485 235.791 378.706 235.592 378.986C235.393 379.267 235.264 379.59 235.203 379.956L234.362 385H232.769ZM246.149 385L247.96 374.091H249.552L248.886 378.145H248.982C249.103 377.974 249.268 377.777 249.478 377.553C249.691 377.33 249.966 377.134 250.303 376.967C250.641 376.797 251.063 376.712 251.571 376.712C252.232 376.712 252.793 376.879 253.254 377.212C253.716 377.546 254.043 378.027 254.234 378.656C254.426 379.284 254.449 380.041 254.304 380.925C254.158 381.809 253.885 382.567 253.483 383.2C253.086 383.828 252.601 384.313 252.029 384.654C251.457 384.991 250.841 385.16 250.181 385.16C249.684 385.16 249.291 385.076 249.004 384.909C248.72 384.743 248.506 384.547 248.364 384.324C248.226 384.1 248.121 383.901 248.05 383.727H247.917L247.704 385H246.149ZM248.391 380.909C248.299 381.484 248.299 381.989 248.391 382.422C248.487 382.855 248.673 383.194 248.95 383.439C249.231 383.681 249.598 383.801 250.053 383.801C250.529 383.801 250.948 383.675 251.31 383.423C251.672 383.168 251.971 382.821 252.205 382.385C252.439 381.948 252.603 381.456 252.695 380.909C252.78 380.369 252.778 379.885 252.69 379.455C252.601 379.025 252.416 378.686 252.136 378.438C251.859 378.189 251.481 378.065 251.001 378.065C250.54 378.065 250.129 378.184 249.771 378.422C249.412 378.659 249.116 378.991 248.881 379.418C248.647 379.844 248.483 380.341 248.391 380.909ZM258.915 385.165C258.113 385.165 257.449 384.993 256.923 384.648C256.401 384.3 256.035 383.812 255.826 383.184C255.616 382.551 255.583 381.811 255.725 380.962C255.863 380.124 256.142 379.386 256.561 378.746C256.98 378.107 257.502 377.608 258.127 377.25C258.756 376.891 259.45 376.712 260.21 376.712C260.671 376.712 261.106 376.788 261.515 376.941C261.927 377.093 262.276 377.333 262.564 377.66C262.852 377.987 263.051 378.411 263.161 378.933C263.274 379.451 263.271 380.082 263.15 380.824L263.059 381.388H256.55L256.737 380.195H261.68C261.754 379.776 261.735 379.405 261.621 379.082C261.508 378.755 261.312 378.498 261.035 378.31C260.762 378.121 260.417 378.027 260.002 378.027C259.576 378.027 259.178 378.139 258.809 378.363C258.439 378.587 258.131 378.873 257.882 379.221C257.637 379.565 257.482 379.92 257.419 380.286L257.232 381.378C257.14 381.974 257.156 382.454 257.28 382.816C257.408 383.178 257.632 383.441 257.951 383.604C258.271 383.768 258.67 383.849 259.15 383.849C259.459 383.849 259.744 383.807 260.007 383.722C260.274 383.633 260.51 383.503 260.716 383.333C260.922 383.159 261.094 382.942 261.232 382.683L262.692 382.955C262.497 383.398 262.216 383.787 261.85 384.121C261.485 384.451 261.053 384.709 260.556 384.893C260.062 385.075 259.515 385.165 258.915 385.165ZM264.243 385L265.607 376.818H267.146L266.928 378.118H267.013C267.233 377.678 267.555 377.331 267.977 377.079C268.4 376.824 268.851 376.696 269.33 376.696C269.433 376.696 269.551 376.699 269.682 376.706C269.813 376.71 269.92 376.719 270.002 376.733L269.746 378.256C269.685 378.239 269.575 378.219 269.416 378.198C269.256 378.173 269.091 378.161 268.92 378.161C268.547 378.161 268.201 378.24 267.881 378.4C267.562 378.556 267.294 378.775 267.077 379.055C266.861 379.332 266.72 379.648 266.656 380.004L265.836 385H264.243ZM277.194 378.816L275.708 379.071C275.676 378.883 275.61 378.706 275.511 378.539C275.415 378.372 275.267 378.237 275.069 378.134C274.87 378.027 274.605 377.974 274.275 377.974C273.817 377.974 273.415 378.079 273.071 378.288C272.73 378.498 272.535 378.764 272.485 379.087C272.439 379.35 272.501 379.563 272.672 379.727C272.842 379.886 273.142 380.02 273.572 380.126L274.829 380.424C275.553 380.598 276.072 380.87 276.384 381.239C276.7 381.605 276.81 382.081 276.714 382.667C276.633 383.153 276.42 383.585 276.075 383.961C275.734 384.338 275.298 384.632 274.765 384.846C274.232 385.059 273.639 385.165 272.986 385.165C272.055 385.165 271.331 384.968 270.812 384.574C270.294 384.18 270.028 383.622 270.013 382.901L271.59 382.667C271.619 383.068 271.762 383.372 272.022 383.578C272.284 383.78 272.648 383.881 273.114 383.881C273.646 383.885 274.092 383.773 274.451 383.546C274.809 383.319 275.013 383.043 275.063 382.72C275.106 382.468 275.049 382.259 274.893 382.092C274.74 381.925 274.47 381.797 274.083 381.708L272.762 381.404C272.023 381.23 271.501 380.95 271.196 380.563C270.891 380.176 270.788 379.689 270.887 379.103C270.965 378.624 271.168 378.207 271.494 377.852C271.825 377.493 272.242 377.214 272.746 377.015C273.25 376.813 273.808 376.712 274.419 376.712C275.31 376.712 275.979 376.903 276.427 377.287C276.874 377.667 277.13 378.176 277.194 378.816ZM106.466 405.997C106.026 405.997 105.641 405.889 105.31 405.672C104.984 405.452 104.741 405.159 104.581 404.793C104.424 404.428 104.384 404.025 104.458 403.584C104.529 403.162 104.694 402.778 104.954 402.434C105.216 402.089 105.538 401.816 105.918 401.613C106.298 401.411 106.697 401.31 107.116 401.31C107.56 401.31 107.945 401.42 108.272 401.64C108.599 401.86 108.84 402.153 108.997 402.519C109.156 402.881 109.201 403.282 109.13 403.723C109.062 404.145 108.897 404.531 108.634 404.879C108.372 405.223 108.05 405.496 107.67 405.699C107.29 405.898 106.889 405.997 106.466 405.997ZM122.096 408H118.517L120.328 397.091H123.923C124.996 397.091 125.882 397.315 126.581 397.762C127.281 398.206 127.771 398.842 128.051 399.669C128.332 400.493 128.376 401.478 128.185 402.625C128 403.748 127.638 404.71 127.098 405.512C126.562 406.311 125.871 406.926 125.026 407.355C124.181 407.785 123.204 408 122.096 408ZM120.408 406.562H122.165C122.996 406.562 123.716 406.4 124.323 406.077C124.934 405.754 125.429 405.285 125.809 404.671C126.189 404.056 126.452 403.309 126.597 402.428C126.739 401.59 126.727 400.882 126.56 400.303C126.393 399.721 126.07 399.28 125.591 398.982C125.111 398.68 124.474 398.529 123.678 398.529H121.734L120.408 406.562ZM129.214 408L130.578 399.818H132.17L130.807 408H129.214ZM131.707 398.54C131.43 398.54 131.196 398.447 131.004 398.263C130.816 398.075 130.729 397.851 130.743 397.592C130.757 397.329 130.867 397.105 131.073 396.92C131.279 396.732 131.519 396.638 131.792 396.638C132.069 396.638 132.302 396.732 132.49 396.92C132.678 397.105 132.767 397.329 132.756 397.592C132.742 397.851 132.632 398.075 132.426 398.263C132.224 398.447 131.984 398.54 131.707 398.54ZM140.114 401.816L138.628 402.071C138.596 401.883 138.53 401.706 138.431 401.539C138.335 401.372 138.187 401.237 137.988 401.134C137.79 401.027 137.525 400.974 137.195 400.974C136.737 400.974 136.335 401.079 135.991 401.288C135.65 401.498 135.455 401.764 135.405 402.087C135.359 402.35 135.421 402.563 135.591 402.727C135.762 402.886 136.062 403.02 136.492 403.126L137.749 403.424C138.473 403.598 138.992 403.87 139.304 404.239C139.62 404.605 139.73 405.081 139.634 405.667C139.553 406.153 139.34 406.585 138.995 406.961C138.654 407.338 138.218 407.632 137.685 407.846C137.152 408.059 136.559 408.165 135.906 408.165C134.975 408.165 134.251 407.968 133.732 407.574C133.214 407.18 132.948 406.622 132.933 405.901L134.51 405.667C134.539 406.068 134.682 406.372 134.942 406.578C135.204 406.78 135.568 406.881 136.034 406.881C136.566 406.885 137.012 406.773 137.371 406.546C137.729 406.319 137.933 406.043 137.983 405.72C138.026 405.468 137.969 405.259 137.813 405.092C137.66 404.925 137.39 404.797 137.003 404.708L135.682 404.404C134.943 404.23 134.421 403.95 134.116 403.563C133.811 403.176 133.708 402.689 133.807 402.103C133.885 401.624 134.088 401.207 134.414 400.852C134.744 400.493 135.162 400.214 135.666 400.015C136.17 399.813 136.728 399.712 137.339 399.712C138.23 399.712 138.899 399.903 139.347 400.287C139.794 400.667 140.05 401.176 140.114 401.816ZM144.416 408.165C143.621 408.165 142.969 407.986 142.462 407.627C141.954 407.265 141.6 406.766 141.402 406.13C141.203 405.495 141.171 404.767 141.306 403.946C141.441 403.115 141.716 402.382 142.131 401.746C142.55 401.107 143.074 400.608 143.703 400.25C144.335 399.891 145.036 399.712 145.807 399.712C146.428 399.712 146.963 399.827 147.41 400.058C147.858 400.285 148.197 400.605 148.427 401.017C148.658 401.429 148.758 401.91 148.726 402.46H147.176C147.151 402.077 147.009 401.746 146.75 401.469C146.49 401.192 146.109 401.054 145.604 401.054C145.16 401.054 144.752 401.171 144.379 401.406C144.006 401.636 143.692 401.967 143.436 402.396C143.181 402.822 143.007 403.327 142.914 403.909C142.815 404.506 142.82 405.021 142.93 405.454C143.04 405.887 143.243 406.223 143.538 406.461C143.832 406.699 144.203 406.817 144.651 406.817C144.956 406.817 145.24 406.762 145.503 406.652C145.769 406.539 146.004 406.377 146.206 406.168C146.412 405.958 146.572 405.706 146.686 405.411H148.241C148.088 405.94 147.833 406.413 147.474 406.828C147.119 407.244 146.682 407.57 146.164 407.808C145.645 408.046 145.063 408.165 144.416 408.165ZM155.25 404.607L156.049 399.818H157.647L156.283 408H154.717L154.957 406.583H154.871C154.616 407.02 154.254 407.384 153.785 407.675C153.32 407.963 152.78 408.107 152.165 408.107C151.64 408.107 151.194 407.991 150.828 407.76C150.466 407.526 150.209 407.18 150.056 406.722C149.903 406.263 149.882 405.697 149.992 405.022L150.866 399.818H152.458L151.622 404.831C151.533 405.388 151.617 405.832 151.873 406.162C152.128 406.493 152.501 406.658 152.991 406.658C153.289 406.658 153.598 406.583 153.918 406.434C154.238 406.285 154.52 406.059 154.765 405.757C155.013 405.456 155.175 405.072 155.25 404.607ZM165.587 401.816L164.101 402.071C164.069 401.883 164.004 401.706 163.904 401.539C163.808 401.372 163.661 401.237 163.462 401.134C163.263 401.027 162.999 400.974 162.668 400.974C162.21 400.974 161.809 401.079 161.465 401.288C161.124 401.498 160.928 401.764 160.879 402.087C160.832 402.35 160.895 402.563 161.065 402.727C161.236 402.886 161.536 403.02 161.965 403.126L163.222 403.424C163.947 403.598 164.465 403.87 164.778 404.239C165.094 404.605 165.204 405.081 165.108 405.667C165.026 406.153 164.813 406.585 164.469 406.961C164.128 407.338 163.691 407.632 163.158 407.846C162.626 408.059 162.033 408.165 161.379 408.165C160.449 408.165 159.725 407.968 159.206 407.574C158.688 407.18 158.421 406.622 158.407 405.901L159.984 405.667C160.012 406.068 160.156 406.372 160.415 406.578C160.678 406.78 161.042 406.881 161.507 406.881C162.04 406.885 162.486 406.773 162.844 406.546C163.203 406.319 163.407 406.043 163.457 405.72C163.499 405.468 163.443 405.259 163.286 405.092C163.134 404.925 162.864 404.797 162.477 404.708L161.156 404.404C160.417 404.23 159.895 403.95 159.59 403.563C159.284 403.176 159.181 402.689 159.281 402.103C159.359 401.624 159.561 401.207 159.888 400.852C160.218 400.493 160.635 400.214 161.14 400.015C161.644 399.813 162.201 399.712 162.812 399.712C163.704 399.712 164.373 399.903 164.82 400.287C165.268 400.667 165.524 401.176 165.587 401.816ZM173.629 401.816L172.143 402.071C172.111 401.883 172.046 401.706 171.946 401.539C171.85 401.372 171.703 401.237 171.504 401.134C171.305 401.027 171.041 400.974 170.71 400.974C170.252 400.974 169.851 401.079 169.507 401.288C169.166 401.498 168.97 401.764 168.921 402.087C168.874 402.35 168.937 402.563 169.107 402.727C169.278 402.886 169.578 403.02 170.007 403.126L171.264 403.424C171.989 403.598 172.507 403.87 172.82 404.239C173.136 404.605 173.246 405.081 173.15 405.667C173.068 406.153 172.855 406.585 172.511 406.961C172.17 407.338 171.733 407.632 171.2 407.846C170.668 408.059 170.075 408.165 169.421 408.165C168.491 408.165 167.767 407.968 167.248 407.574C166.73 407.18 166.463 406.622 166.449 405.901L168.026 405.667C168.054 406.068 168.198 406.372 168.457 406.578C168.72 406.78 169.084 406.881 169.549 406.881C170.082 406.885 170.528 406.773 170.886 406.546C171.245 406.319 171.449 406.043 171.499 405.72C171.541 405.468 171.485 405.259 171.328 405.092C171.176 404.925 170.906 404.797 170.519 404.708L169.198 404.404C168.459 404.23 167.937 403.95 167.632 403.563C167.326 403.176 167.223 402.689 167.323 402.103C167.401 401.624 167.603 401.207 167.93 400.852C168.26 400.493 168.677 400.214 169.182 400.015C169.686 399.813 170.243 399.712 170.854 399.712C171.746 399.712 172.415 399.903 172.862 400.287C173.31 400.667 173.566 401.176 173.629 401.816ZM174.507 408L175.871 399.818H177.463L176.1 408H174.507ZM177 398.54C176.723 398.54 176.489 398.447 176.297 398.263C176.109 398.075 176.022 397.851 176.036 397.592C176.05 397.329 176.16 397.105 176.366 396.92C176.572 396.732 176.812 396.638 177.085 396.638C177.362 396.638 177.595 396.732 177.783 396.92C177.971 397.105 178.06 397.329 178.049 397.592C178.035 397.851 177.925 398.075 177.719 398.263C177.517 398.447 177.277 398.54 177 398.54ZM181.726 408.165C180.948 408.165 180.298 407.988 179.776 407.632C179.254 407.274 178.887 406.773 178.674 406.13C178.464 405.484 178.429 404.733 178.567 403.877C178.702 403.039 178.974 402.308 179.382 401.683C179.794 401.058 180.309 400.573 180.927 400.228C181.548 399.884 182.239 399.712 182.999 399.712C183.777 399.712 184.425 399.891 184.943 400.25C185.465 400.608 185.833 401.111 186.046 401.757C186.259 402.403 186.296 403.156 186.158 404.016C186.023 404.847 185.748 405.575 185.332 406.2C184.92 406.821 184.405 407.304 183.787 407.648C183.17 407.993 182.482 408.165 181.726 408.165ZM181.817 406.828C182.328 406.828 182.774 406.693 183.154 406.423C183.537 406.153 183.85 405.795 184.091 405.347C184.333 404.9 184.498 404.41 184.586 403.877C184.668 403.362 184.666 402.892 184.581 402.466C184.499 402.036 184.322 401.691 184.048 401.432C183.775 401.173 183.395 401.043 182.909 401.043C182.397 401.043 181.948 401.18 181.561 401.453C181.177 401.723 180.865 402.084 180.623 402.535C180.385 402.986 180.224 403.478 180.139 404.01C180.057 404.522 180.057 404.992 180.139 405.422C180.22 405.848 180.398 406.189 180.671 406.445C180.945 406.7 181.327 406.828 181.817 406.828ZM189.677 403.142L188.878 408H187.286L188.649 399.818H190.178L189.954 401.15H190.056C190.315 400.713 190.668 400.365 191.116 400.106C191.567 399.843 192.099 399.712 192.714 399.712C193.268 399.712 193.733 399.829 194.109 400.063C194.489 400.294 194.757 400.638 194.914 401.097C195.073 401.555 195.098 402.121 194.988 402.796L194.115 408H192.522L193.358 402.988C193.454 402.395 193.376 401.931 193.124 401.597C192.875 401.26 192.479 401.091 191.936 401.091C191.567 401.091 191.224 401.171 190.908 401.331C190.595 401.491 190.331 401.725 190.114 402.034C189.901 402.339 189.756 402.709 189.677 403.142ZM203.41 401.816L201.924 402.071C201.892 401.883 201.826 401.706 201.726 401.539C201.631 401.372 201.483 401.237 201.284 401.134C201.085 401.027 200.821 400.974 200.491 400.974C200.033 400.974 199.631 401.079 199.287 401.288C198.946 401.498 198.751 401.764 198.701 402.087C198.655 402.35 198.717 402.563 198.887 402.727C199.058 402.886 199.358 403.02 199.788 403.126L201.045 403.424C201.769 403.598 202.288 403.87 202.6 404.239C202.916 404.605 203.026 405.081 202.93 405.667C202.849 406.153 202.636 406.585 202.291 406.961C201.95 407.338 201.513 407.632 200.981 407.846C200.448 408.059 199.855 408.165 199.202 408.165C198.271 408.165 197.547 407.968 197.028 407.574C196.51 407.18 196.244 406.622 196.229 405.901L197.806 405.667C197.834 406.068 197.978 406.372 198.237 406.578C198.5 406.78 198.864 406.881 199.329 406.881C199.862 406.885 200.308 406.773 200.666 406.546C201.025 406.319 201.229 406.043 201.279 405.72C201.322 405.468 201.265 405.259 201.109 405.092C200.956 404.925 200.686 404.797 200.299 404.708L198.978 404.404C198.239 404.23 197.717 403.95 197.412 403.563C197.106 403.176 197.003 402.689 197.103 402.103C197.181 401.624 197.383 401.207 197.71 400.852C198.04 400.493 198.458 400.214 198.962 400.015C199.466 399.813 200.024 399.712 200.634 399.712C201.526 399.712 202.195 399.903 202.643 400.287C203.09 400.667 203.346 401.176 203.41 401.816ZM208.257 408L209.621 399.818H211.16L210.942 401.118H211.027C211.247 400.678 211.568 400.331 211.991 400.079C212.414 399.824 212.865 399.696 213.344 399.696C213.447 399.696 213.564 399.699 213.696 399.706C213.827 399.71 213.934 399.719 214.015 399.733L213.759 401.256C213.699 401.239 213.589 401.219 213.429 401.198C213.269 401.173 213.104 401.161 212.934 401.161C212.561 401.161 212.215 401.24 211.895 401.4C211.576 401.556 211.307 401.775 211.091 402.055C210.874 402.332 210.734 402.648 210.67 403.004L209.85 408H208.257ZM217.255 408.165C216.453 408.165 215.789 407.993 215.263 407.648C214.741 407.3 214.375 406.812 214.166 406.184C213.956 405.551 213.922 404.811 214.064 403.962C214.203 403.124 214.482 402.386 214.901 401.746C215.32 401.107 215.842 400.608 216.467 400.25C217.095 399.891 217.79 399.712 218.55 399.712C219.011 399.712 219.446 399.788 219.855 399.941C220.267 400.093 220.616 400.333 220.904 400.66C221.192 400.987 221.39 401.411 221.501 401.933C221.614 402.451 221.611 403.082 221.49 403.824L221.399 404.388H214.89L215.077 403.195H220.02C220.094 402.776 220.075 402.405 219.961 402.082C219.847 401.755 219.652 401.498 219.375 401.31C219.102 401.121 218.757 401.027 218.342 401.027C217.916 401.027 217.518 401.139 217.149 401.363C216.779 401.587 216.47 401.873 216.222 402.221C215.977 402.565 215.822 402.92 215.758 403.286L215.572 404.378C215.48 404.974 215.496 405.454 215.62 405.816C215.748 406.178 215.971 406.441 216.291 406.604C216.611 406.768 217.01 406.849 217.49 406.849C217.798 406.849 218.084 406.807 218.347 406.722C218.613 406.633 218.85 406.503 219.056 406.333C219.262 406.159 219.434 405.942 219.572 405.683L221.032 405.955C220.836 406.398 220.556 406.787 220.19 407.121C219.824 407.451 219.393 407.709 218.896 407.893C218.402 408.075 217.855 408.165 217.255 408.165ZM225.987 397.091L224.176 408H222.583L224.394 397.091H225.987ZM228.678 408.181C228.16 408.181 227.707 408.085 227.32 407.893C226.933 407.698 226.647 407.416 226.462 407.047C226.278 406.677 226.23 406.224 226.319 405.688C226.397 405.227 226.549 404.847 226.777 404.548C227.007 404.25 227.288 404.014 227.618 403.84C227.949 403.662 228.307 403.529 228.694 403.44C229.081 403.352 229.472 403.286 229.866 403.243C230.363 403.186 230.766 403.138 231.075 403.099C231.388 403.06 231.622 403 231.778 402.918C231.935 402.833 232.029 402.695 232.061 402.503V402.466C232.135 402.004 232.068 401.645 231.858 401.39C231.652 401.13 231.294 401.001 230.782 401.001C230.25 401.001 229.802 401.118 229.44 401.352C229.081 401.587 228.817 401.849 228.646 402.141L227.219 401.8C227.474 401.303 227.799 400.901 228.194 400.596C228.591 400.287 229.026 400.063 229.499 399.925C229.971 399.783 230.454 399.712 230.947 399.712C231.274 399.712 231.613 399.751 231.965 399.829C232.316 399.903 232.636 400.042 232.924 400.244C233.215 400.447 233.431 400.736 233.574 401.113C233.716 401.485 233.737 401.97 233.637 402.567L232.737 408H231.182L231.374 406.881H231.31C231.175 407.087 230.987 407.29 230.745 407.489C230.507 407.687 230.216 407.853 229.871 407.984C229.527 408.115 229.129 408.181 228.678 408.181ZM229.222 406.903C229.665 406.903 230.058 406.816 230.399 406.642C230.743 406.468 231.022 406.24 231.235 405.96C231.448 405.676 231.581 405.372 231.635 405.049L231.81 403.994C231.743 404.051 231.624 404.103 231.453 404.149C231.287 404.195 231.098 404.236 230.889 404.271C230.679 404.307 230.473 404.337 230.271 404.362C230.072 404.387 229.907 404.41 229.776 404.431C229.463 404.47 229.17 404.536 228.897 404.628C228.627 404.721 228.401 404.854 228.22 405.028C228.039 405.198 227.925 405.425 227.879 405.71C227.815 406.104 227.909 406.402 228.162 406.604C228.417 406.803 228.771 406.903 229.222 406.903ZM240.041 399.818L239.834 401.097H235.365L235.572 399.818H240.041ZM237.09 397.858H238.683L237.394 405.598C237.344 405.907 237.353 406.139 237.421 406.295C237.488 406.448 237.591 406.553 237.73 406.61C237.872 406.663 238.03 406.69 238.204 406.69C238.332 406.69 238.443 406.681 238.539 406.663C238.635 406.645 238.712 406.631 238.768 406.62L238.854 407.936C238.747 407.972 238.603 408.007 238.422 408.043C238.245 408.082 238.028 408.103 237.772 408.107C237.353 408.114 236.975 408.039 236.638 407.883C236.3 407.723 236.048 407.482 235.881 407.158C235.714 406.832 235.674 406.422 235.759 405.928L237.09 397.858ZM243.857 408.165C243.054 408.165 242.39 407.993 241.865 407.648C241.343 407.3 240.977 406.812 240.767 406.184C240.558 405.551 240.524 404.811 240.666 403.962C240.805 403.124 241.083 402.386 241.502 401.746C241.921 401.107 242.443 400.608 243.068 400.25C243.697 399.891 244.391 399.712 245.151 399.712C245.613 399.712 246.048 399.788 246.456 399.941C246.868 400.093 247.218 400.333 247.506 400.66C247.793 400.987 247.992 401.411 248.102 401.933C248.216 402.451 248.212 403.082 248.091 403.824L248.001 404.388H241.492L241.678 403.195H246.621C246.696 402.776 246.676 402.405 246.563 402.082C246.449 401.755 246.254 401.498 245.977 401.31C245.703 401.121 245.359 401.027 244.943 401.027C244.517 401.027 244.119 401.139 243.75 401.363C243.381 401.587 243.072 401.873 242.823 402.221C242.578 402.565 242.424 402.92 242.36 403.286L242.173 404.378C242.081 404.974 242.097 405.454 242.221 405.816C242.349 406.178 242.573 406.441 242.893 406.604C243.212 406.768 243.612 406.849 244.091 406.849C244.4 406.849 244.686 406.807 244.949 406.722C245.215 406.633 245.451 406.503 245.657 406.333C245.863 406.159 246.035 405.942 246.174 405.683L247.633 405.955C247.438 406.398 247.157 406.787 246.792 407.121C246.426 407.451 245.994 407.709 245.497 407.893C245.004 408.075 244.457 408.165 243.857 408.165ZM252.237 408.16C251.573 408.16 251.01 407.991 250.548 407.654C250.09 407.313 249.765 406.828 249.574 406.2C249.385 405.567 249.364 404.809 249.51 403.925C249.659 403.041 249.934 402.284 250.335 401.656C250.737 401.027 251.223 400.546 251.795 400.212C252.367 399.879 252.983 399.712 253.643 399.712C254.151 399.712 254.545 399.797 254.826 399.967C255.11 400.134 255.319 400.33 255.454 400.553C255.589 400.777 255.69 400.974 255.758 401.145H255.848L256.525 397.091H258.118L256.307 408H254.751L254.97 406.727H254.836C254.712 406.901 254.54 407.1 254.32 407.324C254.103 407.547 253.826 407.743 253.489 407.909C253.151 408.076 252.734 408.16 252.237 408.16ZM252.775 406.801C253.233 406.801 253.643 406.681 254.005 406.439C254.371 406.194 254.675 405.855 254.916 405.422C255.161 404.989 255.332 404.484 255.428 403.909C255.524 403.341 255.522 402.844 255.422 402.418C255.323 401.991 255.131 401.659 254.847 401.422C254.563 401.184 254.188 401.065 253.723 401.065C253.244 401.065 252.826 401.189 252.471 401.438C252.116 401.686 251.825 402.025 251.598 402.455C251.374 402.885 251.218 403.369 251.129 403.909C251.037 404.456 251.033 404.948 251.118 405.385C251.204 405.821 251.383 406.168 251.656 406.423C251.93 406.675 252.303 406.801 252.775 406.801ZM267.727 399.818L267.519 401.097H263.05L263.258 399.818H267.727ZM264.776 397.858H266.369L265.08 405.598C265.03 405.907 265.039 406.139 265.106 406.295C265.174 406.448 265.277 406.553 265.415 406.61C265.557 406.663 265.715 406.69 265.889 406.69C266.017 406.69 266.129 406.681 266.225 406.663C266.321 406.645 266.397 406.631 266.454 406.62L266.539 407.936C266.433 407.972 266.289 408.007 266.108 408.043C265.93 408.082 265.714 408.103 265.458 408.107C265.039 408.114 264.661 408.039 264.323 407.883C263.986 407.723 263.734 407.482 263.567 407.158C263.4 406.832 263.359 406.422 263.444 405.928L264.776 397.858ZM271.521 408.165C270.743 408.165 270.093 407.988 269.571 407.632C269.049 407.274 268.682 406.773 268.469 406.13C268.259 405.484 268.224 404.733 268.362 403.877C268.497 403.039 268.769 402.308 269.177 401.683C269.589 401.058 270.104 400.573 270.722 400.228C271.343 399.884 272.034 399.712 272.794 399.712C273.572 399.712 274.22 399.891 274.738 400.25C275.26 400.608 275.628 401.111 275.841 401.757C276.054 402.403 276.091 403.156 275.953 404.016C275.818 404.847 275.543 405.575 275.127 406.2C274.715 406.821 274.2 407.304 273.582 407.648C272.964 407.993 272.277 408.165 271.521 408.165ZM271.612 406.828C272.123 406.828 272.569 406.693 272.949 406.423C273.332 406.153 273.645 405.795 273.886 405.347C274.127 404.9 274.293 404.41 274.381 403.877C274.463 403.362 274.461 402.892 274.376 402.466C274.294 402.036 274.117 401.691 273.843 401.432C273.57 401.173 273.19 401.043 272.703 401.043C272.192 401.043 271.743 401.18 271.356 401.453C270.972 401.723 270.66 402.084 270.418 402.535C270.18 402.986 270.019 403.478 269.934 404.01C269.852 404.522 269.852 404.992 269.934 405.422C270.015 405.848 270.193 406.189 270.466 406.445C270.74 406.7 271.121 406.828 271.612 406.828ZM281.045 408L282.409 399.818H284.001L282.638 408H281.045ZM283.538 398.54C283.261 398.54 283.027 398.447 282.835 398.263C282.647 398.075 282.56 397.851 282.574 397.592C282.588 397.329 282.698 397.105 282.904 396.92C283.11 396.732 283.35 396.638 283.623 396.638C283.9 396.638 284.133 396.732 284.321 396.92C284.509 397.105 284.598 397.329 284.587 397.592C284.573 397.851 284.463 398.075 284.257 398.263C284.055 398.447 283.815 398.54 283.538 398.54ZM287.177 403.142L286.378 408H284.786L286.149 399.818H287.678L287.454 401.15H287.556C287.815 400.713 288.168 400.365 288.616 400.106C289.067 399.843 289.599 399.712 290.214 399.712C290.768 399.712 291.233 399.829 291.609 400.063C291.989 400.294 292.257 400.638 292.414 401.097C292.573 401.555 292.598 402.121 292.488 402.796L291.615 408H290.022L290.858 402.988C290.954 402.395 290.876 401.931 290.624 401.597C290.375 401.26 289.979 401.091 289.436 401.091C289.067 401.091 288.724 401.171 288.408 401.331C288.095 401.491 287.831 401.725 287.614 402.034C287.401 402.339 287.256 402.709 287.177 403.142ZM298.928 399.818L298.72 401.097H294.251L294.459 399.818H298.928ZM295.977 397.858H297.57L296.281 405.598C296.231 405.907 296.24 406.139 296.307 406.295C296.375 406.448 296.478 406.553 296.616 406.61C296.758 406.663 296.916 406.69 297.09 406.69C297.218 406.69 297.33 406.681 297.426 406.663C297.522 406.645 297.598 406.631 297.655 406.62L297.74 407.936C297.634 407.972 297.49 408.007 297.309 408.043C297.131 408.082 296.915 408.103 296.659 408.107C296.24 408.114 295.862 408.039 295.524 407.883C295.187 407.723 294.935 407.482 294.768 407.158C294.601 406.832 294.56 406.422 294.646 405.928L295.977 397.858ZM302.743 408.165C301.941 408.165 301.277 407.993 300.751 407.648C300.229 407.3 299.863 406.812 299.654 406.184C299.444 405.551 299.411 404.811 299.553 403.962C299.691 403.124 299.97 402.386 300.389 401.746C300.808 401.107 301.33 400.608 301.955 400.25C302.584 399.891 303.278 399.712 304.038 399.712C304.499 399.712 304.934 399.788 305.343 399.941C305.755 400.093 306.105 400.333 306.392 400.66C306.68 400.987 306.879 401.411 306.989 401.933C307.102 402.451 307.099 403.082 306.978 403.824L306.888 404.388H300.378L300.565 403.195H305.508C305.583 402.776 305.563 402.405 305.449 402.082C305.336 401.755 305.14 401.498 304.863 401.31C304.59 401.121 304.246 401.027 303.83 401.027C303.404 401.027 303.006 401.139 302.637 401.363C302.268 401.587 301.959 401.873 301.71 402.221C301.465 402.565 301.311 402.92 301.247 403.286L301.06 404.378C300.968 404.974 300.984 405.454 301.108 405.816C301.236 406.178 301.46 406.441 301.779 406.604C302.099 406.768 302.498 406.849 302.978 406.849C303.287 406.849 303.573 406.807 303.835 406.722C304.102 406.633 304.338 406.503 304.544 406.333C304.75 406.159 304.922 405.942 305.061 405.683L306.52 405.955C306.325 406.398 306.044 406.787 305.678 407.121C305.313 407.451 304.881 407.709 304.384 407.893C303.89 408.075 303.344 408.165 302.743 408.165ZM308.071 408L309.435 399.818H310.975L310.756 401.118H310.841C311.062 400.678 311.383 400.331 311.805 400.079C312.228 399.824 312.679 399.696 313.158 399.696C313.261 399.696 313.379 399.699 313.51 399.706C313.641 399.71 313.748 399.719 313.83 399.733L313.574 401.256C313.514 401.239 313.403 401.219 313.244 401.198C313.084 401.173 312.919 401.161 312.748 401.161C312.375 401.161 312.029 401.24 311.71 401.4C311.39 401.556 311.122 401.775 310.905 402.055C310.689 402.332 310.548 402.648 310.484 403.004L309.664 408H308.071ZM317.07 408.165C316.267 408.165 315.603 407.993 315.077 407.648C314.555 407.3 314.19 406.812 313.98 406.184C313.771 405.551 313.737 404.811 313.879 403.962C314.017 403.124 314.296 402.386 314.715 401.746C315.134 401.107 315.656 400.608 316.281 400.25C316.91 399.891 317.604 399.712 318.364 399.712C318.826 399.712 319.261 399.788 319.669 399.941C320.081 400.093 320.431 400.333 320.718 400.66C321.006 400.987 321.205 401.411 321.315 401.933C321.429 402.451 321.425 403.082 321.304 403.824L321.214 404.388H314.705L314.891 403.195H319.834C319.909 402.776 319.889 402.405 319.776 402.082C319.662 401.755 319.467 401.498 319.19 401.31C318.916 401.121 318.572 401.027 318.156 401.027C317.73 401.027 317.332 401.139 316.963 401.363C316.594 401.587 316.285 401.873 316.036 402.221C315.791 402.565 315.637 402.92 315.573 403.286L315.386 404.378C315.294 404.974 315.31 405.454 315.434 405.816C315.562 406.178 315.786 406.441 316.105 406.604C316.425 406.768 316.825 406.849 317.304 406.849C317.613 406.849 317.899 406.807 318.162 406.722C318.428 406.633 318.664 406.503 318.87 406.333C319.076 406.159 319.248 405.942 319.387 405.683L320.846 405.955C320.651 406.398 320.37 406.787 320.005 407.121C319.639 407.451 319.207 407.709 318.71 407.893C318.217 408.075 317.67 408.165 317.07 408.165ZM329.562 401.816L328.076 402.071C328.044 401.883 327.978 401.706 327.879 401.539C327.783 401.372 327.636 401.237 327.437 401.134C327.238 401.027 326.973 400.974 326.643 400.974C326.185 400.974 325.784 401.079 325.439 401.288C325.098 401.498 324.903 401.764 324.853 402.087C324.807 402.35 324.869 402.563 325.04 402.727C325.21 402.886 325.51 403.02 325.94 403.126L327.197 403.424C327.921 403.598 328.44 403.87 328.752 404.239C329.068 404.605 329.179 405.081 329.083 405.667C329.001 406.153 328.788 406.585 328.443 406.961C328.103 407.338 327.666 407.632 327.133 407.846C326.6 408.059 326.007 408.165 325.354 408.165C324.424 408.165 323.699 407.968 323.181 407.574C322.662 407.18 322.396 406.622 322.382 405.901L323.958 405.667C323.987 406.068 324.131 406.372 324.39 406.578C324.653 406.78 325.017 406.881 325.482 406.881C326.014 406.885 326.46 406.773 326.819 406.546C327.177 406.319 327.382 406.043 327.431 405.72C327.474 405.468 327.417 405.259 327.261 405.092C327.108 404.925 326.838 404.797 326.451 404.708L325.13 404.404C324.392 404.23 323.87 403.95 323.564 403.563C323.259 403.176 323.156 402.689 323.255 402.103C323.333 401.624 323.536 401.207 323.862 400.852C324.193 400.493 324.61 400.214 325.114 400.015C325.619 399.813 326.176 399.712 326.787 399.712C327.678 399.712 328.348 399.903 328.795 400.287C329.242 400.667 329.498 401.176 329.562 401.816ZM335.623 399.818L335.415 401.097H330.946L331.153 399.818H335.623ZM332.672 397.858H334.264L332.975 405.598C332.925 405.907 332.934 406.139 333.002 406.295C333.069 406.448 333.172 406.553 333.311 406.61C333.453 406.663 333.611 406.69 333.785 406.69C333.913 406.69 334.025 406.681 334.12 406.663C334.216 406.645 334.293 406.631 334.349 406.62L334.435 407.936C334.328 407.972 334.184 408.007 334.003 408.043C333.826 408.082 333.609 408.103 333.353 408.107C332.934 408.114 332.556 408.039 332.219 407.883C331.881 407.723 331.629 407.482 331.462 407.158C331.295 406.832 331.255 406.422 331.34 405.928L332.672 397.858ZM106.466 428.997C106.026 428.997 105.641 428.889 105.31 428.672C104.984 428.452 104.741 428.159 104.581 427.793C104.424 427.428 104.384 427.025 104.458 426.584C104.529 426.162 104.694 425.778 104.954 425.434C105.216 425.089 105.538 424.816 105.918 424.613C106.298 424.411 106.697 424.31 107.116 424.31C107.56 424.31 107.945 424.42 108.272 424.64C108.599 424.86 108.84 425.153 108.997 425.519C109.156 425.881 109.201 426.282 109.13 426.723C109.062 427.145 108.897 427.531 108.634 427.879C108.372 428.223 108.05 428.496 107.67 428.699C107.29 428.898 106.889 428.997 106.466 428.997ZM118.517 431L120.328 420.091H121.974L120.397 429.583H125.34L125.106 431H118.517ZM130.339 431.165C129.562 431.165 128.912 430.988 128.39 430.632C127.868 430.274 127.5 429.773 127.287 429.13C127.078 428.484 127.042 427.733 127.181 426.877C127.316 426.039 127.587 425.308 127.996 424.683C128.407 424.058 128.922 423.573 129.54 423.228C130.162 422.884 130.852 422.712 131.612 422.712C132.39 422.712 133.038 422.891 133.557 423.25C134.079 423.608 134.446 424.111 134.659 424.757C134.872 425.403 134.91 426.156 134.771 427.016C134.636 427.847 134.361 428.575 133.945 429.2C133.534 429.821 133.019 430.304 132.401 430.648C131.783 430.993 131.096 431.165 130.339 431.165ZM130.43 429.828C130.941 429.828 131.387 429.693 131.767 429.423C132.15 429.153 132.463 428.795 132.704 428.347C132.946 427.9 133.111 427.41 133.2 426.877C133.281 426.362 133.28 425.892 133.194 425.466C133.113 425.036 132.935 424.691 132.662 424.432C132.388 424.173 132.008 424.043 131.522 424.043C131.01 424.043 130.561 424.18 130.174 424.453C129.791 424.723 129.478 425.084 129.237 425.535C128.999 425.986 128.837 426.478 128.752 427.01C128.67 427.522 128.67 427.992 128.752 428.422C128.834 428.848 129.011 429.189 129.285 429.445C129.558 429.7 129.94 429.828 130.43 429.828ZM137.419 431L136.374 422.818H138.02L138.622 428.827H138.702L141.312 422.818H142.958L143.555 428.8H143.635L146.229 422.818H147.875L144.109 431H142.484L141.802 425.093H141.68L139.038 431H137.419ZM153.728 425.7L153.498 427.08H148.657L148.886 425.7H153.728ZM154.46 434.068L156.346 422.818H157.901L157.683 424.145H157.816C157.937 423.974 158.1 423.777 158.306 423.553C158.515 423.33 158.791 423.134 159.131 422.967C159.472 422.797 159.897 422.712 160.405 422.712C161.065 422.712 161.624 422.879 162.082 423.212C162.541 423.546 162.867 424.027 163.063 424.656C163.258 425.284 163.283 426.041 163.137 426.925C162.992 427.809 162.718 428.567 162.317 429.2C161.916 429.828 161.429 430.313 160.857 430.654C160.289 430.991 159.673 431.16 159.009 431.16C158.512 431.16 158.119 431.076 157.832 430.909C157.548 430.743 157.336 430.547 157.198 430.324C157.059 430.1 156.955 429.901 156.884 429.727H156.788L156.063 434.068H154.46ZM157.225 426.909C157.132 427.484 157.132 427.989 157.225 428.422C157.317 428.855 157.502 429.194 157.778 429.439C158.059 429.681 158.428 429.801 158.886 429.801C159.362 429.801 159.78 429.675 160.138 429.423C160.497 429.168 160.793 428.821 161.028 428.385C161.266 427.948 161.431 427.456 161.523 426.909C161.612 426.369 161.61 425.885 161.518 425.455C161.429 425.025 161.246 424.686 160.969 424.438C160.692 424.189 160.314 424.065 159.835 424.065C159.369 424.065 158.957 424.184 158.599 424.422C158.244 424.659 157.949 424.991 157.715 425.418C157.48 425.844 157.317 426.341 157.225 426.909ZM164.238 431L165.602 422.818H167.142L166.923 424.118H167.008C167.229 423.678 167.55 423.331 167.972 423.079C168.395 422.824 168.846 422.696 169.325 422.696C169.428 422.696 169.546 422.699 169.677 422.706C169.808 422.71 169.915 422.719 169.997 422.733L169.741 424.256C169.681 424.239 169.57 424.219 169.411 424.198C169.251 424.173 169.086 424.161 168.915 424.161C168.542 424.161 168.196 424.24 167.877 424.4C167.557 424.556 167.289 424.775 167.072 425.055C166.856 425.332 166.715 425.648 166.651 426.004L165.831 431H164.238ZM173.237 431.165C172.434 431.165 171.77 430.993 171.244 430.648C170.722 430.3 170.357 429.812 170.147 429.184C169.938 428.551 169.904 427.811 170.046 426.962C170.184 426.124 170.463 425.386 170.882 424.746C171.301 424.107 171.823 423.608 172.448 423.25C173.077 422.891 173.771 422.712 174.531 422.712C174.993 422.712 175.428 422.788 175.836 422.941C176.248 423.093 176.598 423.333 176.885 423.66C177.173 423.987 177.372 424.411 177.482 424.933C177.596 425.451 177.592 426.082 177.471 426.824L177.381 427.388H170.872L171.058 426.195H176.001C176.076 425.776 176.056 425.405 175.943 425.082C175.829 424.755 175.634 424.498 175.357 424.31C175.083 424.121 174.739 424.027 174.323 424.027C173.897 424.027 173.499 424.139 173.13 424.363C172.761 424.587 172.452 424.873 172.203 425.221C171.958 425.565 171.804 425.92 171.74 426.286L171.553 427.378C171.461 427.974 171.477 428.454 171.601 428.816C171.729 429.178 171.953 429.441 172.272 429.604C172.592 429.768 172.992 429.849 173.471 429.849C173.78 429.849 174.066 429.807 174.329 429.722C174.595 429.633 174.831 429.503 175.037 429.333C175.243 429.159 175.415 428.942 175.554 428.683L177.013 428.955C176.818 429.398 176.537 429.787 176.172 430.121C175.806 430.451 175.374 430.709 174.877 430.893C174.384 431.075 173.837 431.165 173.237 431.165ZM185.729 424.816L184.243 425.071C184.211 424.883 184.145 424.706 184.046 424.539C183.95 424.372 183.803 424.237 183.604 424.134C183.405 424.027 183.14 423.974 182.81 423.974C182.352 423.974 181.951 424.079 181.606 424.288C181.265 424.498 181.07 424.764 181.02 425.087C180.974 425.35 181.036 425.563 181.207 425.727C181.377 425.886 181.677 426.02 182.107 426.126L183.364 426.424C184.088 426.598 184.607 426.87 184.919 427.239C185.235 427.605 185.346 428.081 185.25 428.667C185.168 429.153 184.955 429.585 184.61 429.961C184.27 430.338 183.833 430.632 183.3 430.846C182.767 431.059 182.174 431.165 181.521 431.165C180.591 431.165 179.866 430.968 179.348 430.574C178.829 430.18 178.563 429.622 178.549 428.901L180.125 428.667C180.154 429.068 180.298 429.372 180.557 429.578C180.82 429.78 181.184 429.881 181.649 429.881C182.181 429.885 182.627 429.773 182.986 429.546C183.344 429.319 183.549 429.043 183.598 428.72C183.641 428.468 183.584 428.259 183.428 428.092C183.275 427.925 183.005 427.797 182.618 427.708L181.297 427.404C180.559 427.23 180.037 426.95 179.731 426.563C179.426 426.176 179.323 425.689 179.422 425.103C179.5 424.624 179.703 424.207 180.029 423.852C180.36 423.493 180.777 423.214 181.281 423.015C181.786 422.813 182.343 422.712 182.954 422.712C183.845 422.712 184.515 422.903 184.962 423.287C185.409 423.667 185.665 424.176 185.729 424.816ZM193.771 424.816L192.285 425.071C192.253 424.883 192.187 424.706 192.088 424.539C191.992 424.372 191.845 424.237 191.646 424.134C191.447 424.027 191.182 423.974 190.852 423.974C190.394 423.974 189.993 424.079 189.648 424.288C189.307 424.498 189.112 424.764 189.062 425.087C189.016 425.35 189.078 425.563 189.249 425.727C189.419 425.886 189.719 426.02 190.149 426.126L191.406 426.424C192.13 426.598 192.649 426.87 192.961 427.239C193.277 427.605 193.388 428.081 193.292 428.667C193.21 429.153 192.997 429.585 192.652 429.961C192.312 430.338 191.875 430.632 191.342 430.846C190.809 431.059 190.216 431.165 189.563 431.165C188.633 431.165 187.908 430.968 187.39 430.574C186.871 430.18 186.605 429.622 186.591 428.901L188.167 428.667C188.196 429.068 188.34 429.372 188.599 429.578C188.862 429.78 189.226 429.881 189.691 429.881C190.223 429.885 190.669 429.773 191.028 429.546C191.386 429.319 191.591 429.043 191.64 428.72C191.683 428.468 191.626 428.259 191.47 428.092C191.317 427.925 191.047 427.797 190.66 427.708L189.339 427.404C188.601 427.23 188.079 426.95 187.773 426.563C187.468 426.176 187.365 425.689 187.464 425.103C187.542 424.624 187.745 424.207 188.071 423.852C188.402 423.493 188.819 423.214 189.323 423.015C189.828 422.813 190.385 422.712 190.996 422.712C191.887 422.712 192.557 422.903 193.004 423.287C193.451 423.667 193.707 424.176 193.771 424.816ZM200.396 427.607L201.195 422.818H202.793L201.43 431H199.863L200.103 429.583H200.018C199.762 430.02 199.4 430.384 198.931 430.675C198.466 430.963 197.926 431.107 197.312 431.107C196.786 431.107 196.341 430.991 195.975 430.76C195.613 430.526 195.355 430.18 195.203 429.722C195.05 429.263 195.029 428.697 195.139 428.022L196.012 422.818H197.605L196.769 427.831C196.68 428.388 196.763 428.832 197.019 429.162C197.275 429.493 197.648 429.658 198.138 429.658C198.436 429.658 198.745 429.583 199.064 429.434C199.384 429.285 199.666 429.059 199.911 428.757C200.16 428.456 200.322 428.072 200.396 427.607ZM203.57 431L204.933 422.818H206.473L206.254 424.118H206.339C206.56 423.678 206.881 423.331 207.304 423.079C207.726 422.824 208.177 422.696 208.657 422.696C208.759 422.696 208.877 422.699 209.008 422.706C209.139 422.71 209.246 422.719 209.328 422.733L209.072 424.256C209.012 424.239 208.902 424.219 208.742 424.198C208.582 424.173 208.417 424.161 208.246 424.161C207.873 424.161 207.527 424.24 207.208 424.4C206.888 424.556 206.62 424.775 206.403 425.055C206.187 425.332 206.046 425.648 205.983 426.004L205.162 431H203.57ZM212.568 431.165C211.765 431.165 211.101 430.993 210.575 430.648C210.053 430.3 209.688 429.812 209.478 429.184C209.269 428.551 209.235 427.811 209.377 426.962C209.515 426.124 209.794 425.386 210.213 424.746C210.632 424.107 211.154 423.608 211.779 423.25C212.408 422.891 213.102 422.712 213.862 422.712C214.324 422.712 214.759 422.788 215.167 422.941C215.579 423.093 215.929 423.333 216.216 423.66C216.504 423.987 216.703 424.411 216.813 424.933C216.927 425.451 216.923 426.082 216.802 426.824L216.712 427.388H210.203L210.389 426.195H215.332C215.407 425.776 215.387 425.405 215.274 425.082C215.16 424.755 214.965 424.498 214.688 424.31C214.414 424.121 214.07 424.027 213.654 424.027C213.228 424.027 212.83 424.139 212.461 424.363C212.092 424.587 211.783 424.873 211.534 425.221C211.289 425.565 211.135 425.92 211.071 426.286L210.884 427.378C210.792 427.974 210.808 428.454 210.932 428.816C211.06 429.178 211.284 429.441 211.604 429.604C211.923 429.768 212.323 429.849 212.802 429.849C213.111 429.849 213.397 429.807 213.66 429.722C213.926 429.633 214.162 429.503 214.368 429.333C214.574 429.159 214.746 428.942 214.885 428.683L216.344 428.955C216.149 429.398 215.868 429.787 215.503 430.121C215.137 430.451 214.705 430.709 214.208 430.893C213.715 431.075 213.168 431.165 212.568 431.165ZM221.359 434.068L223.245 422.818H224.8L224.582 424.145H224.715C224.836 423.974 224.999 423.777 225.205 423.553C225.415 423.33 225.69 423.134 226.031 422.967C226.372 422.797 226.796 422.712 227.304 422.712C227.964 422.712 228.524 422.879 228.982 423.212C229.44 423.546 229.767 424.027 229.962 424.656C230.157 425.284 230.182 426.041 230.037 426.925C229.891 427.809 229.618 428.567 229.216 429.2C228.815 429.828 228.328 430.313 227.757 430.654C227.189 430.991 226.572 431.16 225.908 431.16C225.411 431.16 225.019 431.076 224.731 430.909C224.447 430.743 224.236 430.547 224.097 430.324C223.959 430.1 223.854 429.901 223.783 429.727H223.687L222.963 434.068H221.359ZM224.124 426.909C224.032 427.484 224.032 427.989 224.124 428.422C224.216 428.855 224.401 429.194 224.678 429.439C224.958 429.681 225.328 429.801 225.786 429.801C226.262 429.801 226.679 429.675 227.038 429.423C227.396 429.168 227.693 428.821 227.927 428.385C228.165 427.948 228.33 427.456 228.423 426.909C228.511 426.369 228.51 425.885 228.417 425.455C228.328 425.025 228.146 424.686 227.869 424.438C227.592 424.189 227.213 424.065 226.734 424.065C226.269 424.065 225.857 424.184 225.498 424.422C225.143 424.659 224.848 424.991 224.614 425.418C224.38 425.844 224.216 426.341 224.124 426.909ZM234.622 431.165C233.844 431.165 233.194 430.988 232.672 430.632C232.15 430.274 231.782 429.773 231.569 429.13C231.36 428.484 231.324 427.733 231.463 426.877C231.598 426.039 231.869 425.308 232.278 424.683C232.69 424.058 233.205 423.573 233.823 423.228C234.444 422.884 235.135 422.712 235.895 422.712C236.672 422.712 237.32 422.891 237.839 423.25C238.361 423.608 238.728 424.111 238.941 424.757C239.155 425.403 239.192 426.156 239.053 427.016C238.918 427.847 238.643 428.575 238.228 429.2C237.816 429.821 237.301 430.304 236.683 430.648C236.065 430.993 235.378 431.165 234.622 431.165ZM234.712 429.828C235.223 429.828 235.669 429.693 236.049 429.423C236.433 429.153 236.745 428.795 236.987 428.347C237.228 427.9 237.393 427.41 237.482 426.877C237.564 426.362 237.562 425.892 237.477 425.466C237.395 425.036 237.217 424.691 236.944 424.432C236.671 424.173 236.291 424.043 235.804 424.043C235.293 424.043 234.843 424.18 234.456 424.453C234.073 424.723 233.76 425.084 233.519 425.535C233.281 425.986 233.119 426.478 233.034 427.01C232.953 427.522 232.953 427.992 233.034 428.422C233.116 428.848 233.293 429.189 233.567 429.445C233.84 429.7 234.222 429.828 234.712 429.828ZM247.34 424.816L245.854 425.071C245.822 424.883 245.757 424.706 245.657 424.539C245.561 424.372 245.414 424.237 245.215 424.134C245.016 424.027 244.752 423.974 244.421 423.974C243.963 423.974 243.562 424.079 243.218 424.288C242.877 424.498 242.681 424.764 242.632 425.087C242.585 425.35 242.648 425.563 242.818 425.727C242.988 425.886 243.289 426.02 243.718 426.126L244.975 426.424C245.7 426.598 246.218 426.87 246.531 427.239C246.847 427.605 246.957 428.081 246.861 428.667C246.779 429.153 246.566 429.585 246.222 429.961C245.881 430.338 245.444 430.632 244.911 430.846C244.379 431.059 243.786 431.165 243.132 431.165C242.202 431.165 241.477 430.968 240.959 430.574C240.441 430.18 240.174 429.622 240.16 428.901L241.737 428.667C241.765 429.068 241.909 429.372 242.168 429.578C242.431 429.78 242.795 429.881 243.26 429.881C243.793 429.885 244.238 429.773 244.597 429.546C244.956 429.319 245.16 429.043 245.21 428.72C245.252 428.468 245.195 428.259 245.039 428.092C244.887 427.925 244.617 427.797 244.23 427.708L242.909 427.404C242.17 427.23 241.648 426.95 241.343 426.563C241.037 426.176 240.934 425.689 241.034 425.103C241.112 424.624 241.314 424.207 241.641 423.852C241.971 423.493 242.388 423.214 242.893 423.015C243.397 422.813 243.954 422.712 244.565 422.712C245.456 422.712 246.126 422.903 246.573 423.287C247.021 423.667 247.276 424.176 247.34 424.816ZM253.401 422.818L253.193 424.097H248.724L248.932 422.818H253.401ZM250.45 420.858H252.043L250.753 428.598C250.704 428.907 250.713 429.139 250.78 429.295C250.848 429.448 250.951 429.553 251.089 429.61C251.231 429.663 251.389 429.69 251.563 429.69C251.691 429.69 251.803 429.681 251.899 429.663C251.995 429.645 252.071 429.631 252.128 429.62L252.213 430.936C252.106 430.972 251.963 431.007 251.782 431.043C251.604 431.082 251.387 431.103 251.132 431.107C250.713 431.114 250.334 431.039 249.997 430.883C249.66 430.723 249.408 430.482 249.241 430.158C249.074 429.832 249.033 429.422 249.118 428.928L250.45 420.858ZM253.799 431L255.163 422.818H256.755L255.392 431H253.799ZM256.292 421.54C256.015 421.54 255.781 421.447 255.589 421.263C255.401 421.075 255.314 420.851 255.328 420.592C255.342 420.329 255.452 420.105 255.658 419.92C255.864 419.732 256.104 419.638 256.377 419.638C256.654 419.638 256.887 419.732 257.075 419.92C257.263 420.105 257.352 420.329 257.341 420.592C257.327 420.851 257.217 421.075 257.011 421.263C256.809 421.447 256.569 421.54 256.292 421.54ZM259.931 426.142L259.132 431H257.54L258.903 422.818H260.432L260.208 424.15H260.31C260.569 423.713 260.922 423.365 261.37 423.106C261.821 422.843 262.353 422.712 262.968 422.712C263.522 422.712 263.987 422.829 264.363 423.063C264.743 423.294 265.011 423.638 265.168 424.097C265.327 424.555 265.352 425.121 265.242 425.796L264.369 431H262.776L263.612 425.988C263.708 425.395 263.63 424.931 263.378 424.597C263.129 424.26 262.733 424.091 262.19 424.091C261.821 424.091 261.478 424.171 261.162 424.331C260.849 424.491 260.585 424.725 260.368 425.034C260.155 425.339 260.009 425.709 259.931 426.142ZM269.418 434.239C268.765 434.239 268.218 434.153 267.778 433.983C267.341 433.813 266.996 433.587 266.744 433.306C266.496 433.026 266.323 432.719 266.228 432.385L267.698 431.82C267.769 431.977 267.868 432.142 267.996 432.316C268.124 432.493 268.314 432.644 268.566 432.768C268.822 432.893 269.171 432.955 269.615 432.955C270.219 432.955 270.746 432.808 271.197 432.513C271.648 432.222 271.927 431.756 272.034 431.117L272.284 429.509H272.183C272.062 429.683 271.895 429.876 271.682 430.089C271.469 430.302 271.194 430.487 270.856 430.643C270.519 430.799 270.1 430.877 269.599 430.877C268.953 430.877 268.396 430.727 267.927 430.425C267.462 430.119 267.128 429.67 266.925 429.077C266.723 428.48 266.695 427.747 266.84 426.877C266.982 426.007 267.252 425.261 267.65 424.64C268.051 424.018 268.538 423.543 269.109 423.212C269.685 422.879 270.301 422.712 270.958 422.712C271.465 422.712 271.861 422.797 272.146 422.967C272.433 423.134 272.646 423.33 272.785 423.553C272.923 423.777 273.024 423.974 273.088 424.145H273.206L273.424 422.818H274.985L273.6 431.181C273.486 431.884 273.229 432.461 272.827 432.912C272.43 433.363 271.934 433.697 271.341 433.914C270.752 434.13 270.111 434.239 269.418 434.239ZM270.143 429.556C270.597 429.556 271.002 429.45 271.357 429.237C271.716 429.02 272.014 428.711 272.252 428.31C272.49 427.905 272.655 427.42 272.747 426.856C272.84 426.305 272.834 425.821 272.731 425.402C272.632 424.983 272.438 424.656 272.151 424.422C271.867 424.184 271.496 424.065 271.038 424.065C270.555 424.065 270.136 424.189 269.78 424.438C269.425 424.683 269.136 425.016 268.912 425.439C268.692 425.862 268.538 426.334 268.449 426.856C268.364 427.392 268.365 427.863 268.454 428.267C268.546 428.672 268.731 428.988 269.008 429.216C269.285 429.443 269.663 429.556 270.143 429.556Z" fill="#606060"/>
</g>
<defs>
<clipPath id="clip0_465_1843">
<rect width="400" height="435" fill="white"/>
</clipPath>
</defs>
</svg>
