<svg width="400" height="185" viewBox="0 0 400 185" fill="none" xmlns="http://www.w3.org/2000/svg">
<path d="M59.5437 8C59.5437 3.58172 63.1254 0 67.5437 0H391C395.418 0 399 3.58172 399 8V116.008H67.5437C63.1254 116.008 59.5437 112.426 59.5437 108.008V8Z" fill="#EFF1F5"/>
<path d="M91.5437 30.732C91.5437 28.5 93.1637 25.836 96.3677 24L96.5837 24.252C95.0717 26.016 94.2437 27.492 93.8117 28.752C95.6117 28.86 96.9797 29.904 96.9797 31.488C96.9797 32.928 95.8637 34.008 94.3517 34.008C92.8397 34.008 91.5437 32.568 91.5437 30.732ZM98.3837 30.732C98.3837 28.5 100.04 25.836 103.244 24L103.46 24.252C101.948 26.016 101.12 27.492 100.688 28.752C102.488 28.86 103.856 29.904 103.856 31.488C103.856 32.928 102.74 34.008 101.228 34.008C99.7157 34.008 98.3837 32.568 98.3837 30.732Z" fill="#869FAE"/>
<path d="M103.049 50.1555H101.311C101.303 49.7768 101.233 49.4434 101.101 49.1555C100.968 48.8639 100.786 48.6196 100.555 48.4226C100.328 48.2218 100.061 48.0703 99.7539 47.968C99.4471 47.8658 99.1157 47.8146 98.7596 47.8146C98.074 47.8146 97.4301 47.9889 96.8278 48.3374C96.2255 48.6858 95.7123 49.1934 95.288 49.8601C94.8638 50.5268 94.5721 51.3393 94.413 52.2976C94.2577 53.2294 94.2767 54.0116 94.4698 54.6442C94.663 55.2768 94.9888 55.7559 95.4471 56.0817C95.9092 56.4036 96.4642 56.5646 97.1119 56.5646C97.4907 56.5646 97.86 56.5154 98.2198 56.4169C98.5835 56.3146 98.9206 56.165 99.2312 55.968C99.5418 55.7711 99.8164 55.5305 100.055 55.2464C100.297 54.9586 100.487 54.629 100.623 54.2578H102.385C102.195 54.8336 101.928 55.3601 101.583 55.8374C101.239 56.3146 100.832 56.7275 100.362 57.076C99.8922 57.4245 99.377 57.6934 98.8164 57.8828C98.2558 58.0722 97.663 58.1669 97.038 58.1669C96.0115 58.1669 95.1365 57.9226 94.413 57.4339C93.6933 56.9415 93.1763 56.2408 92.8619 55.3317C92.5513 54.4226 92.4982 53.3393 92.7028 52.0817C92.9111 50.8582 93.3089 49.8089 93.896 48.9339C94.4869 48.0552 95.2066 47.3828 96.0551 46.9169C96.9073 46.4472 97.8278 46.2124 98.8164 46.2124C99.4414 46.2124 100.013 46.3014 100.532 46.4794C101.051 46.6536 101.498 46.9112 101.873 47.2521C102.252 47.5893 102.544 48.0021 102.748 48.4908C102.953 48.9756 103.053 49.5305 103.049 50.1555ZM107.44 58.1839C106.61 58.1839 105.917 57.9946 105.36 57.6158C104.804 57.2332 104.412 56.6991 104.184 56.0135C103.961 55.3241 103.923 54.523 104.071 53.6101C104.215 52.7161 104.504 51.9358 104.94 51.2692C105.379 50.6025 105.929 50.0855 106.588 49.718C107.251 49.3506 107.987 49.1669 108.798 49.1669C109.628 49.1669 110.319 49.3582 110.872 49.7408C111.429 50.1233 111.821 50.6593 112.048 51.3487C112.275 52.0381 112.315 52.8411 112.167 53.7578C112.023 54.6442 111.73 55.4207 111.287 56.0874C110.847 56.7502 110.298 57.2654 109.639 57.6328C108.98 58.0002 108.247 58.1839 107.44 58.1839ZM107.537 56.7578C108.082 56.7578 108.557 56.6139 108.963 56.326C109.372 56.0381 109.705 55.6555 109.963 55.1783C110.22 54.701 110.396 54.1783 110.491 53.6101C110.578 53.0608 110.576 52.5589 110.485 52.1044C110.398 51.6461 110.209 51.2786 109.917 51.0021C109.626 50.7256 109.22 50.5874 108.701 50.5874C108.156 50.5874 107.677 50.7332 107.264 51.0249C106.855 51.3127 106.521 51.6972 106.264 52.1783C106.01 52.6593 105.838 53.1839 105.747 53.7521C105.66 54.2976 105.66 54.7995 105.747 55.2578C105.834 55.7124 106.023 56.076 106.315 56.3487C106.607 56.6214 107.014 56.7578 107.537 56.7578ZM113.37 58.0078L114.825 49.2805H116.456L116.217 50.701H116.325C116.59 50.2199 116.95 49.8449 117.404 49.576C117.863 49.3033 118.382 49.1669 118.961 49.1669C119.537 49.1669 120.001 49.3033 120.353 49.576C120.709 49.8487 120.942 50.2237 121.052 50.701H121.143C121.423 50.2313 121.815 49.8582 122.319 49.5817C122.823 49.3052 123.389 49.1669 124.018 49.1669C124.802 49.1669 125.404 49.4169 125.825 49.9169C126.249 50.4131 126.378 51.1593 126.211 52.1555L125.234 58.0078H123.529L124.484 52.3146C124.579 51.7199 124.488 51.2919 124.211 51.0305C123.935 50.7654 123.573 50.6328 123.126 50.6328C122.573 50.6328 122.115 50.8033 121.751 51.1442C121.387 51.4813 121.164 51.915 121.081 52.4453L120.143 58.0078H118.456L119.427 52.2067C119.503 51.7294 119.416 51.3487 119.166 51.0646C118.92 50.7768 118.56 50.6328 118.086 50.6328C117.764 50.6328 117.452 50.718 117.149 50.8885C116.85 51.0589 116.594 51.2938 116.382 51.593C116.17 51.8923 116.031 52.237 115.967 52.6271L115.069 58.0078H113.37ZM127.511 58.0078L128.966 49.2805H130.596L130.358 50.701H130.466C130.731 50.2199 131.091 49.8449 131.545 49.576C132.003 49.3033 132.522 49.1669 133.102 49.1669C133.678 49.1669 134.142 49.3033 134.494 49.576C134.85 49.8487 135.083 50.2237 135.193 50.701H135.284C135.564 50.2313 135.956 49.8582 136.46 49.5817C136.964 49.3052 137.53 49.1669 138.159 49.1669C138.943 49.1669 139.545 49.4169 139.966 49.9169C140.39 50.4131 140.519 51.1593 140.352 52.1555L139.375 58.0078H137.67L138.625 52.3146C138.719 51.7199 138.628 51.2919 138.352 51.0305C138.075 50.7654 137.714 50.6328 137.267 50.6328C136.714 50.6328 136.255 50.8033 135.892 51.1442C135.528 51.4813 135.305 51.915 135.221 52.4453L134.284 58.0078H132.596L133.568 52.2067C133.644 51.7294 133.556 51.3487 133.306 51.0646C133.06 50.7768 132.7 50.6328 132.227 50.6328C131.905 50.6328 131.592 50.718 131.289 50.8885C130.99 51.0589 130.735 51.2938 130.522 51.593C130.31 51.8923 130.172 52.237 130.108 52.6271L129.21 58.0078H127.511ZM147.777 54.3885L148.629 49.2805H150.333L148.879 58.0078H147.208L147.464 56.4964H147.373C147.101 56.9624 146.714 57.3506 146.214 57.6612C145.718 57.968 145.142 58.1214 144.487 58.1214C143.926 58.1214 143.451 57.9983 143.061 57.7521C142.674 57.5021 142.4 57.1328 142.237 56.6442C142.074 56.1555 142.051 55.5514 142.169 54.8317L143.101 49.2805H144.799L143.907 54.6271C143.813 55.2218 143.902 55.6953 144.174 56.0476C144.447 56.3999 144.845 56.576 145.368 56.576C145.686 56.576 146.015 56.4964 146.356 56.3374C146.697 56.1783 146.998 55.9377 147.26 55.6158C147.525 55.2938 147.697 54.8847 147.777 54.3885ZM153.718 52.826L152.866 58.0078H151.167L152.622 49.2805H154.253L154.014 50.701H154.122C154.398 50.2351 154.775 49.8639 155.253 49.5874C155.734 49.3071 156.302 49.1669 156.957 49.1669C157.548 49.1669 158.044 49.2919 158.446 49.5419C158.851 49.7881 159.137 50.1555 159.304 50.6442C159.474 51.1328 159.501 51.737 159.383 52.4567L158.451 58.0078H156.753L157.645 52.6612C157.747 52.0286 157.663 51.5343 157.395 51.1783C157.129 50.8184 156.707 50.6385 156.128 50.6385C155.734 50.6385 155.368 50.7237 155.031 50.8942C154.698 51.0646 154.415 51.3146 154.184 51.6442C153.957 51.9699 153.802 52.3639 153.718 52.826ZM160.724 58.0078L162.179 49.2805H163.878L162.423 58.0078H160.724ZM163.383 47.9169C163.088 47.9169 162.838 47.8184 162.633 47.6214C162.432 47.4207 162.34 47.1821 162.355 46.9055C162.37 46.6252 162.487 46.3866 162.707 46.1896C162.927 45.9889 163.182 45.8885 163.474 45.8885C163.77 45.8885 164.018 45.9889 164.218 46.1896C164.419 46.3866 164.514 46.6252 164.503 46.9055C164.487 47.1821 164.37 47.4207 164.15 47.6214C163.934 47.8184 163.679 47.9169 163.383 47.9169ZM170.237 49.2805L170.015 50.6442H165.248L165.47 49.2805H170.237ZM167.089 47.1896H168.788L167.413 55.4453C167.36 55.7749 167.369 56.023 167.441 56.1896C167.513 56.3525 167.623 56.4643 167.771 56.5249C167.922 56.5817 168.091 56.6101 168.277 56.6101C168.413 56.6101 168.532 56.6006 168.635 56.5817C168.737 56.5627 168.818 56.5476 168.879 56.5362L168.97 57.9396C168.856 57.9775 168.703 58.0154 168.51 58.0533C168.32 58.0949 168.089 58.1177 167.816 58.1214C167.369 58.129 166.966 58.0495 166.606 57.8828C166.246 57.7124 165.977 57.4548 165.799 57.1101C165.621 56.7616 165.578 56.3241 165.669 55.7976L167.089 47.1896ZM171.201 61.2805C170.944 61.2805 170.715 61.2597 170.514 61.218C170.313 61.1802 170.163 61.1385 170.065 61.093L170.713 59.701C171.012 59.7843 171.279 59.8165 171.514 59.7976C171.753 59.7786 171.976 59.6802 172.184 59.5021C172.393 59.3241 172.605 59.0438 172.821 58.6612L173.139 58.0874L171.429 49.2805H173.179L174.258 56.0703H174.349L177.69 49.2805H179.582L174.349 59.1612C174.103 59.6309 173.823 60.0211 173.508 60.3317C173.198 60.6461 172.849 60.8828 172.463 61.0419C172.08 61.201 171.66 61.2805 171.201 61.2805ZM183.958 58.0078L185.413 49.2805H187.112L185.657 58.0078H183.958ZM186.618 47.9169C186.322 47.9169 186.072 47.8184 185.868 47.6214C185.667 47.4207 185.574 47.1821 185.589 46.9055C185.604 46.6252 185.722 46.3866 185.941 46.1896C186.161 45.9889 186.417 45.8885 186.708 45.8885C187.004 45.8885 187.252 45.9889 187.453 46.1896C187.654 46.3866 187.748 46.6252 187.737 46.9055C187.722 47.1821 187.604 47.4207 187.385 47.6214C187.169 47.8184 186.913 47.9169 186.618 47.9169ZM195.585 51.4112L194 51.6839C193.966 51.4832 193.896 51.2938 193.789 51.1158C193.687 50.9377 193.53 50.7938 193.318 50.6839C193.106 50.5703 192.824 50.5135 192.471 50.5135C191.983 50.5135 191.555 50.6252 191.187 50.8487C190.824 51.0722 190.615 51.3563 190.562 51.701C190.513 51.9813 190.579 52.2086 190.761 52.3828C190.943 52.5533 191.263 52.6953 191.721 52.8089L193.062 53.1271C193.835 53.3127 194.388 53.6025 194.721 53.9964C195.058 54.3866 195.176 54.8942 195.074 55.5192C194.986 56.0381 194.759 56.4983 194.392 56.8999C194.028 57.3014 193.562 57.6158 192.994 57.843C192.426 58.0703 191.793 58.1839 191.096 58.1839C190.104 58.1839 189.331 57.9737 188.778 57.5533C188.225 57.1328 187.941 56.5381 187.926 55.7692L189.608 55.5192C189.638 55.9472 189.791 56.2711 190.068 56.4908C190.348 56.7067 190.736 56.8146 191.233 56.8146C191.801 56.8184 192.276 56.6991 192.659 56.4567C193.041 56.2143 193.259 55.9207 193.312 55.576C193.358 55.3071 193.297 55.0836 193.13 54.9055C192.967 54.7275 192.68 54.5911 192.267 54.4964L190.858 54.1726C190.07 53.987 189.513 53.6877 189.187 53.2749C188.861 52.862 188.752 52.343 188.858 51.718C188.941 51.2067 189.157 50.7616 189.505 50.3828C189.858 50.0002 190.303 49.7029 190.841 49.4908C191.378 49.2749 191.973 49.1669 192.625 49.1669C193.575 49.1669 194.289 49.3714 194.767 49.7805C195.244 50.1858 195.517 50.7294 195.585 51.4112ZM203.272 58.201C202.719 58.201 202.236 58.0987 201.824 57.8942C201.411 57.6858 201.106 57.3847 200.909 56.9908C200.712 56.5968 200.661 56.1139 200.755 55.5419C200.839 55.0495 201.002 54.6442 201.244 54.326C201.49 54.0078 201.789 53.7559 202.142 53.5703C202.494 53.3809 202.877 53.2389 203.289 53.1442C203.702 53.0495 204.119 52.9794 204.539 52.9339C205.07 52.8733 205.5 52.8222 205.829 52.7805C206.163 52.7389 206.413 52.6745 206.579 52.5874C206.746 52.4964 206.846 52.3487 206.88 52.1442V52.1044C206.96 51.612 206.888 51.2294 206.664 50.9567C206.445 50.6802 206.062 50.5419 205.517 50.5419C204.949 50.5419 204.471 50.6669 204.085 50.9169C203.702 51.1669 203.42 51.4472 203.238 51.7578L201.716 51.3942C201.988 50.8639 202.335 50.4358 202.755 50.1101C203.18 49.7805 203.644 49.5419 204.147 49.3942C204.651 49.2427 205.166 49.1669 205.693 49.1669C206.041 49.1669 206.403 49.2086 206.778 49.2919C207.153 49.3714 207.494 49.5192 207.801 49.7351C208.111 49.951 208.342 50.2597 208.494 50.6612C208.646 51.0589 208.668 51.576 208.562 52.2124L207.602 58.0078H205.943L206.147 56.8146H206.079C205.935 57.0343 205.735 57.2502 205.477 57.4624C205.223 57.6745 204.913 57.8506 204.545 57.9908C204.178 58.1309 203.753 58.201 203.272 58.201ZM203.852 56.8374C204.325 56.8374 204.744 56.7446 205.108 56.5589C205.475 56.3733 205.772 56.1309 206 55.8317C206.227 55.5286 206.369 55.2048 206.426 54.8601L206.613 53.7351C206.541 53.7957 206.414 53.8506 206.233 53.8999C206.055 53.9491 205.854 53.9927 205.63 54.0305C205.407 54.0684 205.187 54.1006 204.971 54.1271C204.759 54.1536 204.583 54.1783 204.443 54.201C204.11 54.2427 203.797 54.3127 203.505 54.4112C203.217 54.5097 202.977 54.6518 202.784 54.8374C202.591 55.0192 202.469 55.2616 202.42 55.5646C202.352 55.9851 202.452 56.3033 202.721 56.5192C202.994 56.7313 203.371 56.8374 203.852 56.8374ZM222.213 51.7692L220.014 51.9055C220.003 51.7124 219.949 51.54 219.855 51.3885C219.764 51.2332 219.629 51.1101 219.451 51.0192C219.277 50.9283 219.057 50.8828 218.792 50.8828C218.395 50.8828 218.04 50.9737 217.73 51.1555C217.419 51.3374 217.243 51.5703 217.201 51.8544C217.167 52.0362 217.215 52.1896 217.343 52.3146C217.472 52.4396 217.732 52.5457 218.122 52.6328L219.656 52.951C220.474 53.1252 221.065 53.415 221.429 53.8203C221.796 54.2256 221.927 54.7559 221.821 55.4112C221.726 55.968 221.482 56.4548 221.088 56.8714C220.694 57.2843 220.194 57.6063 219.588 57.8374C218.982 58.0646 218.309 58.1783 217.571 58.1783C216.385 58.1783 215.484 57.9358 214.866 57.451C214.249 56.9661 213.951 56.3089 213.974 55.4794L216.338 55.3544C216.357 55.7105 216.482 55.9794 216.713 56.1612C216.944 56.3393 217.26 56.4302 217.662 56.4339C218.112 56.4415 218.495 56.3487 218.809 56.1555C219.128 55.9586 219.307 55.7199 219.349 55.4396C219.379 55.2427 219.323 55.0836 219.179 54.9624C219.038 54.8411 218.781 54.7408 218.406 54.6612L216.951 54.3601C216.126 54.1896 215.533 53.8847 215.173 53.4453C214.813 53.0059 214.69 52.4472 214.804 51.7692C214.895 51.2275 215.12 50.7635 215.48 50.3771C215.843 49.987 216.311 49.6877 216.883 49.4794C217.459 49.2711 218.109 49.1669 218.832 49.1669C219.965 49.1669 220.817 49.3999 221.389 49.8658C221.965 50.3317 222.239 50.9661 222.213 51.7692ZM225.373 58.1726C224.82 58.1726 224.341 58.076 223.936 57.8828C223.534 57.6858 223.239 57.3942 223.049 57.0078C222.86 56.6214 222.813 56.1423 222.907 55.5703C222.991 55.0855 223.148 54.6802 223.379 54.3544C223.614 54.0249 223.9 53.7597 224.237 53.5589C224.574 53.3582 224.947 53.2048 225.356 53.0987C225.769 52.9927 226.195 52.9207 226.635 52.8828C227.142 52.8298 227.555 52.7786 227.873 52.7294C228.195 52.6802 228.436 52.6101 228.595 52.5192C228.754 52.4245 228.851 52.2843 228.885 52.0987V52.0646C228.941 51.7086 228.875 51.4321 228.686 51.2351C228.5 51.0343 228.203 50.9339 227.794 50.9339C227.362 50.9339 226.994 51.0286 226.691 51.218C226.392 51.4074 226.178 51.648 226.049 51.9396L223.845 51.7578C224.042 51.2275 224.339 50.7692 224.737 50.3828C225.138 49.9927 225.621 49.6934 226.186 49.4851C226.75 49.273 227.383 49.1669 228.083 49.1669C228.568 49.1669 229.021 49.2237 229.441 49.3374C229.866 49.451 230.231 49.6271 230.538 49.8658C230.849 50.1044 231.072 50.4112 231.208 50.7862C231.349 51.1574 231.377 51.6025 231.294 52.1214L230.311 58.0078H228.015L228.22 56.7976H228.152C227.966 57.0703 227.739 57.3108 227.47 57.5192C227.201 57.7237 226.892 57.8847 226.544 58.0021C226.195 58.1158 225.805 58.1726 225.373 58.1726ZM226.345 56.5021C226.697 56.5021 227.021 56.4321 227.316 56.2919C227.616 56.148 227.862 55.9548 228.055 55.7124C228.252 55.4699 228.377 55.1953 228.43 54.8885L228.578 53.9624C228.502 54.0116 228.392 54.0552 228.248 54.093C228.108 54.1309 227.955 54.1669 227.788 54.201C227.625 54.2313 227.46 54.2597 227.294 54.2862C227.127 54.3089 226.977 54.3317 226.845 54.3544C226.553 54.3961 226.292 54.4624 226.061 54.5533C225.83 54.6442 225.642 54.7673 225.498 54.9226C225.354 55.0741 225.265 55.2635 225.231 55.4908C225.178 55.8203 225.256 56.0722 225.464 56.2464C225.676 56.4169 225.97 56.5021 226.345 56.5021ZM238.342 49.2805L238.041 51.0987H232.654L232.956 49.2805H238.342ZM232.728 58.0078L234.291 48.6499C234.393 48.0173 234.601 47.4927 234.916 47.076C235.234 46.6593 235.626 46.3468 236.092 46.1385C236.562 45.9302 237.069 45.826 237.615 45.826C237.986 45.826 238.321 45.8544 238.62 45.9112C238.923 45.968 239.143 46.0192 239.279 46.0646L238.558 47.8828C238.467 47.8525 238.355 47.8241 238.223 47.7976C238.09 47.7711 237.95 47.7578 237.802 47.7578C237.45 47.7578 237.19 47.8411 237.024 48.0078C236.861 48.1707 236.751 48.3999 236.694 48.6953L235.143 58.0078H232.728ZM242.003 58.1783C241.109 58.1783 240.368 57.9964 239.781 57.6328C239.194 57.2654 238.781 56.7464 238.542 56.076C238.307 55.4018 238.268 54.6044 238.423 53.6839C238.574 52.7862 238.879 51.9983 239.338 51.3203C239.8 50.6423 240.379 50.1139 241.076 49.7351C241.773 49.3563 242.55 49.1669 243.406 49.1669C243.982 49.1669 244.503 49.2597 244.968 49.4453C245.438 49.6271 245.828 49.9036 246.139 50.2749C246.449 50.6423 246.662 51.1025 246.775 51.6555C246.893 52.2086 246.891 52.8563 246.77 53.5987L246.662 54.2635H239.298L239.531 52.7635H244.622C244.679 52.415 244.656 52.1063 244.554 51.8374C244.451 51.5684 244.281 51.3582 244.042 51.2067C243.804 51.0514 243.51 50.9737 243.162 50.9737C242.806 50.9737 242.472 51.0608 242.162 51.2351C241.851 51.4093 241.59 51.6385 241.378 51.9226C241.169 52.2029 241.035 52.5078 240.974 52.8374L240.707 54.326C240.631 54.7843 240.646 55.165 240.753 55.468C240.862 55.7711 241.052 55.9983 241.321 56.1499C241.59 56.2976 241.931 56.3714 242.343 56.3714C242.612 56.3714 242.864 56.3336 243.099 56.2578C243.338 56.1821 243.55 56.0703 243.735 55.9226C243.921 55.7711 244.073 55.5836 244.19 55.3601L246.4 55.5078C246.196 56.0457 245.885 56.5154 245.468 56.9169C245.052 57.3146 244.55 57.6252 243.963 57.8487C243.379 58.0684 242.726 58.1783 242.003 58.1783ZM259.619 51.7692L257.42 51.9055C257.409 51.7124 257.356 51.54 257.261 51.3885C257.17 51.2332 257.036 51.1101 256.858 51.0192C256.683 50.9283 256.464 50.8828 256.199 50.8828C255.801 50.8828 255.447 50.9737 255.136 51.1555C254.825 51.3374 254.649 51.5703 254.608 51.8544C254.574 52.0362 254.621 52.1896 254.75 52.3146C254.878 52.4396 255.138 52.5457 255.528 52.6328L257.062 52.951C257.88 53.1252 258.471 53.415 258.835 53.8203C259.202 54.2256 259.333 54.7559 259.227 55.4112C259.132 55.968 258.888 56.4548 258.494 56.8714C258.1 57.2843 257.6 57.6063 256.994 57.8374C256.388 58.0646 255.716 58.1783 254.977 58.1783C253.791 58.1783 252.89 57.9358 252.272 57.451C251.655 56.9661 251.358 56.3089 251.38 55.4794L253.744 55.3544C253.763 55.7105 253.888 55.9794 254.119 56.1612C254.35 56.3393 254.666 56.4302 255.068 56.4339C255.519 56.4415 255.901 56.3487 256.216 56.1555C256.534 55.9586 256.714 55.7199 256.755 55.4396C256.786 55.2427 256.729 55.0836 256.585 54.9624C256.445 54.8411 256.187 54.7408 255.812 54.6612L254.358 54.3601C253.532 54.1896 252.939 53.8847 252.579 53.4453C252.219 53.0059 252.096 52.4472 252.21 51.7692C252.301 51.2275 252.526 50.7635 252.886 50.3771C253.25 49.987 253.717 49.6877 254.289 49.4794C254.865 49.2711 255.515 49.1669 256.238 49.1669C257.371 49.1669 258.223 49.3999 258.795 49.8658C259.371 50.3317 259.646 50.9661 259.619 51.7692ZM259.785 61.2805L261.797 49.2805H264.183L263.939 50.7464H264.047C264.19 50.5116 264.382 50.273 264.62 50.0305C264.863 49.7843 265.164 49.5798 265.524 49.4169C265.884 49.2502 266.306 49.1669 266.791 49.1669C267.431 49.1669 267.99 49.3336 268.467 49.6669C268.944 49.9964 269.289 50.4946 269.501 51.1612C269.717 51.8241 269.742 52.6555 269.575 53.6555C269.416 54.629 269.122 55.451 268.694 56.1214C268.27 56.7881 267.761 57.2938 267.166 57.6385C266.575 57.9794 265.948 58.1499 265.285 58.1499C264.815 58.1499 264.429 58.0722 264.126 57.9169C263.827 57.7616 263.594 57.5665 263.427 57.3317C263.261 57.093 263.143 56.8525 263.075 56.6101H262.984L262.211 61.2805H259.785ZM263.439 53.6442C263.355 54.1631 263.351 54.6158 263.427 55.0021C263.507 55.3885 263.666 55.6896 263.904 55.9055C264.143 56.1177 264.458 56.2237 264.848 56.2237C265.242 56.2237 265.592 56.1158 265.899 55.8999C266.206 55.6802 266.461 55.3771 266.666 54.9908C266.87 54.6006 267.016 54.1518 267.103 53.6442C267.183 53.1404 267.185 52.6972 267.109 52.3146C267.033 51.9321 266.878 51.6328 266.643 51.4169C266.408 51.201 266.09 51.093 265.689 51.093C265.298 51.093 264.948 51.1972 264.637 51.4055C264.331 51.6139 264.075 51.9093 263.87 52.2919C263.666 52.6745 263.522 53.1252 263.439 53.6442ZM272.92 58.1726C272.367 58.1726 271.888 58.076 271.483 57.8828C271.081 57.6858 270.786 57.3942 270.596 57.0078C270.407 56.6214 270.36 56.1423 270.454 55.5703C270.538 55.0855 270.695 54.6802 270.926 54.3544C271.161 54.0249 271.447 53.7597 271.784 53.5589C272.121 53.3582 272.494 53.2048 272.903 53.0987C273.316 52.9927 273.742 52.9207 274.181 52.8828C274.689 52.8298 275.102 52.7786 275.42 52.7294C275.742 52.6802 275.983 52.6101 276.142 52.5192C276.301 52.4245 276.397 52.2843 276.431 52.0987V52.0646C276.488 51.7086 276.422 51.4321 276.233 51.2351C276.047 51.0343 275.75 50.9339 275.341 50.9339C274.909 50.9339 274.541 51.0286 274.238 51.218C273.939 51.4074 273.725 51.648 273.596 51.9396L271.392 51.7578C271.589 51.2275 271.886 50.7692 272.284 50.3828C272.685 49.9927 273.168 49.6934 273.733 49.4851C274.297 49.273 274.93 49.1669 275.63 49.1669C276.115 49.1669 276.568 49.2237 276.988 49.3374C277.413 49.451 277.778 49.6271 278.085 49.8658C278.396 50.1044 278.619 50.4112 278.755 50.7862C278.896 51.1574 278.924 51.6025 278.841 52.1214L277.858 58.0078H275.562L275.767 56.7976H275.699C275.513 57.0703 275.286 57.3108 275.017 57.5192C274.748 57.7237 274.439 57.8847 274.091 58.0021C273.742 58.1158 273.352 58.1726 272.92 58.1726ZM273.892 56.5021C274.244 56.5021 274.568 56.4321 274.863 56.2919C275.163 56.148 275.409 55.9548 275.602 55.7124C275.799 55.4699 275.924 55.1953 275.977 54.8885L276.125 53.9624C276.049 54.0116 275.939 54.0552 275.795 54.093C275.655 54.1309 275.502 54.1669 275.335 54.201C275.172 54.2313 275.007 54.2597 274.841 54.2862C274.674 54.3089 274.524 54.3317 274.392 54.3544C274.1 54.3961 273.839 54.4624 273.608 54.5533C273.377 54.6442 273.189 54.7673 273.045 54.9226C272.901 55.0741 272.812 55.2635 272.778 55.4908C272.725 55.8203 272.803 56.0722 273.011 56.2464C273.223 56.4169 273.517 56.5021 273.892 56.5021ZM283.656 58.1783C282.758 58.1783 282.02 57.9889 281.44 57.6101C280.864 57.2275 280.461 56.6972 280.23 56.0192C280.003 55.3411 279.963 54.5608 280.11 53.6783C280.254 52.7843 280.556 52.0002 281.014 51.326C281.472 50.648 282.054 50.1196 282.758 49.7408C283.467 49.3582 284.262 49.1669 285.145 49.1669C285.906 49.1669 286.55 49.3052 287.076 49.5817C287.603 49.8582 287.989 50.2464 288.235 50.7464C288.482 51.2464 288.565 51.8336 288.485 52.5078H286.207C286.211 52.076 286.099 51.7256 285.872 51.4567C285.645 51.1877 285.311 51.0533 284.872 51.0533C284.493 51.0533 284.145 51.1555 283.826 51.3601C283.512 51.5608 283.245 51.8544 283.025 52.2408C282.809 52.6271 282.658 53.0949 282.571 53.6442C282.48 54.201 282.478 54.6745 282.565 55.0646C282.652 55.4548 282.819 55.7521 283.065 55.9567C283.311 56.1612 283.622 56.2635 283.997 56.2635C284.277 56.2635 284.537 56.2067 284.775 56.093C285.018 55.9794 285.23 55.8146 285.412 55.5987C285.593 55.379 285.734 55.1158 285.832 54.8089H288.116C287.961 55.4794 287.679 56.0665 287.27 56.5703C286.864 57.0741 286.355 57.468 285.741 57.7521C285.128 58.0362 284.432 58.1783 283.656 58.1783ZM293.081 58.1783C292.187 58.1783 291.446 57.9964 290.859 57.6328C290.272 57.2654 289.859 56.7464 289.62 56.076C289.386 55.4018 289.346 54.6044 289.501 53.6839C289.653 52.7862 289.958 51.9983 290.416 51.3203C290.878 50.6423 291.458 50.1139 292.154 49.7351C292.851 49.3563 293.628 49.1669 294.484 49.1669C295.06 49.1669 295.581 49.2597 296.047 49.4453C296.516 49.6271 296.906 49.9036 297.217 50.2749C297.528 50.6423 297.74 51.1025 297.853 51.6555C297.971 52.2086 297.969 52.8563 297.848 53.5987L297.74 54.2635H290.376L290.609 52.7635H295.7C295.757 52.415 295.734 52.1063 295.632 51.8374C295.529 51.5684 295.359 51.3582 295.12 51.2067C294.882 51.0514 294.588 50.9737 294.24 50.9737C293.884 50.9737 293.55 51.0608 293.24 51.2351C292.929 51.4093 292.668 51.6385 292.456 51.9226C292.247 52.2029 292.113 52.5078 292.052 52.8374L291.785 54.326C291.709 54.7843 291.725 55.165 291.831 55.468C291.94 55.7711 292.13 55.9983 292.399 56.1499C292.668 56.2976 293.009 56.3714 293.422 56.3714C293.69 56.3714 293.942 56.3336 294.177 56.2578C294.416 56.1821 294.628 56.0703 294.814 55.9226C294.999 55.7711 295.151 55.5836 295.268 55.3601L297.478 55.5078C297.274 56.0457 296.963 56.5154 296.547 56.9169C296.13 57.3146 295.628 57.6252 295.041 57.8487C294.458 58.0684 293.804 58.1783 293.081 58.1783ZM308.643 49.2805L308.422 50.6442H303.654L303.876 49.2805H308.643ZM305.495 47.1896H307.194L305.819 55.4453C305.766 55.7749 305.776 56.023 305.848 56.1896C305.92 56.3525 306.029 56.4643 306.177 56.5249C306.329 56.5817 306.497 56.6101 306.683 56.6101C306.819 56.6101 306.939 56.6006 307.041 56.5817C307.143 56.5627 307.225 56.5476 307.285 56.5362L307.376 57.9396C307.262 57.9775 307.109 58.0154 306.916 58.0533C306.726 58.0949 306.495 58.1177 306.223 58.1214C305.776 58.129 305.372 58.0495 305.012 57.8828C304.653 57.7124 304.384 57.4548 304.206 57.1101C304.028 56.7616 303.984 56.3241 304.075 55.7976L305.495 47.1896ZM312.69 58.1839C311.86 58.1839 311.167 57.9946 310.61 57.6158C310.054 57.2332 309.662 56.6991 309.434 56.0135C309.211 55.3241 309.173 54.523 309.321 53.6101C309.465 52.7161 309.754 51.9358 310.19 51.2692C310.629 50.6025 311.179 50.0855 311.838 49.718C312.501 49.3506 313.237 49.1669 314.048 49.1669C314.878 49.1669 315.569 49.3582 316.122 49.7408C316.679 50.1233 317.071 50.6593 317.298 51.3487C317.525 52.0381 317.565 52.8411 317.417 53.7578C317.273 54.6442 316.98 55.4207 316.537 56.0874C316.097 56.7502 315.548 57.2654 314.889 57.6328C314.23 58.0002 313.497 58.1839 312.69 58.1839ZM312.787 56.7578C313.332 56.7578 313.807 56.6139 314.213 56.326C314.622 56.0381 314.955 55.6555 315.213 55.1783C315.47 54.701 315.646 54.1783 315.741 53.6101C315.828 53.0608 315.826 52.5589 315.735 52.1044C315.648 51.6461 315.459 51.2786 315.167 51.0021C314.876 50.7256 314.47 50.5874 313.951 50.5874C313.406 50.5874 312.927 50.7332 312.514 51.0249C312.105 51.3127 311.771 51.6972 311.514 52.1783C311.26 52.6593 311.088 53.1839 310.997 53.7521C310.91 54.2976 310.91 54.7995 310.997 55.2578C311.084 55.7124 311.273 56.076 311.565 56.3487C311.857 56.6214 312.264 56.7578 312.787 56.7578ZM330.491 51.4112L328.906 51.6839C328.872 51.4832 328.802 51.2938 328.696 51.1158C328.593 50.9377 328.436 50.7938 328.224 50.6839C328.012 50.5703 327.73 50.5135 327.378 50.5135C326.889 50.5135 326.461 50.6252 326.093 50.8487C325.73 51.0722 325.521 51.3563 325.468 51.701C325.419 51.9813 325.485 52.2086 325.667 52.3828C325.849 52.5533 326.169 52.6953 326.628 52.8089L327.968 53.1271C328.741 53.3127 329.294 53.6025 329.628 53.9964C329.965 54.3866 330.082 54.8942 329.98 55.5192C329.893 56.0381 329.665 56.4983 329.298 56.8999C328.934 57.3014 328.468 57.6158 327.9 57.843C327.332 58.0703 326.699 58.1839 326.003 58.1839C325.01 58.1839 324.237 57.9737 323.684 57.5533C323.131 57.1328 322.847 56.5381 322.832 55.7692L324.514 55.5192C324.544 55.9472 324.698 56.2711 324.974 56.4908C325.254 56.7067 325.643 56.8146 326.139 56.8146C326.707 56.8184 327.182 56.6991 327.565 56.4567C327.948 56.2143 328.165 55.9207 328.218 55.576C328.264 55.3071 328.203 55.0836 328.037 54.9055C327.874 54.7275 327.586 54.5911 327.173 54.4964L325.764 54.1726C324.976 53.987 324.419 53.6877 324.093 53.2749C323.768 52.862 323.658 52.343 323.764 51.718C323.847 51.2067 324.063 50.7616 324.412 50.3828C324.764 50.0002 325.209 49.7029 325.747 49.4908C326.285 49.2749 326.879 49.1669 327.531 49.1669C328.482 49.1669 329.196 49.3714 329.673 49.7805C330.15 50.1858 330.423 50.7294 330.491 51.4112ZM333.984 52.826L333.132 58.0078H331.433L333.365 46.3714H335.041L334.325 50.701H334.433C334.709 50.2275 335.081 49.8544 335.547 49.5817C336.016 49.3052 336.592 49.1669 337.274 49.1669C337.872 49.1669 338.374 49.29 338.779 49.5362C339.189 49.7824 339.476 50.1499 339.643 50.6385C339.814 51.1233 339.84 51.7294 339.723 52.4567L338.791 58.0078H337.092L337.978 52.6612C338.084 52.0211 338.001 51.5249 337.728 51.1726C337.456 50.8165 337.029 50.6385 336.45 50.6385C336.045 50.6385 335.67 50.7237 335.325 50.8942C334.984 51.0646 334.696 51.3146 334.461 51.6442C334.226 51.9699 334.067 52.3639 333.984 52.826ZM343.569 58.201C343.016 58.201 342.533 58.0987 342.12 57.8942C341.708 57.6858 341.403 57.3847 341.206 56.9908C341.009 56.5968 340.958 56.1139 341.052 55.5419C341.136 55.0495 341.298 54.6442 341.541 54.326C341.787 54.0078 342.086 53.7559 342.439 53.5703C342.791 53.3809 343.173 53.2389 343.586 53.1442C343.999 53.0495 344.416 52.9794 344.836 52.9339C345.367 52.8733 345.797 52.8222 346.126 52.7805C346.459 52.7389 346.709 52.6745 346.876 52.5874C347.043 52.4964 347.143 52.3487 347.177 52.1442V52.1044C347.257 51.612 347.185 51.2294 346.961 50.9567C346.742 50.6802 346.359 50.5419 345.814 50.5419C345.245 50.5419 344.768 50.6669 344.382 50.9169C343.999 51.1669 343.717 51.4472 343.535 51.7578L342.012 51.3942C342.285 50.8639 342.632 50.4358 343.052 50.1101C343.476 49.7805 343.94 49.5419 344.444 49.3942C344.948 49.2427 345.463 49.1669 345.99 49.1669C346.338 49.1669 346.7 49.2086 347.075 49.2919C347.45 49.3714 347.791 49.5192 348.098 49.7351C348.408 49.951 348.639 50.2597 348.791 50.6612C348.942 51.0589 348.965 51.576 348.859 52.2124L347.899 58.0078H346.24L346.444 56.8146H346.376C346.232 57.0343 346.031 57.2502 345.774 57.4624C345.52 57.6745 345.209 57.8506 344.842 57.9908C344.475 58.1309 344.05 58.201 343.569 58.201ZM344.149 56.8374C344.622 56.8374 345.041 56.7446 345.404 56.5589C345.772 56.3733 346.069 56.1309 346.297 55.8317C346.524 55.5286 346.666 55.2048 346.723 54.8601L346.91 53.7351C346.838 53.7957 346.711 53.8506 346.529 53.8999C346.351 53.9491 346.151 53.9927 345.927 54.0305C345.704 54.0684 345.484 54.1006 345.268 54.1271C345.056 54.1536 344.88 54.1783 344.74 54.201C344.406 54.2427 344.094 54.3127 343.802 54.4112C343.514 54.5097 343.274 54.6518 343.081 54.8374C342.887 55.0192 342.766 55.2616 342.717 55.5646C342.649 55.9851 342.749 56.3033 343.018 56.5192C343.291 56.7313 343.668 56.8374 344.149 56.8374ZM350.162 58.0078L351.616 49.2805H353.258L353.025 50.6669H353.116C353.351 50.1972 353.694 49.8279 354.145 49.5589C354.595 49.2862 355.076 49.1499 355.588 49.1499C355.698 49.1499 355.823 49.1536 355.963 49.1612C356.103 49.165 356.217 49.1745 356.304 49.1896L356.031 50.8146C355.967 50.7957 355.849 50.7749 355.679 50.7521C355.508 50.7256 355.332 50.7124 355.15 50.7124C354.753 50.7124 354.383 50.7976 354.042 50.968C353.701 51.1347 353.415 51.3677 353.184 51.6669C352.953 51.9624 352.804 52.2995 352.735 52.6783L351.86 58.0078H350.162ZM359.76 58.1839C358.904 58.1839 358.195 58.0002 357.635 57.6328C357.078 57.2616 356.688 56.7408 356.464 56.0703C356.241 55.3961 356.205 54.6063 356.356 53.701C356.504 52.8071 356.801 52.0192 357.248 51.3374C357.695 50.6555 358.252 50.1233 358.919 49.7408C359.589 49.3582 360.33 49.1669 361.14 49.1669C361.633 49.1669 362.097 49.2483 362.532 49.4112C362.972 49.5741 363.345 49.8298 363.652 50.1783C363.958 50.5268 364.171 50.9794 364.288 51.5362C364.409 52.0893 364.405 52.7616 364.277 53.5533L364.18 54.1555H357.237L357.436 52.8828H362.708C362.788 52.4358 362.767 52.04 362.646 51.6953C362.525 51.3468 362.316 51.0722 362.021 50.8714C361.729 50.6707 361.362 50.5703 360.919 50.5703C360.464 50.5703 360.04 50.6896 359.646 50.9283C359.252 51.1669 358.922 51.4718 358.657 51.843C358.396 52.2105 358.231 52.5893 358.163 52.9794L357.964 54.1442C357.866 54.7805 357.883 55.2919 358.015 55.6783C358.152 56.0646 358.39 56.3449 358.731 56.5192C359.072 56.6934 359.498 56.7805 360.01 56.7805C360.339 56.7805 360.644 56.7351 360.924 56.6442C361.208 56.5495 361.46 56.4112 361.68 56.2294C361.9 56.0438 362.083 55.8127 362.231 55.5362L363.788 55.826C363.58 56.2995 363.28 56.7143 362.89 57.0703C362.5 57.4226 362.04 57.6972 361.51 57.8942C360.983 58.0874 360.4 58.1839 359.76 58.1839ZM91.9585 79.0078L93.413 70.2805H95.1119L93.6573 79.0078H91.9585ZM94.6176 68.9169C94.3221 68.9169 94.0721 68.8184 93.8676 68.6214C93.6668 68.4207 93.574 68.1821 93.5892 67.9055C93.6043 67.6252 93.7217 67.3866 93.9414 67.1896C94.1611 66.9889 94.4168 66.8885 94.7085 66.8885C95.0039 66.8885 95.252 66.9889 95.4528 67.1896C95.6535 67.3866 95.7482 67.6252 95.7369 67.9055C95.7217 68.1821 95.6043 68.4207 95.3846 68.6214C95.1687 68.8184 94.913 68.9169 94.6176 68.9169ZM99.1985 79.1783C98.4902 79.1783 97.8898 78.9983 97.3974 78.6385C96.9088 78.2749 96.5622 77.7578 96.3576 77.0874C96.1569 76.4131 96.1341 75.6044 96.2894 74.6612C96.4485 73.718 96.7421 72.9112 97.1701 72.2408C97.5982 71.5703 98.1171 71.0571 98.7269 70.701C99.3368 70.3449 99.994 70.1669 100.699 70.1669C101.24 70.1669 101.661 70.2578 101.96 70.4396C102.263 70.6177 102.486 70.826 102.63 71.0646C102.774 71.3033 102.882 71.5135 102.954 71.6953H103.051L103.772 67.3714H105.471L103.539 79.0078H101.88L102.113 77.6499H101.971C101.839 77.8355 101.655 78.0476 101.42 78.2862C101.189 78.5249 100.894 78.7332 100.534 78.9112C100.174 79.0893 99.7288 79.1783 99.1985 79.1783ZM99.7724 77.7294C100.261 77.7294 100.699 77.6006 101.085 77.343C101.475 77.0817 101.799 76.7199 102.056 76.2578C102.318 75.7957 102.5 75.2578 102.602 74.6442C102.704 74.0381 102.702 73.5078 102.596 73.0533C102.49 72.5987 102.286 72.2446 101.983 71.9908C101.68 71.737 101.28 71.6101 100.784 71.6101C100.272 71.6101 99.8273 71.7427 99.4485 72.0078C99.0697 72.273 98.7591 72.6347 98.5167 73.093C98.2781 73.5514 98.1114 74.0684 98.0167 74.6442C97.9182 75.2275 97.9144 75.7521 98.0053 76.218C98.0963 76.6839 98.2875 77.0533 98.5792 77.326C98.8709 77.5949 99.2686 77.7294 99.7724 77.7294ZM109.697 79.1839C108.841 79.1839 108.133 79.0002 107.572 78.6328C107.015 78.2616 106.625 77.7408 106.402 77.0703C106.178 76.3961 106.142 75.6063 106.294 74.701C106.441 73.8071 106.739 73.0192 107.186 72.3374C107.633 71.6555 108.19 71.1233 108.856 70.7408C109.527 70.3582 110.267 70.1669 111.078 70.1669C111.57 70.1669 112.034 70.2483 112.47 70.4112C112.909 70.5741 113.282 70.8298 113.589 71.1783C113.896 71.5268 114.108 71.9794 114.226 72.5362C114.347 73.0893 114.343 73.7616 114.214 74.5533L114.118 75.1555H107.174L107.373 73.8828H112.646C112.726 73.4358 112.705 73.04 112.583 72.6953C112.462 72.3468 112.254 72.0722 111.958 71.8714C111.667 71.6707 111.299 71.5703 110.856 71.5703C110.402 71.5703 109.977 71.6896 109.583 71.9283C109.19 72.1669 108.86 72.4718 108.595 72.843C108.333 73.2105 108.169 73.5893 108.101 73.9794L107.902 75.1442C107.803 75.7805 107.82 76.2919 107.953 76.6783C108.089 77.0646 108.328 77.3449 108.669 77.5192C109.01 77.6934 109.436 77.7805 109.947 77.7805C110.277 77.7805 110.582 77.7351 110.862 77.6442C111.146 77.5495 111.398 77.4112 111.618 77.2294C111.837 77.0438 112.021 76.8127 112.169 76.5362L113.726 76.826C113.517 77.2995 113.218 77.7143 112.828 78.0703C112.438 78.4226 111.977 78.6972 111.447 78.8942C110.921 79.0874 110.337 79.1839 109.697 79.1839ZM117.897 79.201C117.344 79.201 116.861 79.0987 116.449 78.8942C116.036 78.6858 115.731 78.3847 115.534 77.9908C115.337 77.5968 115.286 77.1139 115.38 76.5419C115.464 76.0495 115.627 75.6442 115.869 75.326C116.115 75.0078 116.414 74.7559 116.767 74.5703C117.119 74.3809 117.502 74.2389 117.914 74.1442C118.327 74.0495 118.744 73.9794 119.164 73.9339C119.695 73.8733 120.125 73.8222 120.454 73.7805C120.788 73.7389 121.038 73.6745 121.204 73.5874C121.371 73.4964 121.471 73.3487 121.505 73.1442V73.1044C121.585 72.612 121.513 72.2294 121.289 71.9567C121.07 71.6802 120.687 71.5419 120.142 71.5419C119.574 71.5419 119.096 71.6669 118.71 71.9169C118.327 72.1669 118.045 72.4472 117.863 72.7578L116.341 72.3942C116.613 71.8639 116.96 71.4358 117.38 71.1101C117.805 70.7805 118.269 70.5419 118.772 70.3942C119.276 70.2427 119.791 70.1669 120.318 70.1669C120.666 70.1669 121.028 70.2086 121.403 70.2919C121.778 70.3714 122.119 70.5192 122.426 70.7351C122.736 70.951 122.967 71.2597 123.119 71.6612C123.271 72.0589 123.293 72.576 123.187 73.2124L122.227 79.0078H120.568L120.772 77.8146H120.704C120.56 78.0343 120.36 78.2502 120.102 78.4624C119.848 78.6745 119.538 78.8506 119.17 78.9908C118.803 79.1309 118.378 79.201 117.897 79.201ZM118.477 77.8374C118.95 77.8374 119.369 77.7446 119.733 77.5589C120.1 77.3733 120.397 77.1309 120.625 76.8317C120.852 76.5286 120.994 76.2048 121.051 75.8601L121.238 74.7351C121.166 74.7957 121.039 74.8506 120.858 74.8999C120.68 74.9491 120.479 74.9927 120.255 75.0305C120.032 75.0684 119.812 75.1006 119.596 75.1271C119.384 75.1536 119.208 75.1783 119.068 75.201C118.735 75.2427 118.422 75.3127 118.13 75.4112C117.842 75.5097 117.602 75.6518 117.409 75.8374C117.216 76.0192 117.094 76.2616 117.045 76.5646C116.977 76.9851 117.077 77.3033 117.346 77.5192C117.619 77.7313 117.996 77.8374 118.477 77.8374ZM132.132 72.4112L130.547 72.6839C130.512 72.4832 130.442 72.2938 130.336 72.1158C130.234 71.9377 130.077 71.7938 129.865 71.6839C129.653 71.5703 129.37 71.5135 129.018 71.5135C128.529 71.5135 128.101 71.6252 127.734 71.8487C127.37 72.0722 127.162 72.3563 127.109 72.701C127.06 72.9813 127.126 73.2086 127.308 73.3828C127.49 73.5533 127.81 73.6953 128.268 73.8089L129.609 74.1271C130.382 74.3127 130.935 74.6025 131.268 74.9964C131.605 75.3866 131.723 75.8942 131.62 76.5192C131.533 77.0381 131.306 77.4983 130.939 77.8999C130.575 78.3014 130.109 78.6158 129.541 78.843C128.973 79.0703 128.34 79.1839 127.643 79.1839C126.651 79.1839 125.878 78.9737 125.325 78.5533C124.772 78.1328 124.488 77.5381 124.473 76.7692L126.154 76.5192C126.185 76.9472 126.338 77.2711 126.615 77.4908C126.895 77.7067 127.283 77.8146 127.779 77.8146C128.348 77.8184 128.823 77.6991 129.206 77.4567C129.588 77.2143 129.806 76.9207 129.859 76.576C129.904 76.3071 129.844 76.0836 129.677 75.9055C129.514 75.7275 129.226 75.5911 128.814 75.4964L127.404 75.1726C126.617 74.987 126.06 74.6877 125.734 74.2749C125.408 73.862 125.298 73.343 125.404 72.718C125.488 72.2067 125.704 71.7616 126.052 71.3828C126.404 71.0002 126.85 70.7029 127.387 70.4908C127.925 70.2749 128.52 70.1669 129.172 70.1669C130.122 70.1669 130.836 70.3714 131.314 70.7805C131.791 71.1858 132.064 71.7294 132.132 72.4112ZM135.551 77.4169L135.352 78.0362C135.219 78.4908 135.045 78.9643 134.829 79.4567C134.617 79.9491 134.405 80.4074 134.193 80.8317C133.981 81.2597 133.812 81.5987 133.687 81.8487H132.483C132.566 81.6139 132.681 81.2976 132.829 80.8999C132.981 80.5021 133.14 80.0571 133.306 79.5646C133.473 79.0722 133.619 78.5684 133.744 78.0533L133.914 77.4169H135.551ZM147.253 70.2805L147.031 71.6442H142.264L142.485 70.2805H147.253ZM144.105 68.1896H145.804L144.429 76.4453C144.376 76.7749 144.385 77.023 144.457 77.1896C144.529 77.3525 144.639 77.4643 144.787 77.5249C144.938 77.5817 145.107 77.6101 145.292 77.6101C145.429 77.6101 145.548 77.6006 145.65 77.5817C145.753 77.5627 145.834 77.5476 145.895 77.5362L145.985 78.9396C145.872 78.9775 145.718 79.0154 145.525 79.0533C145.336 79.0949 145.105 79.1177 144.832 79.1214C144.385 79.129 143.982 79.0495 143.622 78.8828C143.262 78.7124 142.993 78.4548 142.815 78.1101C142.637 77.7616 142.593 77.3241 142.684 76.7976L144.105 68.1896ZM150.194 79.201C149.641 79.201 149.158 79.0987 148.745 78.8942C148.333 78.6858 148.028 78.3847 147.831 77.9908C147.634 77.5968 147.583 77.1139 147.677 76.5419C147.761 76.0495 147.923 75.6442 148.166 75.326C148.412 75.0078 148.711 74.7559 149.064 74.5703C149.416 74.3809 149.798 74.2389 150.211 74.1442C150.624 74.0495 151.041 73.9794 151.461 73.9339C151.992 73.8733 152.422 73.8222 152.751 73.7805C153.084 73.7389 153.334 73.6745 153.501 73.5874C153.668 73.4964 153.768 73.3487 153.802 73.1442V73.1044C153.882 72.612 153.81 72.2294 153.586 71.9567C153.367 71.6802 152.984 71.5419 152.439 71.5419C151.87 71.5419 151.393 71.6669 151.007 71.9169C150.624 72.1669 150.342 72.4472 150.16 72.7578L148.637 72.3942C148.91 71.8639 149.257 71.4358 149.677 71.1101C150.101 70.7805 150.565 70.5419 151.069 70.3942C151.573 70.2427 152.088 70.1669 152.615 70.1669C152.963 70.1669 153.325 70.2086 153.7 70.2919C154.075 70.3714 154.416 70.5192 154.723 70.7351C155.033 70.951 155.264 71.2597 155.416 71.6612C155.567 72.0589 155.59 72.576 155.484 73.2124L154.524 79.0078H152.865L153.069 77.8146H153.001C152.857 78.0343 152.656 78.2502 152.399 78.4624C152.145 78.6745 151.834 78.8506 151.467 78.9908C151.1 79.1309 150.675 79.201 150.194 79.201ZM150.774 77.8374C151.247 77.8374 151.666 77.7446 152.029 77.5589C152.397 77.3733 152.694 77.1309 152.922 76.8317C153.149 76.5286 153.291 76.2048 153.348 75.8601L153.535 74.7351C153.463 74.7957 153.336 74.8506 153.154 74.8999C152.976 74.9491 152.776 74.9927 152.552 75.0305C152.329 75.0684 152.109 75.1006 151.893 75.1271C151.681 75.1536 151.505 75.1783 151.365 75.201C151.031 75.2427 150.719 75.3127 150.427 75.4112C150.139 75.5097 149.899 75.6518 149.706 75.8374C149.512 76.0192 149.391 76.2616 149.342 76.5646C149.274 76.9851 149.374 77.3033 149.643 77.5192C149.916 77.7313 150.293 77.8374 150.774 77.8374ZM160.417 67.3714L158.485 79.0078H156.787L158.718 67.3714H160.417ZM162.822 76.0476L163.146 73.9737H163.447L167.549 70.2805H169.583L164.924 74.4851H164.657L162.822 76.0476ZM160.771 79.0078L162.703 67.3714H164.402L162.47 79.0078H160.771ZM166.282 79.0078L163.851 74.8601L165.208 73.6726L168.368 79.0078H166.282ZM172.16 77.4169L171.961 78.0362C171.829 78.4908 171.654 78.9643 171.439 79.4567C171.226 79.9491 171.014 80.4074 170.802 80.8317C170.59 81.2597 170.422 81.5987 170.297 81.8487H169.092C169.175 81.6139 169.291 81.2976 169.439 80.8999C169.59 80.5021 169.749 80.0571 169.916 79.5646C170.083 79.0722 170.228 78.5684 170.353 78.0533L170.524 77.4169H172.16ZM180.851 79.201C180.297 79.201 179.815 79.0987 179.402 78.8942C178.989 78.6858 178.684 78.3847 178.487 77.9908C178.29 77.5968 178.239 77.1139 178.333 76.5419C178.417 76.0495 178.58 75.6442 178.822 75.326C179.068 75.0078 179.368 74.7559 179.72 74.5703C180.072 74.3809 180.455 74.2389 180.868 74.1442C181.28 74.0495 181.697 73.9794 182.118 73.9339C182.648 73.8733 183.078 73.8222 183.407 73.7805C183.741 73.7389 183.991 73.6745 184.157 73.5874C184.324 73.4964 184.424 73.3487 184.458 73.1442V73.1044C184.538 72.612 184.466 72.2294 184.243 71.9567C184.023 71.6802 183.64 71.5419 183.095 71.5419C182.527 71.5419 182.049 71.6669 181.663 71.9169C181.28 72.1669 180.998 72.4472 180.816 72.7578L179.294 72.3942C179.566 71.8639 179.913 71.4358 180.333 71.1101C180.758 70.7805 181.222 70.5419 181.726 70.3942C182.229 70.2427 182.744 70.1669 183.271 70.1669C183.619 70.1669 183.981 70.2086 184.356 70.2919C184.731 70.3714 185.072 70.5192 185.379 70.7351C185.69 70.951 185.921 71.2597 186.072 71.6612C186.224 72.0589 186.246 72.576 186.14 73.2124L185.18 79.0078H183.521L183.726 77.8146H183.657C183.513 78.0343 183.313 78.2502 183.055 78.4624C182.801 78.6745 182.491 78.8506 182.123 78.9908C181.756 79.1309 181.332 79.201 180.851 79.201ZM181.43 77.8374C181.904 77.8374 182.322 77.7446 182.686 77.5589C183.053 77.3733 183.351 77.1309 183.578 76.8317C183.805 76.5286 183.947 76.2048 184.004 75.8601L184.191 74.7351C184.119 74.7957 183.993 74.8506 183.811 74.8999C183.633 74.9491 183.432 74.9927 183.208 75.0305C182.985 75.0684 182.765 75.1006 182.549 75.1271C182.337 75.1536 182.161 75.1783 182.021 75.201C181.688 75.2427 181.375 75.3127 181.083 75.4112C180.796 75.5097 180.555 75.6518 180.362 75.8374C180.169 76.0192 180.047 76.2616 179.998 76.5646C179.93 76.9851 180.03 77.3033 180.299 77.5192C180.572 77.7313 180.949 77.8374 181.43 77.8374ZM190 73.826L189.147 79.0078H187.449L188.903 70.2805H190.534L190.295 71.701H190.403C190.68 71.2351 191.056 70.8639 191.534 70.5874C192.015 70.3071 192.583 70.1669 193.238 70.1669C193.829 70.1669 194.325 70.2919 194.727 70.5419C195.132 70.7881 195.418 71.1555 195.585 71.6442C195.755 72.1328 195.782 72.737 195.664 73.4567L194.733 79.0078H193.034L193.926 73.6612C194.028 73.0286 193.945 72.5343 193.676 72.1783C193.411 71.8184 192.988 71.6385 192.409 71.6385C192.015 71.6385 191.649 71.7237 191.312 71.8942C190.979 72.0646 190.697 72.3146 190.466 72.6442C190.238 72.9699 190.083 73.3639 190 73.826ZM200.261 79.1783C199.553 79.1783 198.952 78.9983 198.46 78.6385C197.971 78.2749 197.625 77.7578 197.42 77.0874C197.219 76.4131 197.197 75.6044 197.352 74.6612C197.511 73.718 197.805 72.9112 198.233 72.2408C198.661 71.5703 199.18 71.0571 199.789 70.701C200.399 70.3449 201.056 70.1669 201.761 70.1669C202.303 70.1669 202.723 70.2578 203.022 70.4396C203.325 70.6177 203.549 70.826 203.693 71.0646C203.837 71.3033 203.945 71.5135 204.017 71.6953H204.113L204.835 67.3714H206.534L204.602 79.0078H202.943L203.176 77.6499H203.034C202.901 77.8355 202.717 78.0476 202.483 78.2862C202.252 78.5249 201.956 78.7332 201.596 78.9112C201.236 79.0893 200.791 79.1783 200.261 79.1783ZM200.835 77.7294C201.324 77.7294 201.761 77.6006 202.147 77.343C202.538 77.0817 202.861 76.7199 203.119 76.2578C203.38 75.7957 203.562 75.2578 203.664 74.6442C203.767 74.0381 203.765 73.5078 203.659 73.0533C203.553 72.5987 203.348 72.2446 203.045 71.9908C202.742 71.737 202.342 71.6101 201.846 71.6101C201.335 71.6101 200.89 71.7427 200.511 72.0078C200.132 72.273 199.822 72.6347 199.579 73.093C199.341 73.5514 199.174 74.0684 199.079 74.6442C198.981 75.2275 198.977 75.7521 199.068 76.218C199.159 76.6839 199.35 77.0533 199.642 77.326C199.933 77.5949 200.331 77.7294 200.835 77.7294ZM214.886 67.3714L212.954 79.0078H211.255L213.187 67.3714H214.886ZM218.978 79.1839C218.122 79.1839 217.414 79.0002 216.853 78.6328C216.297 78.2616 215.906 77.7408 215.683 77.0703C215.459 76.3961 215.423 75.6063 215.575 74.701C215.723 73.8071 216.02 73.0192 216.467 72.3374C216.914 71.6555 217.471 71.1233 218.137 70.7408C218.808 70.3582 219.548 70.1669 220.359 70.1669C220.851 70.1669 221.315 70.2483 221.751 70.4112C222.19 70.5741 222.564 70.8298 222.87 71.1783C223.177 71.5268 223.389 71.9794 223.507 72.5362C223.628 73.0893 223.624 73.7616 223.495 74.5533L223.399 75.1555H216.456L216.654 73.8828H221.927C222.007 73.4358 221.986 73.04 221.865 72.6953C221.744 72.3468 221.535 72.0722 221.24 71.8714C220.948 71.6707 220.581 71.5703 220.137 71.5703C219.683 71.5703 219.259 71.6896 218.865 71.9283C218.471 72.1669 218.141 72.4718 217.876 72.843C217.615 73.2105 217.45 73.5893 217.382 73.9794L217.183 75.1442C217.084 75.7805 217.101 76.2919 217.234 76.6783C217.37 77.0646 217.609 77.3449 217.95 77.5192C218.291 77.6934 218.717 77.7805 219.228 77.7805C219.558 77.7805 219.863 77.7351 220.143 77.6442C220.427 77.5495 220.679 77.4112 220.899 77.2294C221.119 77.0438 221.302 76.8127 221.45 76.5362L223.007 76.826C222.798 77.2995 222.499 77.7143 222.109 78.0703C221.719 78.4226 221.259 78.6972 220.728 78.8942C220.202 79.0874 219.619 79.1839 218.978 79.1839ZM227.179 79.201C226.626 79.201 226.143 79.0987 225.73 78.8942C225.317 78.6858 225.012 78.3847 224.815 77.9908C224.618 77.5968 224.567 77.1139 224.662 76.5419C224.745 76.0495 224.908 75.6442 225.15 75.326C225.396 75.0078 225.696 74.7559 226.048 74.5703C226.4 74.3809 226.783 74.2389 227.196 74.1442C227.609 74.0495 228.025 73.9794 228.446 73.9339C228.976 73.8733 229.406 73.8222 229.735 73.7805C230.069 73.7389 230.319 73.6745 230.485 73.5874C230.652 73.4964 230.753 73.3487 230.787 73.1442V73.1044C230.866 72.612 230.794 72.2294 230.571 71.9567C230.351 71.6802 229.968 71.5419 229.423 71.5419C228.855 71.5419 228.378 71.6669 227.991 71.9169C227.609 72.1669 227.326 72.4472 227.145 72.7578L225.622 72.3942C225.895 71.8639 226.241 71.4358 226.662 71.1101C227.086 70.7805 227.55 70.5419 228.054 70.3942C228.557 70.2427 229.073 70.1669 229.599 70.1669C229.948 70.1669 230.309 70.2086 230.684 70.2919C231.059 70.3714 231.4 70.5192 231.707 70.7351C232.018 70.951 232.249 71.2597 232.4 71.6612C232.552 72.0589 232.574 72.576 232.468 73.2124L231.508 79.0078H229.849L230.054 77.8146H229.985C229.842 78.0343 229.641 78.2502 229.383 78.4624C229.129 78.6745 228.819 78.8506 228.451 78.9908C228.084 79.1309 227.66 79.201 227.179 79.201ZM227.758 77.8374C228.232 77.8374 228.65 77.7446 229.014 77.5589C229.381 77.3733 229.679 77.1309 229.906 76.8317C230.133 76.5286 230.275 76.2048 230.332 75.8601L230.52 74.7351C230.448 74.7957 230.321 74.8506 230.139 74.8999C229.961 74.9491 229.76 74.9927 229.537 75.0305C229.313 75.0684 229.093 75.1006 228.878 75.1271C228.665 75.1536 228.489 75.1783 228.349 75.201C228.016 75.2427 227.703 75.3127 227.412 75.4112C227.124 75.5097 226.883 75.6518 226.69 75.8374C226.497 76.0192 226.376 76.2616 226.326 76.5646C226.258 76.9851 226.359 77.3033 226.628 77.5192C226.9 77.7313 227.277 77.8374 227.758 77.8374ZM233.771 79.0078L235.226 70.2805H236.868L236.635 71.6669H236.726C236.96 71.1972 237.303 70.8279 237.754 70.5589C238.205 70.2862 238.686 70.1499 239.197 70.1499C239.307 70.1499 239.432 70.1536 239.572 70.1612C239.712 70.165 239.826 70.1745 239.913 70.1896L239.64 71.8146C239.576 71.7957 239.458 71.7749 239.288 71.7521C239.118 71.7256 238.941 71.7124 238.76 71.7124C238.362 71.7124 237.993 71.7976 237.652 71.968C237.311 72.1347 237.025 72.3677 236.794 72.6669C236.563 72.9624 236.413 73.2995 236.345 73.6783L235.47 79.0078H233.771ZM242.5 73.826L241.647 79.0078H239.949L241.403 70.2805H243.034L242.795 71.701H242.903C243.18 71.2351 243.556 70.8639 244.034 70.5874C244.515 70.3071 245.083 70.1669 245.738 70.1669C246.329 70.1669 246.825 70.2919 247.227 70.5419C247.632 70.7881 247.918 71.1555 248.085 71.6442C248.255 72.1328 248.282 72.737 248.164 73.4567L247.233 79.0078H245.534L246.426 73.6612C246.528 73.0286 246.445 72.5343 246.176 72.1783C245.911 71.8184 245.488 71.6385 244.909 71.6385C244.515 71.6385 244.149 71.7237 243.812 71.8942C243.479 72.0646 243.197 72.3146 242.966 72.6442C242.738 72.9699 242.583 73.3639 242.5 73.826ZM259.348 70.2805L259.126 71.6442H254.194L254.416 70.2805H259.348ZM254.314 79.0078L255.939 69.2692C256.022 68.7237 256.213 68.2711 256.512 67.9112C256.812 67.5476 257.173 67.2768 257.598 67.0987C258.022 66.9169 258.465 66.826 258.927 66.826C259.268 66.826 259.554 66.8544 259.785 66.9112C260.02 66.9643 260.19 67.0135 260.297 67.0589L259.677 68.4339C259.601 68.4112 259.505 68.3847 259.387 68.3544C259.27 68.3203 259.122 68.3033 258.944 68.3033C258.531 68.3033 258.219 68.4055 258.007 68.6101C257.798 68.8146 257.658 69.1101 257.586 69.4964L256.012 79.0078H254.314ZM259.646 79.0078L261.101 70.2805H262.743L262.51 71.6669H262.601C262.835 71.1972 263.178 70.8279 263.629 70.5589C264.08 70.2862 264.561 70.1499 265.072 70.1499C265.182 70.1499 265.307 70.1536 265.447 70.1612C265.587 70.165 265.701 70.1745 265.788 70.1896L265.515 71.8146C265.451 71.7957 265.333 71.7749 265.163 71.7521C264.993 71.7256 264.816 71.7124 264.635 71.7124C264.237 71.7124 263.868 71.7976 263.527 71.968C263.186 72.1347 262.9 72.3677 262.669 72.6669C262.438 72.9624 262.288 73.2995 262.22 73.6783L261.345 79.0078H259.646ZM269.221 79.1839C268.392 79.1839 267.699 78.9946 267.142 78.6158C266.585 78.2332 266.193 77.6991 265.966 77.0135C265.742 76.3241 265.704 75.523 265.852 74.6101C265.996 73.7161 266.286 72.9358 266.721 72.2692C267.161 71.6025 267.71 71.0855 268.369 70.718C269.032 70.3506 269.769 70.1669 270.579 70.1669C271.409 70.1669 272.1 70.3582 272.653 70.7408C273.21 71.1233 273.602 71.6593 273.829 72.3487C274.056 73.0381 274.096 73.8411 273.949 74.7578C273.805 75.6442 273.511 76.4207 273.068 77.0874C272.628 77.7502 272.079 78.2654 271.42 78.6328C270.761 79.0002 270.028 79.1839 269.221 79.1839ZM269.318 77.7578C269.863 77.7578 270.339 77.6139 270.744 77.326C271.153 77.0381 271.486 76.6555 271.744 76.1783C272.002 75.701 272.178 75.1783 272.272 74.6101C272.36 74.0608 272.358 73.5589 272.267 73.1044C272.18 72.6461 271.99 72.2786 271.699 72.0021C271.407 71.7256 271.002 71.5874 270.483 71.5874C269.937 71.5874 269.458 71.7332 269.045 72.0249C268.636 72.3127 268.303 72.6972 268.045 73.1783C267.791 73.6593 267.619 74.1839 267.528 74.7521C267.441 75.2976 267.441 75.7995 267.528 76.2578C267.615 76.7124 267.805 77.076 268.096 77.3487C268.388 77.6214 268.795 77.7578 269.318 77.7578ZM275.152 79.0078L276.606 70.2805H278.237L277.998 71.701H278.106C278.371 71.2199 278.731 70.8449 279.186 70.576C279.644 70.3033 280.163 70.1669 280.743 70.1669C281.318 70.1669 281.782 70.3033 282.135 70.576C282.491 70.8487 282.724 71.2237 282.833 71.701H282.924C283.205 71.2313 283.597 70.8582 284.101 70.5817C284.604 70.3052 285.171 70.1669 285.799 70.1669C286.583 70.1669 287.186 70.4169 287.606 70.9169C288.03 71.4131 288.159 72.1593 287.993 73.1555L287.015 79.0078H285.311L286.265 73.3146C286.36 72.7199 286.269 72.2919 285.993 72.0305C285.716 71.7654 285.354 71.6328 284.907 71.6328C284.354 71.6328 283.896 71.8033 283.532 72.1442C283.169 72.4813 282.945 72.915 282.862 73.4453L281.924 79.0078H280.237L281.208 73.2067C281.284 72.7294 281.197 72.3487 280.947 72.0646C280.701 71.7768 280.341 71.6328 279.868 71.6328C279.546 71.6328 279.233 71.718 278.93 71.8885C278.631 72.0589 278.375 72.2938 278.163 72.593C277.951 72.8923 277.813 73.237 277.748 73.6271L276.851 79.0078H275.152ZM297.237 79.1839C296.407 79.1839 295.714 78.9946 295.157 78.6158C294.601 78.2332 294.208 77.6991 293.981 77.0135C293.758 76.3241 293.72 75.523 293.868 74.6101C294.012 73.7161 294.301 72.9358 294.737 72.2692C295.176 71.6025 295.726 71.0855 296.385 70.718C297.047 70.3506 297.784 70.1669 298.595 70.1669C299.424 70.1669 300.116 70.3582 300.669 70.7408C301.226 71.1233 301.618 71.6593 301.845 72.3487C302.072 73.0381 302.112 73.8411 301.964 74.7578C301.82 75.6442 301.527 76.4207 301.083 77.0874C300.644 77.7502 300.095 78.2654 299.436 78.6328C298.777 79.0002 298.044 79.1839 297.237 79.1839ZM297.333 77.7578C297.879 77.7578 298.354 77.6139 298.76 77.326C299.169 77.0381 299.502 76.6555 299.76 76.1783C300.017 75.701 300.193 75.1783 300.288 74.6101C300.375 74.0608 300.373 73.5589 300.282 73.1044C300.195 72.6461 300.006 72.2786 299.714 72.0021C299.422 71.7256 299.017 71.5874 298.498 71.5874C297.953 71.5874 297.474 71.7332 297.061 72.0249C296.652 72.3127 296.318 72.6972 296.061 73.1783C295.807 73.6593 295.635 74.1839 295.544 74.7521C295.457 75.2976 295.457 75.7995 295.544 76.2578C295.631 76.7124 295.82 77.076 296.112 77.3487C296.404 77.6214 296.811 77.7578 297.333 77.7578ZM308.69 70.2805L308.468 71.6442H303.701L303.923 70.2805H308.69ZM305.542 68.1896H307.241L305.866 76.4453C305.813 76.7749 305.823 77.023 305.895 77.1896C305.967 77.3525 306.076 77.4643 306.224 77.5249C306.376 77.5817 306.544 77.6101 306.73 77.6101C306.866 77.6101 306.985 77.6006 307.088 77.5817C307.19 77.5627 307.271 77.5476 307.332 77.5362L307.423 78.9396C307.309 78.9775 307.156 79.0154 306.963 79.0533C306.773 79.0949 306.542 79.1177 306.27 79.1214C305.823 79.129 305.419 79.0495 305.059 78.8828C304.699 78.7124 304.431 78.4548 304.253 78.1101C304.074 77.7616 304.031 77.3241 304.122 76.7976L305.542 68.1896ZM311.859 73.826L311.007 79.0078H309.308L311.24 67.3714H312.916L312.2 71.701H312.308C312.584 71.2275 312.956 70.8544 313.422 70.5817C313.891 70.3052 314.467 70.1669 315.149 70.1669C315.747 70.1669 316.249 70.29 316.654 70.5362C317.064 70.7824 317.351 71.1499 317.518 71.6385C317.689 72.1233 317.715 72.7294 317.598 73.4567L316.666 79.0078H314.967L315.853 73.6612C315.959 73.0211 315.876 72.5249 315.603 72.1726C315.331 71.8165 314.904 71.6385 314.325 71.6385C313.92 71.6385 313.545 71.7237 313.2 71.8942C312.859 72.0646 312.571 72.3146 312.336 72.6442C312.101 72.9699 311.942 73.3639 311.859 73.826ZM322.666 79.1839C321.81 79.1839 321.101 79.0002 320.541 78.6328C319.984 78.2616 319.594 77.7408 319.37 77.0703C319.147 76.3961 319.111 75.6063 319.262 74.701C319.41 73.8071 319.708 73.0192 320.154 72.3374C320.601 71.6555 321.158 71.1233 321.825 70.7408C322.495 70.3582 323.236 70.1669 324.047 70.1669C324.539 70.1669 325.003 70.2483 325.439 70.4112C325.878 70.5741 326.251 70.8298 326.558 71.1783C326.865 71.5268 327.077 71.9794 327.194 72.5362C327.315 73.0893 327.312 73.7616 327.183 74.5533L327.086 75.1555H320.143L320.342 73.8828H325.615C325.694 73.4358 325.673 73.04 325.552 72.6953C325.431 72.3468 325.223 72.0722 324.927 71.8714C324.636 71.6707 324.268 71.5703 323.825 71.5703C323.37 71.5703 322.946 71.6896 322.552 71.9283C322.158 72.1669 321.829 72.4718 321.564 72.843C321.302 73.2105 321.137 73.5893 321.069 73.9794L320.87 75.1442C320.772 75.7805 320.789 76.2919 320.922 76.6783C321.058 77.0646 321.297 77.3449 321.637 77.5192C321.978 77.6934 322.404 77.7805 322.916 77.7805C323.245 77.7805 323.55 77.7351 323.831 77.6442C324.115 77.5495 324.367 77.4112 324.586 77.2294C324.806 77.0438 324.99 76.8127 325.137 76.5362L326.694 76.826C326.486 77.2995 326.187 77.7143 325.797 78.0703C325.406 78.4226 324.946 78.6972 324.416 78.8942C323.889 79.0874 323.306 79.1839 322.666 79.1839ZM328.349 79.0078L329.804 70.2805H331.446L331.213 71.6669H331.304C331.538 71.1972 331.881 70.8279 332.332 70.5589C332.783 70.2862 333.264 70.1499 333.775 70.1499C333.885 70.1499 334.01 70.1536 334.15 70.1612C334.29 70.165 334.404 70.1745 334.491 70.1896L334.218 71.8146C334.154 71.7957 334.037 71.7749 333.866 71.7521C333.696 71.7256 333.52 71.7124 333.338 71.7124C332.94 71.7124 332.571 71.7976 332.23 71.968C331.889 72.1347 331.603 72.3677 331.372 72.6669C331.141 72.9624 330.991 73.2995 330.923 73.6783L330.048 79.0078H328.349ZM342.163 72.4112L340.578 72.6839C340.544 72.4832 340.474 72.2938 340.368 72.1158C340.265 71.9377 340.108 71.7938 339.896 71.6839C339.684 71.5703 339.402 71.5135 339.049 71.5135C338.561 71.5135 338.133 71.6252 337.765 71.8487C337.402 72.0722 337.193 72.3563 337.14 72.701C337.091 72.9813 337.157 73.2086 337.339 73.3828C337.521 73.5533 337.841 73.6953 338.299 73.8089L339.64 74.1271C340.413 74.3127 340.966 74.6025 341.299 74.9964C341.637 75.3866 341.754 75.8942 341.652 76.5192C341.565 77.0381 341.337 77.4983 340.97 77.8999C340.606 78.3014 340.14 78.6158 339.572 78.843C339.004 79.0703 338.371 79.1839 337.674 79.1839C336.682 79.1839 335.909 78.9737 335.356 78.5533C334.803 78.1328 334.519 77.5381 334.504 76.7692L336.186 76.5192C336.216 76.9472 336.369 77.2711 336.646 77.4908C336.926 77.7067 337.315 77.8146 337.811 77.8146C338.379 77.8184 338.854 77.6991 339.237 77.4567C339.619 77.2143 339.837 76.9207 339.89 76.576C339.936 76.3071 339.875 76.0836 339.708 75.9055C339.546 75.7275 339.258 75.5911 338.845 75.4964L337.436 75.1726C336.648 74.987 336.091 74.6877 335.765 74.2749C335.44 73.862 335.33 73.343 335.436 72.718C335.519 72.2067 335.735 71.7616 336.083 71.3828C336.436 71.0002 336.881 70.7029 337.419 70.4908C337.957 70.2749 338.551 70.1669 339.203 70.1669C340.154 70.1669 340.868 70.3714 341.345 70.7805C341.822 71.1858 342.095 71.7294 342.163 72.4112ZM344.36 79.1158C344.042 79.1158 343.777 79.0059 343.565 78.7862C343.357 78.5665 343.254 78.2976 343.258 77.9794C343.262 77.665 343.379 77.4018 343.61 77.1896C343.845 76.9737 344.118 76.8658 344.429 76.8658C344.739 76.8658 345.004 76.9756 345.224 77.1953C345.444 77.415 345.546 77.6764 345.531 77.9794C345.52 78.1915 345.459 78.3847 345.349 78.5589C345.243 78.7294 345.103 78.8658 344.929 78.968C344.754 79.0665 344.565 79.1158 344.36 79.1158ZM349.882 67.3714L349.711 68.4624C349.658 68.7843 349.541 69.1233 349.359 69.4794C349.181 69.8317 348.956 70.1707 348.683 70.4964C348.414 70.8222 348.117 71.1025 347.791 71.3374L347.041 70.7351C347.317 70.4093 347.567 70.0627 347.791 69.6953C348.014 69.3279 348.164 68.9226 348.24 68.4794L348.427 67.3714H349.882ZM352.774 67.3714L352.603 68.4624C352.55 68.7843 352.433 69.1233 352.251 69.4794C352.073 69.8317 351.848 70.1707 351.575 70.4964C351.306 70.8222 351.007 71.1025 350.677 71.3374L349.927 70.7351C350.204 70.4093 350.454 70.0627 350.677 69.6953C350.904 69.3279 351.056 68.9226 351.132 68.4794L351.319 67.3714H352.774Z" fill="#2D4558"/>
<path d="M395.691 131.676C396.986 132.798 399 131.878 399 130.164V116.008L377.598 116.008L395.691 131.676Z" fill="#EFF1F5"/>
<path d="M305.414 163.542L306.983 154.088H312.846L312.643 155.316H308.207L307.726 158.197H311.743L311.54 159.42H307.523L306.84 163.542H305.414ZM315.437 163.686C314.742 163.686 314.166 163.536 313.711 163.238C313.258 162.936 312.941 162.513 312.76 161.968C312.578 161.42 312.549 160.779 312.672 160.043C312.792 159.317 313.033 158.677 313.397 158.123C313.76 157.569 314.212 157.136 314.754 156.826C315.299 156.515 315.9 156.359 316.559 156.359C316.959 156.359 317.336 156.425 317.69 156.558C318.047 156.69 318.35 156.898 318.599 157.181C318.849 157.464 319.021 157.832 319.116 158.284C319.215 158.734 319.212 159.28 319.107 159.923L319.029 160.413H313.387L313.549 159.378H317.833C317.898 159.015 317.881 158.694 317.782 158.414C317.684 158.13 317.515 157.907 317.275 157.744C317.038 157.581 316.739 157.5 316.379 157.5C316.01 157.5 315.665 157.596 315.345 157.79C315.025 157.984 314.757 158.232 314.542 158.534C314.329 158.832 314.195 159.14 314.14 159.457L313.978 160.403C313.898 160.92 313.912 161.336 314.02 161.65C314.131 161.964 314.325 162.191 314.602 162.333C314.879 162.475 315.225 162.545 315.64 162.545C315.908 162.545 316.156 162.508 316.384 162.435C316.614 162.358 316.819 162.245 316.998 162.098C317.176 161.947 317.325 161.759 317.445 161.534L318.71 161.77C318.541 162.154 318.298 162.491 317.981 162.781C317.664 163.067 317.29 163.29 316.859 163.45C316.431 163.607 315.957 163.686 315.437 163.686ZM320.059 163.542L321.241 156.452H322.566L322.372 157.606H322.46C322.675 157.215 322.968 156.91 323.337 156.692C323.709 156.47 324.131 156.359 324.602 156.359C325.07 156.359 325.447 156.47 325.733 156.692C326.022 156.913 326.212 157.218 326.301 157.606H326.375C326.602 157.224 326.921 156.921 327.33 156.696C327.74 156.472 328.2 156.359 328.711 156.359C329.348 156.359 329.837 156.562 330.179 156.969C330.523 157.372 330.628 157.978 330.493 158.788L329.699 163.542H328.314L329.089 158.917C329.166 158.434 329.092 158.086 328.868 157.873C328.643 157.658 328.349 157.55 327.986 157.55C327.537 157.55 327.164 157.689 326.869 157.966C326.573 158.24 326.392 158.592 326.324 159.023L325.562 163.542H324.191L324.981 158.829C325.042 158.441 324.971 158.132 324.768 157.901C324.568 157.667 324.276 157.55 323.891 157.55C323.629 157.55 323.376 157.62 323.129 157.758C322.886 157.897 322.678 158.087 322.506 158.33C322.334 158.574 322.221 158.854 322.169 159.171L321.44 163.542H320.059ZM333.589 163.699C333.14 163.699 332.747 163.616 332.412 163.45C332.076 163.281 331.829 163.036 331.669 162.716C331.509 162.396 331.467 162.004 331.544 161.539C331.612 161.139 331.744 160.81 331.941 160.551C332.141 160.292 332.384 160.088 332.67 159.937C332.957 159.783 333.268 159.668 333.603 159.591C333.938 159.514 334.277 159.457 334.619 159.42C335.049 159.371 335.399 159.329 335.667 159.295C335.937 159.261 336.141 159.209 336.276 159.138C336.411 159.064 336.493 158.944 336.521 158.778V158.746C336.585 158.346 336.527 158.035 336.345 157.813C336.167 157.589 335.856 157.476 335.413 157.476C334.951 157.476 334.563 157.578 334.249 157.781C333.938 157.984 333.709 158.212 333.561 158.464L332.324 158.169C332.546 157.738 332.827 157.39 333.169 157.126C333.514 156.858 333.891 156.664 334.3 156.544C334.709 156.421 335.128 156.359 335.556 156.359C335.839 156.359 336.133 156.393 336.438 156.461C336.742 156.525 337.019 156.645 337.268 156.821C337.521 156.996 337.709 157.247 337.832 157.573C337.955 157.897 337.973 158.317 337.887 158.834L337.107 163.542H335.759L335.925 162.573H335.87C335.753 162.752 335.59 162.927 335.38 163.099C335.174 163.272 334.922 163.415 334.623 163.529C334.325 163.643 333.98 163.699 333.589 163.699ZM334.06 162.591C334.445 162.591 334.785 162.516 335.08 162.365C335.379 162.214 335.62 162.018 335.805 161.774C335.99 161.528 336.105 161.265 336.151 160.985L336.304 160.071C336.245 160.12 336.142 160.165 335.994 160.205C335.85 160.245 335.687 160.28 335.505 160.311C335.323 160.342 335.145 160.368 334.969 160.389C334.797 160.411 334.654 160.431 334.54 160.449C334.269 160.483 334.015 160.54 333.778 160.62C333.545 160.7 333.349 160.816 333.192 160.966C333.035 161.114 332.937 161.311 332.897 161.557C332.841 161.899 332.923 162.158 333.141 162.333C333.363 162.505 333.669 162.591 334.06 162.591ZM341.895 154.088L340.326 163.542H338.945L340.515 154.088H341.895ZM345.22 163.686C344.525 163.686 343.949 163.536 343.494 163.238C343.041 162.936 342.724 162.513 342.543 161.968C342.361 161.42 342.332 160.779 342.455 160.043C342.575 159.317 342.817 158.677 343.18 158.123C343.543 157.569 343.995 157.136 344.537 156.826C345.082 156.515 345.684 156.359 346.342 156.359C346.742 156.359 347.119 156.425 347.473 156.558C347.83 156.69 348.133 156.898 348.383 157.181C348.632 157.464 348.804 157.832 348.9 158.284C348.998 158.734 348.995 159.28 348.89 159.923L348.812 160.413H343.171L343.332 159.378H347.616C347.681 159.015 347.664 158.694 347.566 158.414C347.467 158.13 347.298 157.907 347.058 157.744C346.821 157.581 346.522 157.5 346.162 157.5C345.793 157.5 345.448 157.596 345.128 157.79C344.808 157.984 344.54 158.232 344.325 158.534C344.112 158.832 343.979 159.14 343.923 159.457L343.762 160.403C343.682 160.92 343.695 161.336 343.803 161.65C343.914 161.964 344.108 162.191 344.385 162.333C344.662 162.475 345.008 162.545 345.423 162.545C345.691 162.545 345.939 162.508 346.167 162.435C346.398 162.358 346.602 162.245 346.781 162.098C346.959 161.947 347.108 161.759 347.229 161.534L348.493 161.77C348.324 162.154 348.081 162.491 347.764 162.781C347.447 163.067 347.073 163.29 346.642 163.45C346.214 163.607 345.74 163.686 345.22 163.686ZM355.324 163.699C354.874 163.699 354.482 163.616 354.146 163.45C353.811 163.281 353.563 163.036 353.403 162.716C353.243 162.396 353.201 162.004 353.278 161.539C353.346 161.139 353.478 160.81 353.675 160.551C353.875 160.292 354.119 160.088 354.405 159.937C354.691 159.783 355.002 159.668 355.337 159.591C355.673 159.514 356.011 159.457 356.353 159.42C356.784 159.371 357.133 159.329 357.401 159.295C357.672 159.261 357.875 159.209 358.01 159.138C358.146 159.064 358.227 158.944 358.255 158.778V158.746C358.32 158.346 358.261 158.035 358.08 157.813C357.901 157.589 357.59 157.476 357.147 157.476C356.685 157.476 356.298 157.578 355.984 157.781C355.673 157.984 355.444 158.212 355.296 158.464L354.059 158.169C354.28 157.738 354.562 157.39 354.903 157.126C355.248 156.858 355.625 156.664 356.034 156.544C356.444 156.421 356.862 156.359 357.29 156.359C357.573 156.359 357.867 156.393 358.172 156.461C358.477 156.525 358.754 156.645 359.003 156.821C359.255 156.996 359.443 157.247 359.566 157.573C359.689 157.897 359.708 158.317 359.621 158.834L358.841 163.542H357.493L357.659 162.573H357.604C357.487 162.752 357.324 162.927 357.115 163.099C356.908 163.272 356.656 163.415 356.358 163.529C356.059 163.643 355.714 163.699 355.324 163.699ZM355.794 162.591C356.179 162.591 356.519 162.516 356.815 162.365C357.113 162.214 357.355 162.018 357.539 161.774C357.724 161.528 357.839 161.265 357.886 160.985L358.038 160.071C357.98 160.12 357.876 160.165 357.729 160.205C357.584 160.245 357.421 160.28 357.239 160.311C357.058 160.342 356.879 160.368 356.704 160.389C356.531 160.411 356.388 160.431 356.275 160.449C356.004 160.483 355.75 160.54 355.513 160.62C355.279 160.7 355.083 160.816 354.926 160.966C354.77 161.114 354.671 161.311 354.631 161.557C354.576 161.899 354.657 162.158 354.876 162.333C355.097 162.505 355.404 162.591 355.794 162.591ZM363.21 166.349C362.643 166.349 362.169 166.275 361.788 166.128C361.409 165.98 361.111 165.785 360.892 165.541C360.677 165.298 360.527 165.032 360.444 164.743L361.718 164.253C361.78 164.389 361.866 164.532 361.977 164.683C362.088 164.837 362.252 164.967 362.471 165.075C362.693 165.183 362.996 165.237 363.38 165.237C363.904 165.237 364.361 165.109 364.752 164.854C365.142 164.601 365.384 164.198 365.476 163.644L365.693 162.25H365.606C365.501 162.401 365.356 162.568 365.172 162.753C364.987 162.938 364.748 163.098 364.456 163.233C364.164 163.369 363.801 163.436 363.367 163.436C362.806 163.436 362.323 163.306 361.917 163.044C361.514 162.779 361.225 162.39 361.049 161.876C360.874 161.359 360.849 160.723 360.975 159.969C361.098 159.215 361.332 158.569 361.677 158.03C362.025 157.492 362.446 157.079 362.942 156.793C363.44 156.504 363.974 156.359 364.544 156.359C364.984 156.359 365.327 156.433 365.573 156.581C365.823 156.725 366.007 156.895 366.127 157.089C366.247 157.283 366.335 157.453 366.39 157.601H366.492L366.681 156.452H368.034L366.834 163.699C366.735 164.309 366.512 164.809 366.164 165.2C365.819 165.591 365.39 165.88 364.876 166.068C364.365 166.255 363.81 166.349 363.21 166.349ZM363.837 162.291C364.231 162.291 364.582 162.199 364.89 162.014C365.201 161.827 365.459 161.559 365.666 161.211C365.872 160.86 366.015 160.44 366.095 159.951C366.175 159.474 366.17 159.054 366.081 158.691C365.995 158.327 365.827 158.044 365.578 157.841C365.332 157.635 365.01 157.532 364.613 157.532C364.194 157.532 363.831 157.64 363.524 157.855C363.216 158.067 362.965 158.357 362.771 158.723C362.58 159.089 362.446 159.498 362.369 159.951C362.296 160.416 362.297 160.823 362.374 161.174C362.454 161.525 362.614 161.799 362.854 161.996C363.094 162.193 363.422 162.291 363.837 162.291ZM371.741 163.686C371.045 163.686 370.47 163.536 370.014 163.238C369.562 162.936 369.245 162.513 369.063 161.968C368.882 161.42 368.852 160.779 368.976 160.043C369.096 159.317 369.337 158.677 369.7 158.123C370.064 157.569 370.516 157.136 371.058 156.826C371.602 156.515 372.204 156.359 372.863 156.359C373.263 156.359 373.64 156.425 373.994 156.558C374.351 156.69 374.654 156.898 374.903 157.181C375.152 157.464 375.325 157.832 375.42 158.284C375.519 158.734 375.516 159.28 375.411 159.923L375.332 160.413H369.691L369.853 159.378H374.137C374.201 159.015 374.185 158.694 374.086 158.414C373.988 158.13 373.818 157.907 373.578 157.744C373.341 157.581 373.043 157.5 372.683 157.5C372.313 157.5 371.969 157.596 371.649 157.79C371.328 157.984 371.061 158.232 370.845 158.534C370.633 158.832 370.499 159.14 370.444 159.457L370.282 160.403C370.202 160.92 370.216 161.336 370.324 161.65C370.434 161.964 370.628 162.191 370.905 162.333C371.182 162.475 371.528 162.545 371.944 162.545C372.212 162.545 372.459 162.508 372.687 162.435C372.918 162.358 373.123 162.245 373.301 162.098C373.48 161.947 373.629 161.759 373.749 161.534L375.014 161.77C374.845 162.154 374.602 162.491 374.285 162.781C373.968 163.067 373.594 163.29 373.163 163.45C372.735 163.607 372.261 163.686 371.741 163.686ZM379.78 163.542L379.96 162.508L383.7 159.194C384.1 158.834 384.434 158.518 384.702 158.247C384.972 157.973 385.183 157.713 385.334 157.467C385.488 157.221 385.59 156.959 385.639 156.682C385.691 156.368 385.663 156.098 385.556 155.87C385.451 155.639 385.283 155.462 385.052 155.339C384.822 155.213 384.545 155.15 384.222 155.15C383.883 155.15 383.575 155.219 383.298 155.357C383.021 155.496 382.79 155.691 382.606 155.944C382.421 156.196 382.3 156.492 382.241 156.83H380.884C380.979 156.255 381.198 155.751 381.539 155.321C381.881 154.89 382.304 154.556 382.809 154.319C383.314 154.079 383.86 153.959 384.448 153.959C385.045 153.959 385.548 154.077 385.957 154.314C386.37 154.548 386.668 154.868 386.853 155.274C387.038 155.678 387.087 156.133 387.001 156.641C386.939 156.995 386.814 157.339 386.627 157.675C386.439 158.007 386.15 158.38 385.759 158.792C385.368 159.201 384.835 159.698 384.161 160.283L381.964 162.25L381.95 162.319H386.202L386.003 163.542H379.78ZM387.753 163.542L387.933 162.508L391.672 159.194C392.073 158.834 392.407 158.518 392.674 158.247C392.945 157.973 393.156 157.713 393.307 157.467C393.461 157.221 393.562 156.959 393.611 156.682C393.664 156.368 393.636 156.098 393.528 155.87C393.424 155.639 393.256 155.462 393.025 155.339C392.794 155.213 392.517 155.15 392.194 155.15C391.856 155.15 391.548 155.219 391.271 155.357C390.994 155.496 390.763 155.691 390.578 155.944C390.394 156.196 390.272 156.492 390.214 156.83H388.856C388.952 156.255 389.17 155.751 389.512 155.321C389.854 154.89 390.277 154.556 390.782 154.319C391.286 154.079 391.833 153.959 392.42 153.959C393.017 153.959 393.521 154.077 393.93 154.314C394.342 154.548 394.641 154.868 394.826 155.274C395.01 155.678 395.059 156.133 394.973 156.641C394.912 156.995 394.787 157.339 394.599 157.675C394.412 158.007 394.122 158.38 393.731 158.792C393.341 159.201 392.808 159.698 392.134 160.283L389.937 162.25L389.923 162.319H394.175L393.976 163.542H387.753ZM397.762 162.25L397.6 162.753C397.492 163.122 397.351 163.507 397.175 163.907C397.003 164.307 396.831 164.68 396.658 165.024C396.486 165.372 396.349 165.648 396.247 165.851H395.269C395.336 165.66 395.43 165.403 395.55 165.08C395.673 164.757 395.803 164.395 395.938 163.995C396.074 163.595 396.192 163.185 396.294 162.767L396.432 162.25H397.762ZM349.945 171.088L348.376 180.542H347.065L343.413 173.609H343.33L342.171 180.542H340.745L342.314 171.088H343.635L347.291 178.031H347.379L348.533 171.088H349.945ZM353.365 180.686C352.691 180.686 352.128 180.532 351.675 180.224C351.223 179.913 350.904 179.479 350.72 178.922C350.538 178.362 350.507 177.711 350.627 176.969C350.744 176.243 350.98 175.609 351.334 175.067C351.691 174.526 352.137 174.106 352.672 173.807C353.211 173.509 353.81 173.359 354.468 173.359C355.142 173.359 355.704 173.515 356.153 173.826C356.606 174.136 356.924 174.572 357.109 175.132C357.294 175.692 357.326 176.345 357.206 177.089C357.089 177.81 356.85 178.44 356.49 178.982C356.133 179.521 355.687 179.939 355.152 180.238C354.616 180.536 354.021 180.686 353.365 180.686ZM353.443 179.527C353.887 179.527 354.273 179.41 354.602 179.176C354.935 178.942 355.205 178.631 355.415 178.243C355.624 177.856 355.767 177.431 355.844 176.969C355.915 176.523 355.913 176.115 355.839 175.746C355.769 175.374 355.615 175.075 355.378 174.85C355.141 174.626 354.811 174.513 354.39 174.513C353.947 174.513 353.557 174.632 353.222 174.869C352.889 175.103 352.619 175.415 352.409 175.806C352.203 176.197 352.063 176.623 351.989 177.085C351.918 177.528 351.918 177.936 351.989 178.308C352.06 178.677 352.214 178.973 352.451 179.194C352.688 179.416 353.019 179.527 353.443 179.527ZM360.256 176.332L359.564 180.542H358.183L359.365 173.452H360.69L360.496 174.606H360.584C360.809 174.227 361.115 173.926 361.503 173.701C361.894 173.473 362.355 173.359 362.888 173.359C363.368 173.359 363.771 173.461 364.097 173.664C364.426 173.864 364.659 174.163 364.794 174.56C364.933 174.957 364.954 175.447 364.859 176.032L364.102 180.542H362.721L363.446 176.198C363.529 175.684 363.462 175.283 363.243 174.993C363.028 174.701 362.684 174.555 362.214 174.555C361.894 174.555 361.597 174.624 361.323 174.763C361.052 174.901 360.823 175.104 360.635 175.372C360.45 175.637 360.324 175.957 360.256 176.332ZM370.893 175.949L370.694 177.145H366.498L366.696 175.949H370.893ZM376.947 177.602L377.64 173.452H379.025L377.843 180.542H376.485L376.693 179.314H376.619C376.398 179.693 376.084 180.009 375.678 180.261C375.274 180.51 374.807 180.635 374.274 180.635C373.819 180.635 373.432 180.535 373.115 180.335C372.801 180.132 372.578 179.832 372.446 179.435C372.314 179.038 372.295 178.547 372.391 177.962L373.148 173.452H374.528L373.803 177.796C373.726 178.279 373.799 178.664 374.02 178.95C374.242 179.236 374.565 179.379 374.99 179.379C375.248 179.379 375.516 179.314 375.793 179.185C376.07 179.056 376.315 178.861 376.527 178.599C376.742 178.337 376.882 178.005 376.947 177.602ZM385.907 175.183L384.619 175.404C384.591 175.241 384.534 175.087 384.448 174.943C384.365 174.798 384.237 174.681 384.065 174.592C383.892 174.5 383.663 174.453 383.377 174.453C382.98 174.453 382.632 174.544 382.333 174.726C382.038 174.907 381.869 175.138 381.826 175.418C381.786 175.646 381.839 175.831 381.987 175.972C382.135 176.111 382.395 176.226 382.767 176.318L383.857 176.577C384.485 176.728 384.934 176.963 385.205 177.283C385.479 177.6 385.574 178.013 385.491 178.52C385.42 178.942 385.236 179.316 384.937 179.642C384.642 179.968 384.263 180.224 383.801 180.409C383.34 180.593 382.826 180.686 382.259 180.686C381.453 180.686 380.825 180.515 380.376 180.173C379.927 179.832 379.696 179.348 379.684 178.724L381.05 178.52C381.075 178.868 381.199 179.131 381.424 179.31C381.652 179.485 381.967 179.573 382.37 179.573C382.832 179.576 383.218 179.479 383.529 179.282C383.84 179.085 384.017 178.847 384.06 178.567C384.097 178.348 384.048 178.167 383.912 178.022C383.78 177.877 383.546 177.766 383.21 177.689L382.066 177.426C381.425 177.276 380.973 177.032 380.708 176.697C380.444 176.361 380.354 175.94 380.441 175.432C380.508 175.017 380.684 174.655 380.967 174.347C381.253 174.036 381.615 173.795 382.052 173.622C382.489 173.447 382.972 173.359 383.501 173.359C384.274 173.359 384.854 173.525 385.242 173.858C385.63 174.187 385.851 174.629 385.907 175.183ZM389.705 180.686C389.009 180.686 388.434 180.536 387.978 180.238C387.526 179.936 387.209 179.513 387.027 178.968C386.846 178.42 386.816 177.779 386.939 177.043C387.059 176.317 387.301 175.677 387.664 175.123C388.027 174.569 388.48 174.136 389.021 173.826C389.566 173.515 390.168 173.359 390.827 173.359C391.227 173.359 391.604 173.425 391.958 173.558C392.315 173.69 392.618 173.898 392.867 174.181C393.116 174.464 393.289 174.832 393.384 175.284C393.483 175.734 393.479 176.28 393.375 176.923L393.296 177.413H387.655L387.817 176.378H392.101C392.165 176.015 392.148 175.694 392.05 175.414C391.951 175.13 391.782 174.907 391.542 174.744C391.305 174.581 391.007 174.5 390.646 174.5C390.277 174.5 389.932 174.596 389.612 174.79C389.292 174.984 389.025 175.232 388.809 175.534C388.597 175.832 388.463 176.14 388.407 176.457L388.246 177.403C388.166 177.92 388.18 178.336 388.287 178.65C388.398 178.964 388.592 179.191 388.869 179.333C389.146 179.475 389.492 179.545 389.908 179.545C390.176 179.545 390.423 179.508 390.651 179.435C390.882 179.358 391.087 179.245 391.265 179.098C391.444 178.947 391.593 178.759 391.713 178.534L392.978 178.77C392.809 179.154 392.565 179.491 392.248 179.781C391.931 180.067 391.557 180.29 391.127 180.45C390.699 180.607 390.225 180.686 389.705 180.686ZM394.322 180.542L395.504 173.452H396.838L396.649 174.578H396.723C396.914 174.196 397.192 173.896 397.559 173.678C397.925 173.456 398.316 173.345 398.731 173.345C398.82 173.345 398.922 173.348 399.036 173.355C399.15 173.358 399.242 173.365 399.313 173.378L399.091 174.698C399.039 174.683 398.943 174.666 398.805 174.647C398.666 174.626 398.523 174.615 398.376 174.615C398.052 174.615 397.752 174.684 397.475 174.823C397.198 174.958 396.966 175.147 396.778 175.39C396.591 175.631 396.469 175.904 396.414 176.212L395.703 180.542H394.322Z" fill="#606060"/>
</svg>
