<svg width="371" height="151" viewBox="0 0 371 151" fill="none" xmlns="http://www.w3.org/2000/svg">
<g filter="url(#filter0_bd_544_3912)">
<rect x="16" y="16" width="339" height="119.466" rx="8" fill="#F6FAEF" fill-opacity="0.64" shape-rendering="crispEdges"/>
<rect x="16.5" y="16.5" width="338" height="118.466" rx="7.5" stroke="#657663" stroke-opacity="0.24" shape-rendering="crispEdges"/>
<path d="M48 39.0222C48 37.3571 49.2086 35.3697 51.5988 34L51.76 34.188C50.632 35.504 50.0143 36.6051 49.692 37.5451C51.0348 37.6257 52.0554 38.4045 52.0554 39.5862C52.0554 40.6605 51.2228 41.4662 50.0948 41.4662C48.9668 41.4662 48 40.3919 48 39.0222ZM53.1028 39.0222C53.1028 37.3571 54.3382 35.3697 56.7285 34L56.8896 34.188C55.7616 35.504 55.1439 36.6051 54.8216 37.5451C56.1645 37.6257 57.1851 38.4045 57.1851 39.5862C57.1851 40.6605 56.3525 41.4662 55.2245 41.4662C54.0965 41.4662 53.1028 40.3919 53.1028 39.0222Z" fill="#657663"/>
<path d="M51.4439 58.0118L49.8743 67.4663H48.4478L50.0174 58.0118H51.4439ZM56.8186 67.4663L55.9138 60.3754H57.3403L57.8619 65.5828H57.9312L60.1933 60.3754H61.6198L62.1368 65.5597H62.2061L64.4543 60.3754H65.8808L62.6169 67.4663H61.2089L60.618 62.3466H60.5118L58.222 67.4663H56.8186ZM68.054 67.6233C67.6046 67.6233 67.2122 67.5402 66.8768 67.374C66.5413 67.2047 66.2936 66.96 66.1335 66.64C65.9735 66.3199 65.9319 65.9275 66.0089 65.4628C66.0766 65.0627 66.2089 64.7334 66.4059 64.4748C66.6059 64.2163 66.8491 64.0116 67.1353 63.8608C67.4215 63.707 67.7324 63.5915 68.0678 63.5146C68.4033 63.4377 68.7418 63.3807 69.0835 63.3438C69.5143 63.2946 69.8636 63.253 70.1314 63.2191C70.4022 63.1853 70.6054 63.133 70.7408 63.0622C70.8762 62.9883 70.9577 62.8683 70.9854 62.7021V62.6698C71.0501 62.2697 70.9916 61.9589 70.81 61.7373C70.6315 61.5126 70.3207 61.4003 69.8775 61.4003C69.4158 61.4003 69.0281 61.5018 68.7141 61.7049C68.4033 61.9081 68.174 62.1358 68.0263 62.3882L66.7891 62.0927C67.0107 61.6619 67.2923 61.3141 67.6339 61.0494C67.9786 60.7816 68.3556 60.5878 68.7649 60.4677C69.1742 60.3446 69.5928 60.2831 70.0206 60.2831C70.3037 60.2831 70.5977 60.3169 70.9023 60.3846C71.207 60.4493 71.484 60.5693 71.7333 60.7447C71.9857 60.9201 72.1734 61.171 72.2965 61.4972C72.4196 61.8204 72.4381 62.2405 72.3519 62.7575L71.5717 67.4663H70.2237L70.3899 66.4968H70.3345C70.2176 66.6754 70.0545 66.8508 69.8452 67.0231C69.639 67.1955 69.3866 67.3386 69.0881 67.4525C68.7895 67.5663 68.4448 67.6233 68.054 67.6233ZM68.5249 66.5153C68.9096 66.5153 69.2496 66.4399 69.5451 66.2891C69.8436 66.1383 70.0852 65.9413 70.2699 65.6982C70.4545 65.452 70.57 65.1888 70.6161 64.9088L70.7685 63.9947C70.71 64.044 70.6069 64.0886 70.4592 64.1286C70.3145 64.1686 70.1514 64.204 69.9698 64.2348C69.7882 64.2656 69.6097 64.2917 69.4343 64.3133C69.262 64.3348 69.1188 64.3548 69.005 64.3733C68.7341 64.4071 68.4802 64.4641 68.2433 64.5441C68.0094 64.6241 67.8139 64.7395 67.657 64.8903C67.5 65.038 67.4015 65.235 67.3615 65.4812C67.3061 65.8228 67.3877 66.0814 67.6062 66.2568C67.8278 66.4291 68.134 66.5153 68.5249 66.5153ZM75.4877 63.2561L74.7952 67.4663H73.4149L74.5967 60.3754H75.9216L75.7277 61.5295H75.8154C76.0401 61.151 76.3463 60.8494 76.7341 60.6247C77.125 60.3969 77.5866 60.2831 78.1191 60.2831C78.5992 60.2831 79.0023 60.3846 79.3286 60.5878C79.6579 60.7878 79.8902 61.0863 80.0257 61.4834C80.1642 61.8804 80.1857 62.3713 80.0903 62.956L79.3332 67.4663H77.9529L78.6776 63.1222C78.7607 62.6082 78.693 62.2066 78.4745 61.9173C78.2591 61.6249 77.9159 61.4787 77.445 61.4787C77.125 61.4787 76.828 61.548 76.5541 61.6865C76.2832 61.825 76.0539 62.0281 75.8662 62.2959C75.6816 62.5605 75.5554 62.8806 75.4877 63.2561ZM85.6716 60.3754L85.4916 61.4834H81.6183L81.7984 60.3754H85.6716ZM83.1141 58.6765H84.4944L83.3772 65.3843C83.3341 65.652 83.3418 65.8536 83.4003 65.989C83.4588 66.1214 83.548 66.2122 83.6681 66.2614C83.7912 66.3076 83.9281 66.3307 84.0789 66.3307C84.1897 66.3307 84.2867 66.323 84.3698 66.3076C84.4529 66.2922 84.519 66.2799 84.5683 66.2706L84.6421 67.4109C84.5498 67.4417 84.4252 67.4725 84.2682 67.5032C84.1143 67.5371 83.9266 67.5556 83.705 67.5586C83.3418 67.5648 83.0141 67.5002 82.7217 67.3647C82.4293 67.2263 82.2108 67.017 82.0661 66.7369C81.9215 66.4538 81.8861 66.0983 81.96 65.6705L83.1141 58.6765ZM93.949 60.3754L93.7689 61.4834H89.8957L90.0757 60.3754H93.949ZM91.3914 58.6765H92.7718L91.6546 65.3843C91.6115 65.652 91.6192 65.8536 91.6776 65.989C91.7361 66.1214 91.8254 66.2122 91.9454 66.2614C92.0685 66.3076 92.2055 66.3307 92.3563 66.3307C92.4671 66.3307 92.564 66.323 92.6471 66.3076C92.7302 66.2922 92.7964 66.2799 92.8456 66.2706L92.9195 67.4109C92.8271 67.4417 92.7025 67.4725 92.5455 67.5032C92.3917 67.5371 92.2039 67.5556 91.9823 67.5586C91.6192 67.5648 91.2914 67.5002 90.999 67.3647C90.7066 67.2263 90.4881 67.017 90.3435 66.7369C90.1988 66.4538 90.1634 66.0983 90.2373 65.6705L91.3914 58.6765ZM97.237 67.6094C96.563 67.6094 95.9998 67.4555 95.5474 67.1478C95.095 66.8369 94.7765 66.403 94.5918 65.8459C94.4102 65.2858 94.3794 64.6349 94.4995 63.8932C94.6164 63.1668 94.8519 62.5328 95.2058 61.9912C95.5628 61.4495 96.0091 61.0294 96.5446 60.7309C97.0832 60.4323 97.6818 60.2831 98.3404 60.2831C99.0144 60.2831 99.5761 60.4385 100.025 60.7493C100.478 61.0602 100.796 61.4957 100.981 62.0558C101.166 62.6159 101.198 63.2684 101.078 64.0132C100.961 64.7334 100.722 65.3643 100.362 65.9059C100.005 66.4445 99.5591 66.8631 99.0236 67.1616C98.4881 67.4602 97.8926 67.6094 97.237 67.6094ZM97.3155 66.4507C97.7587 66.4507 98.1449 66.3337 98.4743 66.0998C98.8066 65.8659 99.0775 65.5551 99.2868 65.1673C99.496 64.7795 99.6391 64.3548 99.7161 63.8932C99.7869 63.4469 99.7853 63.0391 99.7115 62.6698C99.6407 62.2974 99.4868 61.9989 99.2498 61.7742C99.0128 61.5495 98.6835 61.4372 98.2619 61.4372C97.8187 61.4372 97.4294 61.5557 97.0939 61.7927C96.7615 62.0266 96.4907 62.3389 96.2814 62.7298C96.0752 63.1207 95.9352 63.5469 95.8613 64.0086C95.7905 64.4517 95.7905 64.8595 95.8613 65.2319C95.9321 65.6013 96.086 65.8967 96.323 66.1183C96.56 66.3399 96.8908 66.4507 97.3155 66.4507ZM107.158 65.0611L107.421 63.3761H107.666L110.999 60.3754H112.651L108.866 63.7916H108.649L107.158 65.0611ZM105.491 67.4663L107.061 58.0118H108.441L106.872 67.4663H105.491ZM109.969 67.4663L107.993 64.0963L109.097 63.1314L111.664 67.4663H109.969ZM114.805 63.2561L114.113 67.4663H112.732L113.914 60.3754H115.239L115.045 61.5295H115.133C115.357 61.151 115.664 60.8494 116.051 60.6247C116.442 60.3969 116.904 60.2831 117.436 60.2831C117.917 60.2831 118.32 60.3846 118.646 60.5878C118.975 60.7878 119.208 61.0863 119.343 61.4834C119.482 61.8804 119.503 62.3713 119.408 62.956L118.651 67.4663H117.27L117.995 63.1222C118.078 62.6082 118.01 62.2066 117.792 61.9173C117.576 61.6249 117.233 61.4787 116.762 61.4787C116.442 61.4787 116.145 61.548 115.871 61.6865C115.601 61.825 115.371 62.0281 115.184 62.2959C114.999 62.5605 114.873 62.8806 114.805 63.2561ZM123.516 67.6094C122.842 67.6094 122.279 67.4555 121.827 67.1478C121.374 66.8369 121.056 66.403 120.871 65.8459C120.69 65.2858 120.659 64.6349 120.779 63.8932C120.896 63.1668 121.131 62.5328 121.485 61.9912C121.842 61.4495 122.288 61.0294 122.824 60.7309C123.362 60.4323 123.961 60.2831 124.62 60.2831C125.294 60.2831 125.855 60.4385 126.305 60.7493C126.757 61.0602 127.076 61.4957 127.26 62.0558C127.445 62.6159 127.477 63.2684 127.357 64.0132C127.24 64.7334 127.002 65.3643 126.642 65.9059C126.285 66.4445 125.838 66.8631 125.303 67.1616C124.767 67.4602 124.172 67.6094 123.516 67.6094ZM123.595 66.4507C124.038 66.4507 124.424 66.3337 124.754 66.0998C125.086 65.8659 125.357 65.5551 125.566 65.1673C125.775 64.7795 125.918 64.3548 125.995 63.8932C126.066 63.4469 126.065 63.0391 125.991 62.6698C125.92 62.2974 125.766 61.9989 125.529 61.7742C125.292 61.5495 124.963 61.4372 124.541 61.4372C124.098 61.4372 123.709 61.5557 123.373 61.7927C123.041 62.0266 122.77 62.3389 122.561 62.7298C122.355 63.1207 122.214 63.5469 122.141 64.0086C122.07 64.4517 122.07 64.8595 122.141 65.2319C122.211 65.6013 122.365 65.8967 122.602 66.1183C122.839 66.3399 123.17 66.4507 123.595 66.4507ZM129.652 67.4663L128.747 60.3754H130.173L130.695 65.5828H130.764L133.026 60.3754H134.453L134.97 65.5597H135.039L137.287 60.3754H138.714L135.45 67.4663H134.042L133.451 62.3466H133.345L131.055 67.4663H129.652ZM143.538 67.4663L142.79 60.3754H144.78L145.085 65.1396H145.149L147.088 60.3754H149.041L149.41 65.1119H149.47L151.344 60.3754H153.33L150.223 67.4663H148.141L147.661 63.0068H147.573L145.615 67.4663H143.538ZM155.856 63.3669L155.173 67.4663H153.211L154.78 58.0118H156.687L156.096 61.6265H156.174C156.402 61.2079 156.715 60.8801 157.112 60.6432C157.509 60.4031 157.978 60.2831 158.52 60.2831C159.012 60.2831 159.423 60.3908 159.752 60.6062C160.085 60.8186 160.32 61.1248 160.459 61.5249C160.597 61.9219 160.62 62.3974 160.528 62.9514L159.771 67.4663H157.809L158.501 63.3022C158.572 62.8652 158.515 62.5251 158.33 62.282C158.149 62.0389 157.859 61.9173 157.462 61.9173C157.195 61.9173 156.948 61.9742 156.724 62.0881C156.499 62.202 156.31 62.3682 156.156 62.5867C156.005 62.8021 155.905 63.0622 155.856 63.3669ZM161.835 70.1254C161.583 70.1254 161.352 70.1054 161.143 70.0654C160.934 70.0285 160.761 69.9807 160.626 69.9223L161.318 68.4542C161.537 68.525 161.735 68.562 161.914 68.565C162.095 68.5681 162.262 68.5219 162.412 68.4265C162.563 68.3311 162.702 68.1742 162.828 67.9557L163.003 67.6556L161.674 60.3754H163.668L164.268 65.592H164.342L166.692 60.3754H168.848L164.79 68.2326C164.59 68.6174 164.353 68.9513 164.079 69.2344C163.808 69.5176 163.487 69.7361 163.114 69.89C162.745 70.0469 162.319 70.1254 161.835 70.1254ZM178.465 62.1066L177.177 62.3282C177.149 62.1651 177.092 62.0112 177.006 61.8665C176.923 61.7219 176.795 61.6049 176.623 61.5157C176.451 61.4233 176.222 61.3772 175.935 61.3772C175.538 61.3772 175.19 61.468 174.892 61.6495C174.597 61.8311 174.427 62.062 174.384 62.342C174.344 62.5698 174.398 62.7544 174.546 62.896C174.693 63.0345 174.954 63.1499 175.326 63.2422L176.415 63.5008C177.043 63.6516 177.493 63.887 177.763 64.2071C178.037 64.5241 178.133 64.9365 178.05 65.4443C177.979 65.8659 177.794 66.2399 177.496 66.5661C177.2 66.8923 176.822 67.1478 176.36 67.3324C175.898 67.5171 175.384 67.6094 174.818 67.6094C174.012 67.6094 173.384 67.4386 172.935 67.097C172.485 66.7554 172.254 66.2722 172.242 65.6474L173.609 65.4443C173.633 65.7921 173.758 66.0552 173.983 66.2337C174.21 66.4091 174.526 66.4968 174.929 66.4968C175.391 66.4999 175.777 66.403 176.088 66.206C176.398 66.009 176.575 65.7705 176.619 65.4905C176.655 65.2719 176.606 65.0904 176.471 64.9457C176.338 64.8011 176.105 64.6903 175.769 64.6133L174.624 64.3502C173.984 64.1994 173.532 63.9562 173.267 63.6208C173.002 63.2853 172.913 62.8637 172.999 62.3559C173.067 61.9404 173.242 61.5788 173.525 61.271C173.812 60.9602 174.173 60.7186 174.61 60.5462C175.047 60.3708 175.531 60.2831 176.06 60.2831C176.832 60.2831 177.413 60.4493 177.8 60.7816C178.188 61.111 178.41 61.5526 178.465 62.1066ZM182.245 67.6094C181.571 67.6094 181.008 67.4555 180.555 67.1478C180.103 66.8369 179.784 66.403 179.6 65.8459C179.418 65.2858 179.387 64.6349 179.507 63.8932C179.624 63.1668 179.86 62.5328 180.214 61.9912C180.571 61.4495 181.017 61.0294 181.552 60.7309C182.091 60.4323 182.69 60.2831 183.348 60.2831C184.022 60.2831 184.584 60.4385 185.033 60.7493C185.486 61.0602 185.804 61.4957 185.989 62.0558C186.173 62.6159 186.206 63.2684 186.086 64.0132C185.969 64.7334 185.73 65.3643 185.37 65.9059C185.013 66.4445 184.567 66.8631 184.031 67.1616C183.496 67.4602 182.9 67.6094 182.245 67.6094ZM182.323 66.4507C182.767 66.4507 183.153 66.3337 183.482 66.0998C183.814 65.8659 184.085 65.5551 184.295 65.1673C184.504 64.7795 184.647 64.3548 184.724 63.8932C184.795 63.4469 184.793 63.0391 184.719 62.6698C184.648 62.2974 184.495 61.9989 184.258 61.7742C184.021 61.5495 183.691 61.4372 183.27 61.4372C182.827 61.4372 182.437 61.5557 182.102 61.7927C181.769 62.0266 181.499 62.3389 181.289 62.7298C181.083 63.1207 180.943 63.5469 180.869 64.0086C180.798 64.4517 180.798 64.8595 180.869 65.2319C180.94 65.6013 181.094 65.8967 181.331 66.1183C181.568 66.3399 181.899 66.4507 182.323 66.4507ZM187.063 67.4663L188.245 60.3754H189.57L189.376 61.5295H189.464C189.679 61.1387 189.972 60.834 190.341 60.6155C190.713 60.3939 191.135 60.2831 191.606 60.2831C192.074 60.2831 192.451 60.3939 192.737 60.6155C193.026 60.837 193.216 61.1417 193.305 61.5295H193.379C193.606 61.1479 193.925 60.8447 194.334 60.6201C194.744 60.3954 195.204 60.2831 195.715 60.2831C196.352 60.2831 196.841 60.4862 197.183 60.8924C197.527 61.2956 197.632 61.9019 197.497 62.7113L196.703 67.4663H195.318L196.093 62.8406C196.17 62.3574 196.096 62.0096 195.872 61.7973C195.647 61.5818 195.353 61.4741 194.99 61.4741C194.54 61.4741 194.168 61.6126 193.873 61.8896C193.577 62.1635 193.396 62.5159 193.328 62.9468L192.566 67.4663H191.195L191.984 62.7529C192.046 62.3651 191.975 62.0558 191.772 61.825C191.572 61.5911 191.28 61.4741 190.895 61.4741C190.633 61.4741 190.379 61.5434 190.133 61.6819C189.89 61.8204 189.682 62.0112 189.51 62.2543C189.338 62.4974 189.225 62.7775 189.173 63.0945L188.444 67.4663H187.063ZM201.586 67.6094C200.89 67.6094 200.315 67.4602 199.859 67.1616C199.407 66.86 199.09 66.4368 198.908 65.8921C198.726 65.3443 198.697 64.7026 198.82 63.967C198.94 63.2407 199.182 62.6005 199.545 62.0466C199.908 61.4926 200.361 61.0602 200.902 60.7493C201.447 60.4385 202.049 60.2831 202.707 60.2831C203.107 60.2831 203.484 60.3492 203.838 60.4816C204.195 60.6139 204.499 60.8217 204.748 61.1048C204.997 61.3879 205.17 61.7557 205.265 62.2081C205.363 62.6575 205.36 63.2038 205.256 63.847L205.177 64.3363H199.536L199.697 63.3022H203.982C204.046 62.9391 204.029 62.6175 203.931 62.3374C203.832 62.0543 203.663 61.8311 203.423 61.668C203.186 61.5049 202.887 61.4233 202.527 61.4233C202.158 61.4233 201.813 61.5203 201.493 61.7142C201.173 61.9081 200.905 62.1558 200.69 62.4574C200.478 62.756 200.344 63.0637 200.288 63.3807L200.127 64.3271C200.047 64.8441 200.061 65.2596 200.168 65.5736C200.279 65.8875 200.473 66.1152 200.75 66.2568C201.027 66.3984 201.373 66.4691 201.789 66.4691C202.056 66.4691 202.304 66.4322 202.532 66.3584C202.763 66.2814 202.967 66.1691 203.146 66.0214C203.324 65.8705 203.474 65.6828 203.594 65.4581L204.859 65.6936C204.689 66.0783 204.446 66.4153 204.129 66.7046C203.812 66.9908 203.438 67.2139 203.007 67.374C202.58 67.5309 202.106 67.6094 201.586 67.6094ZM209.222 67.6094C208.548 67.6094 207.985 67.4555 207.533 67.1478C207.08 66.8369 206.762 66.403 206.577 65.8459C206.396 65.2858 206.365 64.6349 206.485 63.8932C206.602 63.1668 206.837 62.5328 207.191 61.9912C207.548 61.4495 207.994 61.0294 208.53 60.7309C209.069 60.4323 209.667 60.2831 210.326 60.2831C211 60.2831 211.561 60.4385 212.011 60.7493C212.463 61.0602 212.782 61.4957 212.966 62.0558C213.151 62.6159 213.183 63.2684 213.063 64.0132C212.946 64.7334 212.708 65.3643 212.348 65.9059C211.991 66.4445 211.544 66.8631 211.009 67.1616C210.473 67.4602 209.878 67.6094 209.222 67.6094ZM209.301 66.4507C209.744 66.4507 210.13 66.3337 210.46 66.0998C210.792 65.8659 211.063 65.5551 211.272 65.1673C211.481 64.7795 211.624 64.3548 211.701 63.8932C211.772 63.4469 211.771 63.0391 211.697 62.6698C211.626 62.2974 211.472 61.9989 211.235 61.7742C210.998 61.5495 210.669 61.4372 210.247 61.4372C209.804 61.4372 209.415 61.5557 209.079 61.7927C208.747 62.0266 208.476 62.3389 208.267 62.7298C208.061 63.1207 207.921 63.5469 207.847 64.0086C207.776 64.4517 207.776 64.8595 207.847 65.2319C207.917 65.6013 208.071 65.8967 208.308 66.1183C208.545 66.3399 208.876 66.4507 209.301 66.4507ZM216.114 63.2561L215.421 67.4663H214.041L215.223 60.3754H216.548L216.354 61.5295H216.441C216.666 61.151 216.972 60.8494 217.36 60.6247C217.751 60.3969 218.213 60.2831 218.745 60.2831C219.225 60.2831 219.628 60.3846 219.955 60.5878C220.284 60.7878 220.516 61.0863 220.652 61.4834C220.79 61.8804 220.812 62.3713 220.716 62.956L219.959 67.4663H218.579L219.304 63.1222C219.387 62.6082 219.319 62.2066 219.1 61.9173C218.885 61.6249 218.542 61.4787 218.071 61.4787C217.751 61.4787 217.454 61.548 217.18 61.6865C216.909 61.825 216.68 62.0281 216.492 62.2959C216.308 62.5605 216.181 62.8806 216.114 63.2561ZM224.843 67.6094C224.148 67.6094 223.572 67.4602 223.117 67.1616C222.664 66.86 222.347 66.4368 222.166 65.8921C221.984 65.3443 221.955 64.7026 222.078 63.967C222.198 63.2407 222.44 62.6005 222.803 62.0466C223.166 61.4926 223.618 61.0602 224.16 60.7493C224.705 60.4385 225.307 60.2831 225.965 60.2831C226.365 60.2831 226.742 60.3492 227.096 60.4816C227.453 60.6139 227.756 60.8217 228.006 61.1048C228.255 61.3879 228.427 61.7557 228.523 62.2081C228.621 62.6575 228.618 63.2038 228.513 63.847L228.435 64.3363H222.794L222.955 63.3022H227.239C227.304 62.9391 227.287 62.6175 227.189 62.3374C227.09 62.0543 226.921 61.8311 226.681 61.668C226.444 61.5049 226.145 61.4233 225.785 61.4233C225.416 61.4233 225.071 61.5203 224.751 61.7142C224.431 61.9081 224.163 62.1558 223.948 62.4574C223.735 62.756 223.602 63.0637 223.546 63.3807L223.385 64.3271C223.305 64.8441 223.318 65.2596 223.426 65.5736C223.537 65.8875 223.731 66.1152 224.008 66.2568C224.285 66.3984 224.631 66.4691 225.047 66.4691C225.314 66.4691 225.562 66.4322 225.79 66.3584C226.021 66.2814 226.225 66.1691 226.404 66.0214C226.582 65.8705 226.732 65.6828 226.852 65.4581L228.116 65.6936C227.947 66.0783 227.704 66.4153 227.387 66.7046C227.07 66.9908 226.696 67.2139 226.265 67.374C225.837 67.5309 225.364 67.6094 224.843 67.6094ZM232.901 67.4663L234.083 60.3754H235.464L234.282 67.4663H232.901ZM235.062 59.2674C234.822 59.2674 234.619 59.1874 234.453 59.0274C234.289 58.8643 234.214 58.6704 234.226 58.4457C234.239 58.218 234.334 58.0241 234.513 57.864C234.691 57.7009 234.899 57.6194 235.136 57.6194C235.376 57.6194 235.577 57.7009 235.741 57.864C235.904 58.0241 235.981 58.218 235.971 58.4457C235.959 58.6704 235.864 58.8643 235.685 59.0274C235.51 59.1874 235.302 59.2674 235.062 59.2674ZM242.348 62.1066L241.06 62.3282C241.032 62.1651 240.975 62.0112 240.889 61.8665C240.806 61.7219 240.678 61.6049 240.506 61.5157C240.334 61.4233 240.104 61.3772 239.818 61.3772C239.421 61.3772 239.073 61.468 238.775 61.6495C238.479 61.8311 238.31 62.062 238.267 62.342C238.227 62.5698 238.281 62.7544 238.429 62.896C238.576 63.0345 238.836 63.1499 239.209 63.2422L240.298 63.5008C240.926 63.6516 241.375 63.887 241.646 64.2071C241.92 64.5241 242.016 64.9365 241.932 65.4443C241.862 65.8659 241.677 66.2399 241.378 66.5661C241.083 66.8923 240.704 67.1478 240.243 67.3324C239.781 67.5171 239.267 67.6094 238.701 67.6094C237.895 67.6094 237.267 67.4386 236.817 67.097C236.368 66.7554 236.137 66.2722 236.125 65.6474L237.491 65.4443C237.516 65.7921 237.641 66.0552 237.865 66.2337C238.093 66.4091 238.409 66.4968 238.812 66.4968C239.273 66.4999 239.66 66.403 239.97 66.206C240.281 66.009 240.458 65.7705 240.501 65.4905C240.538 65.2719 240.489 65.0904 240.354 64.9457C240.221 64.8011 239.987 64.6903 239.652 64.6133L238.507 64.3502C237.867 64.1994 237.414 63.9562 237.15 63.6208C236.885 63.2853 236.796 62.8637 236.882 62.3559C236.95 61.9404 237.125 61.5788 237.408 61.271C237.695 60.9602 238.056 60.7186 238.493 60.5462C238.93 60.3708 239.413 60.2831 239.943 60.2831C240.715 60.2831 241.295 60.4493 241.683 60.7816C242.071 61.111 242.293 61.5526 242.348 62.1066ZM250.653 70.1254L251.276 66.3307H251.216C251.096 66.5276 250.936 66.7231 250.736 66.9169C250.536 67.1078 250.291 67.2663 250.002 67.3924C249.716 67.5186 249.382 67.5817 249 67.5817C248.462 67.5817 247.998 67.4432 247.611 67.1662C247.223 66.8862 246.946 66.4753 246.78 65.9336C246.617 65.3889 246.6 64.721 246.729 63.9301C246.864 63.1176 247.108 62.442 247.458 61.9035C247.809 61.3618 248.225 60.9571 248.705 60.6893C249.185 60.4185 249.684 60.2831 250.201 60.2831C250.598 60.2831 250.918 60.3508 251.161 60.4862C251.407 60.6185 251.596 60.7847 251.729 60.9848C251.861 61.1817 251.953 61.3756 252.006 61.5665H252.089L252.296 60.3754H254.235L252.62 70.1254H250.653ZM249.882 66.0167C250.199 66.0167 250.482 65.9306 250.731 65.7582C250.984 65.5828 251.193 65.3381 251.359 65.0242C251.529 64.7103 251.649 64.3425 251.719 63.9209C251.79 63.4992 251.792 63.133 251.724 62.8221C251.659 62.5113 251.53 62.2712 251.336 62.102C251.145 61.9327 250.891 61.8481 250.574 61.8481C250.248 61.8481 249.96 61.9358 249.711 62.1112C249.462 62.2866 249.254 62.5298 249.088 62.8406C248.922 63.1514 248.805 63.5115 248.737 63.9209C248.669 64.3333 248.666 64.698 248.728 65.015C248.793 65.3289 248.92 65.5751 249.111 65.7536C249.305 65.929 249.562 66.0167 249.882 66.0167ZM259.683 64.4471L260.361 60.3754H262.328L261.146 67.4663H259.258L259.47 66.1783H259.397C259.178 66.5938 258.86 66.9277 258.441 67.1801C258.022 67.4325 257.547 67.5586 257.014 67.5586C256.541 67.5586 256.14 67.4509 255.814 67.2355C255.491 67.02 255.262 66.7138 255.126 66.3168C254.991 65.9198 254.968 65.4443 255.057 64.8903L255.814 60.3754H257.781L257.088 64.5395C257.024 64.958 257.082 65.2889 257.264 65.532C257.445 65.7751 257.722 65.8967 258.095 65.8967C258.332 65.8967 258.561 65.8428 258.783 65.7351C259.007 65.6243 259.201 65.4612 259.364 65.2458C259.527 65.0303 259.634 64.7641 259.683 64.4471ZM264.723 67.6002C264.273 67.6002 263.884 67.5217 263.555 67.3647C263.229 67.2047 262.989 66.9677 262.835 66.6538C262.681 66.3399 262.642 65.9506 262.719 65.4858C262.787 65.0919 262.915 64.7626 263.102 64.4979C263.293 64.2302 263.526 64.0147 263.8 63.8516C264.073 63.6885 264.377 63.5638 264.709 63.4777C265.044 63.3915 265.391 63.333 265.748 63.3022C266.16 63.2592 266.496 63.2176 266.754 63.1776C267.016 63.1376 267.211 63.0807 267.34 63.0068C267.47 62.9299 267.548 62.816 267.576 62.6652V62.6375C267.622 62.3482 267.568 62.1235 267.414 61.9635C267.263 61.8004 267.022 61.7188 266.689 61.7188C266.339 61.7188 266.04 61.7957 265.794 61.9496C265.551 62.1035 265.377 62.2989 265.272 62.5359L263.481 62.3882C263.641 61.9573 263.883 61.5849 264.206 61.271C264.532 60.954 264.924 60.7109 265.383 60.5416C265.842 60.3692 266.356 60.2831 266.925 60.2831C267.319 60.2831 267.687 60.3292 268.028 60.4216C268.373 60.5139 268.67 60.657 268.919 60.8509C269.172 61.0448 269.353 61.2941 269.464 61.5988C269.578 61.9004 269.601 62.262 269.533 62.6836L268.735 67.4663H266.869L267.036 66.483H266.98C266.829 66.7046 266.645 66.9 266.426 67.0693C266.208 67.2355 265.957 67.3663 265.674 67.4617C265.391 67.554 265.074 67.6002 264.723 67.6002ZM265.512 66.2429C265.798 66.2429 266.062 66.186 266.302 66.0721C266.545 65.9552 266.745 65.7982 266.902 65.6013C267.062 65.4043 267.163 65.1812 267.206 64.9319L267.327 64.1794C267.265 64.2194 267.176 64.2548 267.059 64.2856C266.945 64.3163 266.82 64.3456 266.685 64.3733C266.552 64.3979 266.419 64.421 266.283 64.4425C266.148 64.461 266.026 64.4794 265.919 64.4979C265.682 64.5318 265.469 64.5856 265.281 64.6595C265.094 64.7334 264.941 64.8334 264.824 64.9596C264.707 65.0827 264.635 65.2365 264.607 65.4212C264.564 65.689 264.627 65.8936 264.797 66.0352C264.969 66.1737 265.208 66.2429 265.512 66.2429ZM273.797 58.0118L272.227 67.4663H270.26L271.83 58.0118H273.797ZM273.802 67.4663L274.984 60.3754H276.951L275.769 67.4663H273.802ZM276.171 59.4521C275.878 59.4521 275.637 59.3552 275.446 59.1613C275.258 58.9643 275.181 58.7304 275.215 58.4596C275.249 58.1826 275.381 57.9487 275.612 57.7579C275.843 57.564 276.104 57.467 276.397 57.467C276.689 57.467 276.928 57.564 277.112 57.7579C277.297 57.9487 277.374 58.1826 277.343 58.4596C277.312 58.7304 277.182 58.9643 276.951 59.1613C276.723 59.3552 276.463 59.4521 276.171 59.4521ZM282.344 60.3754L282.099 61.8527H277.723L277.968 60.3754H282.344ZM277.783 67.4663L279.052 59.863C279.135 59.349 279.305 58.9227 279.56 58.5842C279.819 58.2457 280.137 57.9918 280.516 57.8225C280.897 57.6532 281.31 57.5686 281.753 57.5686C282.055 57.5686 282.327 57.5917 282.57 57.6378C282.816 57.684 282.995 57.7255 283.106 57.7625L282.519 59.2397C282.445 59.2151 282.355 59.192 282.247 59.1705C282.139 59.149 282.025 59.1382 281.905 59.1382C281.619 59.1382 281.408 59.2059 281.273 59.3413C281.141 59.4736 281.051 59.6598 281.005 59.8999L279.745 67.4663H277.783ZM282.359 67.4663L283.541 60.3754H285.507L284.326 67.4663H282.359ZM284.727 59.4521C284.435 59.4521 284.193 59.3552 284.002 59.1613C283.815 58.9643 283.738 58.7304 283.772 58.4596C283.805 58.1826 283.938 57.9487 284.169 57.7579C284.399 57.564 284.661 57.467 284.953 57.467C285.246 57.467 285.484 57.564 285.669 57.7579C285.854 57.9487 285.931 58.1826 285.9 58.4596C285.869 58.7304 285.738 58.9643 285.507 59.1613C285.28 59.3552 285.02 59.4521 284.727 59.4521ZM289.114 67.6048C288.388 67.6048 287.786 67.4571 287.309 67.1616C286.832 66.8631 286.496 66.4415 286.303 65.8967C286.112 65.3489 286.079 64.701 286.206 63.9532C286.329 63.2238 286.576 62.5836 286.949 62.0327C287.324 61.4818 287.795 61.0525 288.362 60.7447C288.928 60.437 289.559 60.2831 290.254 60.2831C290.722 60.2831 291.145 60.3585 291.524 60.5093C291.905 60.657 292.222 60.8817 292.475 61.1833C292.727 61.4818 292.9 61.8557 292.992 62.3051C293.087 62.7544 293.086 63.2807 292.987 63.8839L292.9 64.4241H286.917L287.106 63.2053H291.242C291.288 62.9222 291.27 62.6713 291.187 62.4528C291.104 62.2343 290.965 62.0635 290.771 61.9404C290.577 61.8142 290.339 61.7511 290.056 61.7511C289.766 61.7511 289.496 61.8219 289.243 61.9635C288.991 62.105 288.779 62.2912 288.606 62.5221C288.437 62.7498 288.328 62.9976 288.278 63.2653L288.061 64.4748C288 64.8472 288.012 65.1565 288.098 65.4027C288.188 65.649 288.342 65.8336 288.56 65.9567C288.779 66.0767 289.056 66.1368 289.391 66.1368C289.609 66.1368 289.814 66.106 290.005 66.0444C290.199 65.9829 290.371 65.8921 290.522 65.7721C290.673 65.649 290.796 65.4966 290.891 65.315L292.687 65.4351C292.521 65.8721 292.269 66.2537 291.93 66.5799C291.592 66.9031 291.184 67.1555 290.707 67.337C290.233 67.5156 289.702 67.6048 289.114 67.6048ZM296.287 67.5817C295.745 67.5817 295.279 67.4432 294.888 67.1662C294.5 66.8862 294.223 66.4753 294.057 65.9336C293.894 65.3889 293.879 64.721 294.011 63.9301C294.146 63.1176 294.389 62.442 294.74 61.9035C295.091 61.3618 295.507 60.9571 295.987 60.6893C296.467 60.4185 296.967 60.2831 297.487 60.2831C297.881 60.2831 298.2 60.3508 298.443 60.4862C298.689 60.6185 298.878 60.7847 299.011 60.9848C299.143 61.1817 299.235 61.3756 299.288 61.5665H299.348L299.943 58.0118H301.905L300.335 67.4663H298.397L298.586 66.3307H298.503C298.38 66.5276 298.217 66.7231 298.013 66.9169C297.813 67.1078 297.57 67.2663 297.284 67.3924C297.001 67.5186 296.668 67.5817 296.287 67.5817ZM297.155 66.0167C297.469 66.0167 297.752 65.9306 298.004 65.7582C298.257 65.5828 298.469 65.3381 298.641 65.0242C298.814 64.7103 298.934 64.3425 299.001 63.9209C299.072 63.4992 299.074 63.133 299.006 62.8221C298.938 62.5113 298.806 62.2712 298.609 62.102C298.415 61.9327 298.158 61.8481 297.838 61.8481C297.515 61.8481 297.229 61.9358 296.979 62.1112C296.733 62.2866 296.528 62.5298 296.365 62.8406C296.205 63.1514 296.091 63.5115 296.024 63.9209C295.956 64.3333 295.951 64.698 296.01 65.015C296.068 65.3289 296.193 65.5751 296.384 65.7536C296.575 65.929 296.832 66.0167 297.155 66.0167ZM310.023 60.3754L309.843 61.4834H305.97L306.15 60.3754H310.023ZM307.466 58.6765H308.846L307.729 65.3843C307.686 65.652 307.693 65.8536 307.752 65.989C307.81 66.1214 307.9 66.2122 308.02 66.2614C308.143 66.3076 308.28 66.3307 308.43 66.3307C308.541 66.3307 308.638 66.323 308.721 66.3076C308.804 66.2922 308.871 66.2799 308.92 66.2706L308.994 67.4109C308.901 67.4417 308.777 67.4725 308.62 67.5032C308.466 67.5371 308.278 67.5556 308.057 67.5586C307.693 67.5648 307.366 67.5002 307.073 67.3647C306.781 67.2263 306.562 67.017 306.418 66.7369C306.273 66.4538 306.238 66.0983 306.312 65.6705L307.466 58.6765ZM313.311 67.6094C312.637 67.6094 312.074 67.4555 311.622 67.1478C311.169 66.8369 310.851 66.403 310.666 65.8459C310.484 65.2858 310.454 64.6349 310.574 63.8932C310.691 63.1668 310.926 62.5328 311.28 61.9912C311.637 61.4495 312.083 61.0294 312.619 60.7309C313.157 60.4323 313.756 60.2831 314.415 60.2831C315.089 60.2831 315.65 60.4385 316.1 60.7493C316.552 61.0602 316.871 61.4957 317.055 62.0558C317.24 62.6159 317.272 63.2684 317.152 64.0132C317.035 64.7334 316.797 65.3643 316.437 65.9059C316.08 66.4445 315.633 66.8631 315.098 67.1616C314.562 67.4602 313.967 67.6094 313.311 67.6094ZM313.39 66.4507C313.833 66.4507 314.219 66.3337 314.548 66.0998C314.881 65.8659 315.152 65.5551 315.361 65.1673C315.57 64.7795 315.713 64.3548 315.79 63.8932C315.861 63.4469 315.86 63.0391 315.786 62.6698C315.715 62.2974 315.561 61.9989 315.324 61.7742C315.087 61.5495 314.758 61.4372 314.336 61.4372C313.893 61.4372 313.504 61.5557 313.168 61.7927C312.836 62.0266 312.565 62.3389 312.356 62.7298C312.149 63.1207 312.009 63.5469 311.936 64.0086C311.865 64.4517 311.865 64.8595 311.936 65.2319C312.006 65.6013 312.16 65.8967 312.397 66.1183C312.634 66.3399 312.965 66.4507 313.39 66.4507ZM50.8668 88.2731C50.3005 88.2731 49.8266 88.1993 49.445 88.0515C49.0664 87.9038 48.7679 87.7084 48.5494 87.4652C48.3339 87.2221 48.1847 86.9559 48.1016 86.6666L49.3757 86.1772C49.4373 86.3127 49.5234 86.4558 49.6342 86.6066C49.745 86.7605 49.9097 86.8913 50.1282 86.999C50.3498 87.1067 50.6529 87.1606 51.0376 87.1606C51.5608 87.1606 52.0179 87.0328 52.4087 86.7774C52.7996 86.525 53.0412 86.1218 53.1335 85.5679L53.3505 84.1737H53.2628C53.1581 84.3245 53.0135 84.4922 52.8288 84.6769C52.6442 84.8616 52.4057 85.0216 52.1133 85.157C51.8209 85.2924 51.4577 85.3601 51.0238 85.3601C50.4637 85.3601 49.9805 85.2293 49.5742 84.9677C49.171 84.7031 48.8817 84.3137 48.7063 83.7998C48.5309 83.2827 48.5063 82.6472 48.6325 81.8932C48.7556 81.1391 48.9895 80.4928 49.3342 79.9542C49.6819 79.4156 50.1036 79.0032 50.5991 78.717C51.0977 78.4277 51.6316 78.2831 52.201 78.2831C52.6411 78.2831 52.9843 78.3569 53.2305 78.5047C53.4798 78.6493 53.6644 78.8186 53.7844 79.0125C53.9045 79.2064 53.9922 79.3772 54.0476 79.5249H54.1491L54.3384 78.3754H55.6911L54.4908 85.6233C54.3923 86.2326 54.1692 86.7328 53.8214 87.1236C53.4767 87.5145 53.0473 87.8038 52.5334 87.9915C52.0225 88.1793 51.467 88.2731 50.8668 88.2731ZM51.4947 84.2152C51.8886 84.2152 52.2395 84.1229 52.5472 83.9383C52.8581 83.7505 53.1166 83.4828 53.3228 83.135C53.529 82.7841 53.6721 82.364 53.7521 81.8747C53.8321 81.3977 53.8275 80.9776 53.7383 80.6144C53.6521 80.2512 53.4844 79.9681 53.2351 79.765C52.9889 79.5588 52.6673 79.4557 52.2702 79.4557C51.8517 79.4557 51.4885 79.5634 51.1808 79.7788C50.873 79.9912 50.6222 80.2805 50.4283 80.6467C50.2375 81.0129 50.1036 81.4223 50.0266 81.8747C49.9528 82.3394 49.9543 82.7472 50.0312 83.0981C50.1113 83.4489 50.2713 83.7228 50.5114 83.9198C50.7514 84.1168 51.0792 84.2152 51.4947 84.2152ZM56.3604 85.4663L57.5423 78.3754H58.9226L57.7408 85.4663H56.3604ZM58.521 77.2674C58.2809 77.2674 58.0778 77.1874 57.9116 77.0274C57.7485 76.8643 57.6731 76.6704 57.6854 76.4457C57.6977 76.218 57.7931 76.0241 57.9716 75.864C58.1501 75.7009 58.3578 75.6194 58.5948 75.6194C58.8349 75.6194 59.0365 75.7009 59.1996 75.864C59.3627 76.0241 59.4396 76.218 59.4304 76.4457C59.4181 76.6704 59.3227 76.8643 59.1442 77.0274C58.9688 77.1874 58.761 77.2674 58.521 77.2674ZM66.8456 78.3754L63.0924 85.4663H61.6151L60.221 78.3754H61.6475L62.5338 83.8321H62.6077L65.3083 78.3754H66.8456ZM69.7575 85.6094C69.0619 85.6094 68.4864 85.4602 68.0309 85.1616C67.5785 84.86 67.2615 84.4368 67.0799 83.8921C66.8983 83.3443 66.8691 82.7026 66.9922 81.967C67.1122 81.2407 67.3538 80.6005 67.717 80.0466C68.0801 79.4926 68.5326 79.0602 69.0742 78.7493C69.619 78.4385 70.2206 78.2831 70.8793 78.2831C71.2794 78.2831 71.6564 78.3492 72.0103 78.4816C72.3673 78.6139 72.6705 78.8217 72.9197 79.1048C73.169 79.3879 73.3414 79.7557 73.4368 80.2081C73.5353 80.6575 73.5322 81.2038 73.4276 81.847L73.3491 82.3363H67.7077L67.8693 81.3022H72.1534C72.218 80.9391 72.2011 80.6175 72.1026 80.3374C72.0041 80.0543 71.8349 79.8311 71.5948 79.668C71.3578 79.5049 71.0593 79.4233 70.6992 79.4233C70.3299 79.4233 69.9852 79.5203 69.6651 79.7142C69.3451 79.9081 69.0773 80.1558 68.8619 80.4574C68.6495 80.756 68.5156 81.0637 68.4602 81.3807L68.2987 82.3271C68.2186 82.8441 68.2325 83.2596 68.3402 83.5736C68.451 83.8875 68.6449 84.1152 68.9219 84.2568C69.1989 84.3984 69.5451 84.4691 69.9606 84.4691C70.2283 84.4691 70.4761 84.4322 70.7038 84.3584C70.9347 84.2814 71.1393 84.1691 71.3178 84.0214C71.4963 83.8705 71.6456 83.6828 71.7656 83.4581L73.0305 83.6936C72.8613 84.0783 72.6181 84.4153 72.3011 84.7046C71.9841 84.9908 71.6102 85.2139 71.1793 85.374C70.7515 85.5309 70.2776 85.6094 69.7575 85.6094ZM77.8201 85.4663L79.002 78.3754H80.3269L80.133 79.5295H80.2207C80.4361 79.1387 80.7285 78.834 81.0978 78.6155C81.4702 78.3939 81.8919 78.2831 82.3627 78.2831C82.8306 78.2831 83.2076 78.3939 83.4938 78.6155C83.7831 78.837 83.9724 79.1417 84.0616 79.5295H84.1355C84.3632 79.1479 84.6818 78.8447 85.0911 78.6201C85.5004 78.3954 85.9605 78.2831 86.4714 78.2831C87.1085 78.2831 87.5978 78.4862 87.9395 78.8924C88.2842 79.2956 88.3888 79.9019 88.2534 80.7113L87.4593 85.4663H86.0744L86.85 80.8406C86.9269 80.3574 86.853 80.0096 86.6284 79.7973C86.4037 79.5818 86.1098 79.4741 85.7466 79.4741C85.2973 79.4741 84.9249 79.6126 84.6294 79.8896C84.334 80.1635 84.1524 80.5159 84.0847 80.9468L83.323 85.4663H81.9519L82.7413 80.7529C82.8029 80.3651 82.7321 80.0558 82.5289 79.825C82.3289 79.5911 82.0365 79.4741 81.6518 79.4741C81.3902 79.4741 81.1363 79.5434 80.8901 79.6819C80.647 79.8204 80.4392 80.0112 80.2669 80.2543C80.0945 80.4974 79.9822 80.7775 79.9299 81.0945L79.2005 85.4663H77.8201ZM92.3424 85.6094C91.6469 85.6094 91.0713 85.4602 90.6159 85.1616C90.1634 84.86 89.8464 84.4368 89.6649 83.8921C89.4833 83.3443 89.454 82.7026 89.5771 81.967C89.6972 81.2407 89.9388 80.6005 90.3019 80.0466C90.6651 79.4926 91.1175 79.0602 91.6592 78.7493C92.2039 78.4385 92.8056 78.2831 93.4642 78.2831C93.8643 78.2831 94.2413 78.3492 94.5953 78.4816C94.9523 78.6139 95.2554 78.8217 95.5047 79.1048C95.754 79.3879 95.9263 79.7557 96.0218 80.2081C96.1202 80.6575 96.1172 81.2038 96.0125 81.847L95.934 82.3363H90.2927L90.4543 81.3022H94.7384C94.803 80.9391 94.7861 80.6175 94.6876 80.3374C94.5891 80.0543 94.4198 79.8311 94.1798 79.668C93.9428 79.5049 93.6443 79.4233 93.2842 79.4233C92.9149 79.4233 92.5702 79.5203 92.2501 79.7142C91.93 79.9081 91.6623 80.1558 91.4468 80.4574C91.2345 80.756 91.1006 81.0637 91.0452 81.3807L90.8836 82.3271C90.8036 82.8441 90.8174 83.2596 90.9252 83.5736C91.036 83.8875 91.2298 84.1152 91.5068 84.2568C91.7838 84.3984 92.1301 84.4691 92.5455 84.4691C92.8133 84.4691 93.0611 84.4322 93.2888 84.3584C93.5196 84.2814 93.7243 84.1691 93.9028 84.0214C94.0813 83.8705 94.2306 83.6828 94.3506 83.4581L95.6155 83.6936C95.4462 84.0783 95.2031 84.4153 94.8861 84.7046C94.5691 84.9908 94.1952 85.2139 93.7643 85.374C93.3365 85.5309 92.8625 85.6094 92.3424 85.6094ZM103.369 85.6094C102.679 85.6094 102.115 85.454 101.675 85.1432C101.235 84.8292 100.928 84.3968 100.756 83.8459C100.584 83.295 100.556 82.6641 100.673 81.9532C100.79 81.233 101.028 80.5975 101.388 80.0466C101.752 79.4926 102.206 79.0602 102.75 78.7493C103.298 78.4385 103.906 78.2831 104.574 78.2831C105.112 78.2831 105.576 78.3831 105.963 78.5831C106.351 78.7801 106.645 79.0571 106.845 79.4141C107.045 79.7711 107.131 80.1881 107.104 80.6652H105.76C105.739 80.3328 105.616 80.0466 105.391 79.8065C105.166 79.5665 104.835 79.4464 104.398 79.4464C104.014 79.4464 103.66 79.548 103.337 79.7511C103.013 79.9512 102.741 80.2374 102.519 80.6098C102.298 80.9791 102.147 81.4161 102.067 81.9209C101.981 82.4379 101.985 82.8842 102.081 83.2596C102.176 83.6351 102.352 83.9259 102.607 84.1321C102.863 84.3383 103.184 84.4415 103.572 84.4415C103.837 84.4415 104.083 84.3937 104.311 84.2983C104.541 84.1999 104.745 84.0598 104.92 83.8782C105.099 83.6967 105.237 83.4781 105.335 83.2227H106.684C106.551 83.6813 106.33 84.0906 106.019 84.4507C105.711 84.8108 105.332 85.0939 104.883 85.3001C104.434 85.5063 103.929 85.6094 103.369 85.6094ZM110.796 85.6094C110.122 85.6094 109.558 85.4555 109.106 85.1478C108.654 84.8369 108.335 84.403 108.15 83.8459C107.969 83.2858 107.938 82.6349 108.058 81.8932C108.175 81.1668 108.41 80.5328 108.764 79.9912C109.121 79.4495 109.568 79.0294 110.103 78.7309C110.642 78.4323 111.24 78.2831 111.899 78.2831C112.573 78.2831 113.135 78.4385 113.584 78.7493C114.036 79.0602 114.355 79.4957 114.54 80.0558C114.724 80.6159 114.757 81.2684 114.637 82.0132C114.52 82.7334 114.281 83.3643 113.921 83.9059C113.564 84.4445 113.118 84.8631 112.582 85.1616C112.047 85.4602 111.451 85.6094 110.796 85.6094ZM110.874 84.4507C111.317 84.4507 111.704 84.3337 112.033 84.0998C112.365 83.8659 112.636 83.5551 112.845 83.1673C113.055 82.7795 113.198 82.3548 113.275 81.8932C113.345 81.4469 113.344 81.0391 113.27 80.6698C113.199 80.2974 113.045 79.9989 112.808 79.7742C112.571 79.5495 112.242 79.4372 111.82 79.4372C111.377 79.4372 110.988 79.5557 110.653 79.7927C110.32 80.0266 110.049 80.3389 109.84 80.7298C109.634 81.1207 109.494 81.5469 109.42 82.0086C109.349 82.4517 109.349 82.8595 109.42 83.2319C109.491 83.6013 109.645 83.8967 109.882 84.1183C110.119 84.3399 110.449 84.4507 110.874 84.4507ZM118.629 85.6094C117.955 85.6094 117.391 85.4555 116.939 85.1478C116.487 84.8369 116.168 84.403 115.983 83.8459C115.802 83.2858 115.771 82.6349 115.891 81.8932C116.008 81.1668 116.243 80.5328 116.597 79.9912C116.954 79.4495 117.401 79.0294 117.936 78.7309C118.475 78.4323 119.073 78.2831 119.732 78.2831C120.406 78.2831 120.968 78.4385 121.417 78.7493C121.869 79.0602 122.188 79.4957 122.373 80.0558C122.557 80.6159 122.59 81.2684 122.47 82.0132C122.353 82.7334 122.114 83.3643 121.754 83.9059C121.397 84.4445 120.951 84.8631 120.415 85.1616C119.88 85.4602 119.284 85.6094 118.629 85.6094ZM118.707 84.4507C119.15 84.4507 119.537 84.3337 119.866 84.0998C120.198 83.8659 120.469 83.5551 120.678 83.1673C120.888 82.7795 121.031 82.3548 121.108 81.8932C121.178 81.4469 121.177 81.0391 121.103 80.6698C121.032 80.2974 120.878 79.9989 120.641 79.7742C120.404 79.5495 120.075 79.4372 119.653 79.4372C119.21 79.4372 118.821 79.5557 118.486 79.7927C118.153 80.0266 117.882 80.3389 117.673 80.7298C117.467 81.1207 117.327 81.5469 117.253 82.0086C117.182 82.4517 117.182 82.8595 117.253 83.2319C117.324 83.6013 117.478 83.8967 117.715 84.1183C117.952 84.3399 118.282 84.4507 118.707 84.4507ZM125.109 83.0611L125.372 81.3761H125.617L128.95 78.3754H130.603L126.817 81.7916H126.6L125.109 83.0611ZM123.442 85.4663L125.012 76.0118H126.392L124.823 85.4663H123.442ZM127.92 85.4663L125.945 82.0963L127.048 81.1314L129.615 85.4663H127.92ZM130.679 85.4663L131.861 78.3754H133.241L132.059 85.4663H130.679ZM132.839 77.2674C132.599 77.2674 132.396 77.1874 132.23 77.0274C132.067 76.8643 131.991 76.6704 132.004 76.4457C132.016 76.218 132.111 76.0241 132.29 75.864C132.468 75.7009 132.676 75.6194 132.913 75.6194C133.153 75.6194 133.355 75.7009 133.518 75.864C133.681 76.0241 133.758 76.218 133.749 76.4457C133.736 76.6704 133.641 76.8643 133.463 77.0274C133.287 77.1874 133.079 77.2674 132.839 77.2674ZM135.994 81.2561L135.301 85.4663H133.921L135.103 78.3754H136.427L136.234 79.5295H136.321C136.546 79.151 136.852 78.8494 137.24 78.6247C137.631 78.3969 138.092 78.2831 138.625 78.2831C139.105 78.2831 139.508 78.3846 139.834 78.5878C140.164 78.7878 140.396 79.0863 140.532 79.4834C140.67 79.8804 140.692 80.3713 140.596 80.956L139.839 85.4663H138.459L139.184 81.1222C139.267 80.6082 139.199 80.2066 138.98 79.9173C138.765 79.6249 138.422 79.4787 137.951 79.4787C137.631 79.4787 137.334 79.548 137.06 79.6865C136.789 79.825 136.56 80.0281 136.372 80.2959C136.187 80.5605 136.061 80.8806 135.994 81.2561ZM144.215 88.2731C143.649 88.2731 143.175 88.1993 142.794 88.0515C142.415 87.9038 142.117 87.7084 141.898 87.4652C141.683 87.2221 141.533 86.9559 141.45 86.6666L142.724 86.1772C142.786 86.3127 142.872 86.4558 142.983 86.6066C143.094 86.7605 143.258 86.8913 143.477 86.999C143.698 87.1067 144.002 87.1606 144.386 87.1606C144.909 87.1606 145.367 87.0328 145.757 86.7774C146.148 86.525 146.39 86.1218 146.482 85.5679L146.699 84.1737H146.611C146.507 84.3245 146.362 84.4922 146.177 84.6769C145.993 84.8616 145.754 85.0216 145.462 85.157C145.17 85.2924 144.806 85.3601 144.372 85.3601C143.812 85.3601 143.329 85.2293 142.923 84.9677C142.52 84.7031 142.23 84.3137 142.055 83.7998C141.88 83.2827 141.855 82.6472 141.981 81.8932C142.104 81.1391 142.338 80.4928 142.683 79.9542C143.031 79.4156 143.452 79.0032 143.948 78.717C144.446 78.4277 144.98 78.2831 145.55 78.2831C145.99 78.2831 146.333 78.3569 146.579 78.5047C146.828 78.6493 147.013 78.8186 147.133 79.0125C147.253 79.2064 147.341 79.3772 147.396 79.5249H147.498L147.687 78.3754H149.04L147.839 85.6233C147.741 86.2326 147.518 86.7328 147.17 87.1236C146.825 87.5145 146.396 87.8038 145.882 87.9915C145.371 88.1793 144.816 88.2731 144.215 88.2731ZM144.843 84.2152C145.237 84.2152 145.588 84.1229 145.896 83.9383C146.207 83.7505 146.465 83.4828 146.671 83.135C146.878 82.7841 147.021 82.364 147.101 81.8747C147.181 81.3977 147.176 80.9776 147.087 80.6144C147.001 80.2512 146.833 79.9681 146.584 79.765C146.338 79.5588 146.016 79.4557 145.619 79.4557C145.2 79.4557 144.837 79.5634 144.529 79.7788C144.222 79.9912 143.971 80.2805 143.777 80.6467C143.586 81.0129 143.452 81.4223 143.375 81.8747C143.301 82.3394 143.303 82.7472 143.38 83.0981C143.46 83.4489 143.62 83.7228 143.86 83.9198C144.1 84.1168 144.428 84.2152 144.843 84.2152ZM155.195 85.6233C154.745 85.6233 154.353 85.5402 154.017 85.374C153.682 85.2047 153.434 84.96 153.274 84.64C153.114 84.3199 153.073 83.9275 153.15 83.4628C153.217 83.0627 153.35 82.7334 153.547 82.4748C153.747 82.2163 153.99 82.0116 154.276 81.8608C154.562 81.707 154.873 81.5915 155.208 81.5146C155.544 81.4377 155.882 81.3807 156.224 81.3438C156.655 81.2946 157.004 81.253 157.272 81.2191C157.543 81.1853 157.746 81.133 157.881 81.0622C158.017 80.9883 158.098 80.8683 158.126 80.7021V80.6698C158.191 80.2697 158.132 79.9589 157.951 79.7373C157.772 79.5126 157.461 79.4003 157.018 79.4003C156.556 79.4003 156.169 79.5018 155.855 79.7049C155.544 79.9081 155.315 80.1358 155.167 80.3882L153.93 80.0927C154.151 79.6619 154.433 79.3141 154.775 79.0494C155.119 78.7816 155.496 78.5878 155.906 78.4677C156.315 78.3446 156.733 78.2831 157.161 78.2831C157.444 78.2831 157.738 78.3169 158.043 78.3846C158.348 78.4493 158.625 78.5693 158.874 78.7447C159.126 78.9201 159.314 79.171 159.437 79.4972C159.56 79.8204 159.579 80.2405 159.493 80.7575L158.712 85.4663H157.364L157.531 84.4968H157.475C157.358 84.6754 157.195 84.8508 156.986 85.0231C156.78 85.1955 156.527 85.3386 156.229 85.4525C155.93 85.5663 155.585 85.6233 155.195 85.6233ZM155.665 84.5153C156.05 84.5153 156.39 84.4399 156.686 84.2891C156.984 84.1383 157.226 83.9413 157.411 83.6982C157.595 83.452 157.711 83.1888 157.757 82.9088L157.909 81.9947C157.851 82.044 157.748 82.0886 157.6 82.1286C157.455 82.1686 157.292 82.204 157.11 82.2348C156.929 82.2656 156.75 82.2917 156.575 82.3133C156.403 82.3348 156.259 82.3548 156.146 82.3733C155.875 82.4071 155.621 82.4641 155.384 82.5441C155.15 82.6241 154.955 82.7395 154.798 82.8903C154.641 83.038 154.542 83.235 154.502 83.4812C154.447 83.8228 154.528 84.0814 154.747 84.2568C154.968 84.4291 155.275 84.5153 155.665 84.5153ZM163.196 85.6048C162.621 85.6048 162.133 85.4586 161.733 85.1662C161.336 84.8708 161.054 84.4507 160.888 83.9059C160.725 83.3581 160.706 82.701 160.832 81.9347C160.962 81.1684 161.2 80.5128 161.548 79.9681C161.896 79.4233 162.317 79.0063 162.813 78.717C163.308 78.4277 163.842 78.2831 164.415 78.2831C164.855 78.2831 165.197 78.3569 165.44 78.5047C165.686 78.6493 165.868 78.8186 165.984 79.0125C166.101 79.2064 166.189 79.3772 166.248 79.5249H166.326L166.912 76.0118H168.293L166.723 85.4663H165.375L165.564 84.363H165.449C165.341 84.5138 165.192 84.6861 165.001 84.88C164.813 85.0739 164.573 85.2432 164.281 85.3878C163.989 85.5325 163.627 85.6048 163.196 85.6048ZM163.662 84.4276C164.059 84.4276 164.415 84.323 164.729 84.1137C165.046 83.9013 165.309 83.6074 165.518 83.2319C165.731 82.8565 165.878 82.4194 165.961 81.9209C166.044 81.4284 166.043 80.9976 165.957 80.6282C165.871 80.2589 165.704 79.9712 165.458 79.765C165.212 79.5588 164.887 79.4557 164.484 79.4557C164.069 79.4557 163.707 79.5634 163.399 79.7788C163.091 79.9942 162.839 80.2882 162.642 80.6606C162.448 81.033 162.313 81.4531 162.236 81.9209C162.156 82.3948 162.153 82.8211 162.227 83.1996C162.301 83.5782 162.456 83.8782 162.693 84.0998C162.93 84.3183 163.253 84.4276 163.662 84.4276ZM175.936 78.3754L172.183 85.4663H170.706L169.312 78.3754H170.738L171.625 83.8321H171.699L174.399 78.3754H175.936ZM176.052 85.4663L177.234 78.3754H178.614L177.432 85.4663H176.052ZM178.212 77.2674C177.972 77.2674 177.769 77.1874 177.603 77.0274C177.44 76.8643 177.364 76.6704 177.377 76.4457C177.389 76.218 177.484 76.0241 177.663 75.864C177.842 75.7009 178.049 75.6194 178.286 75.6194C178.526 75.6194 178.728 75.7009 178.891 75.864C179.054 76.0241 179.131 76.218 179.122 76.4457C179.109 76.6704 179.014 76.8643 178.836 77.0274C178.66 77.1874 178.452 77.2674 178.212 77.2674ZM182.258 85.6094C181.568 85.6094 181.003 85.454 180.563 85.1432C180.123 84.8292 179.817 84.3968 179.645 83.8459C179.472 83.295 179.445 82.6641 179.562 81.9532C179.678 81.233 179.917 80.5975 180.277 80.0466C180.64 79.4926 181.094 79.0602 181.639 78.7493C182.187 78.4385 182.795 78.2831 183.462 78.2831C184.001 78.2831 184.464 78.3831 184.852 78.5831C185.24 78.7801 185.534 79.0571 185.734 79.4141C185.934 79.7711 186.02 80.1881 185.992 80.6652H184.649C184.627 80.3328 184.504 80.0466 184.28 79.8065C184.055 79.5665 183.724 79.4464 183.287 79.4464C182.902 79.4464 182.548 79.548 182.225 79.7511C181.902 79.9512 181.63 80.2374 181.408 80.6098C181.187 80.9791 181.036 81.4161 180.956 81.9209C180.87 82.4379 180.874 82.8842 180.97 83.2596C181.065 83.6351 181.24 83.9259 181.496 84.1321C181.751 84.3383 182.073 84.4415 182.461 84.4415C182.725 84.4415 182.972 84.3937 183.199 84.2983C183.43 84.1999 183.633 84.0598 183.809 83.8782C183.987 83.6967 184.126 83.4781 184.224 83.2227H185.572C185.44 83.6813 185.218 84.0906 184.907 84.4507C184.6 84.8108 184.221 85.0939 183.772 85.3001C183.322 85.5063 182.818 85.6094 182.258 85.6094ZM189.703 85.6094C189.007 85.6094 188.432 85.4602 187.976 85.1616C187.524 84.86 187.207 84.4368 187.025 83.8921C186.844 83.3443 186.814 82.7026 186.938 81.967C187.058 81.2407 187.299 80.6005 187.662 80.0466C188.025 79.4926 188.478 79.0602 189.02 78.7493C189.564 78.4385 190.166 78.2831 190.825 78.2831C191.225 78.2831 191.602 78.3492 191.956 78.4816C192.313 78.6139 192.616 78.8217 192.865 79.1048C193.114 79.3879 193.287 79.7557 193.382 80.2081C193.481 80.6575 193.478 81.2038 193.373 81.847L193.294 82.3363H187.653L187.815 81.3022H192.099C192.163 80.9391 192.146 80.6175 192.048 80.3374C191.949 80.0543 191.78 79.8311 191.54 79.668C191.303 79.5049 191.005 79.4233 190.645 79.4233C190.275 79.4233 189.931 79.5203 189.61 79.7142C189.29 79.9081 189.023 80.1558 188.807 80.4574C188.595 80.756 188.461 81.0637 188.406 81.3807L188.244 82.3271C188.164 82.8441 188.178 83.2596 188.286 83.5736C188.396 83.8875 188.59 84.1152 188.867 84.2568C189.144 84.3984 189.49 84.4691 189.906 84.4691C190.174 84.4691 190.421 84.4322 190.649 84.3584C190.88 84.2814 191.085 84.1691 191.263 84.0214C191.442 83.8705 191.591 83.6828 191.711 83.4581L192.976 83.6936C192.807 84.0783 192.563 84.4153 192.246 84.7046C191.929 84.9908 191.556 85.2139 191.125 85.374C190.697 85.5309 190.223 85.6094 189.703 85.6094ZM195.345 85.554C195.087 85.554 194.871 85.4648 194.699 85.2863C194.53 85.1078 194.447 84.8892 194.45 84.6307C194.453 84.3753 194.548 84.1614 194.736 83.989C194.927 83.8136 195.148 83.7259 195.401 83.7259C195.653 83.7259 195.868 83.8151 196.047 83.9937C196.225 84.1722 196.309 84.3845 196.296 84.6307C196.287 84.8031 196.238 84.96 196.149 85.1016C196.062 85.2401 195.948 85.3509 195.807 85.434C195.665 85.514 195.511 85.554 195.345 85.554ZM199.831 76.0118L199.693 76.8981C199.65 77.1597 199.554 77.4352 199.407 77.7245C199.262 78.0107 199.079 78.2861 198.857 78.5508C198.639 78.8155 198.397 79.0432 198.132 79.2341L197.523 78.7447C197.748 78.48 197.951 78.1984 198.132 77.8999C198.314 77.6014 198.436 77.2721 198.497 76.912L198.65 76.0118H199.831ZM202.181 76.0118L202.043 76.8981C202 77.1597 201.904 77.4352 201.756 77.7245C201.612 78.0107 201.429 78.2861 201.207 78.5508C200.989 78.8155 200.745 79.0432 200.478 79.2341L199.868 78.7447C200.093 78.48 200.296 78.1984 200.478 77.8999C200.662 77.6014 200.785 77.2721 200.847 76.912L200.999 76.0118H202.181Z" fill="#29322A"/>
<g opacity="0.5">
<path d="M189.224 107.372L189.075 108.292H179.075L179.224 107.372H189.224ZM191.991 111.466L193.198 104.194H197.708L197.552 105.138H194.139L193.77 107.354H196.86L196.703 108.295H193.614L193.088 111.466H191.991ZM199.701 111.576C199.166 111.576 198.724 111.462 198.373 111.232C198.025 111 197.781 110.674 197.642 110.255C197.502 109.834 197.48 109.34 197.574 108.775C197.667 108.216 197.852 107.723 198.132 107.297C198.411 106.871 198.759 106.539 199.176 106.299C199.595 106.06 200.058 105.941 200.564 105.941C200.872 105.941 201.162 105.992 201.434 106.093C201.709 106.195 201.942 106.355 202.134 106.573C202.326 106.791 202.458 107.074 202.532 107.422C202.607 107.767 202.605 108.187 202.525 108.682L202.464 109.059H198.125L198.249 108.263H201.544C201.594 107.984 201.581 107.736 201.505 107.521C201.43 107.303 201.299 107.132 201.115 107.006C200.932 106.881 200.703 106.818 200.426 106.818C200.142 106.818 199.877 106.892 199.63 107.042C199.384 107.191 199.178 107.381 199.012 107.613C198.849 107.843 198.746 108.08 198.703 108.324L198.579 109.052C198.518 109.449 198.528 109.769 198.611 110.01C198.696 110.252 198.846 110.427 199.059 110.536C199.272 110.645 199.538 110.699 199.858 110.699C200.064 110.699 200.254 110.671 200.429 110.614C200.607 110.555 200.764 110.468 200.902 110.355C201.039 110.239 201.154 110.094 201.246 109.922L202.219 110.103C202.089 110.399 201.902 110.658 201.658 110.88C201.414 111.101 201.127 111.272 200.795 111.395C200.466 111.516 200.101 111.576 199.701 111.576ZM203.257 111.466L204.166 106.012H205.185L205.036 106.9H205.104C205.269 106.599 205.494 106.365 205.778 106.196C206.065 106.026 206.389 105.941 206.751 105.941C207.111 105.941 207.401 106.026 207.621 106.196C207.844 106.367 207.989 106.601 208.058 106.9H208.115C208.29 106.606 208.535 106.373 208.85 106.2C209.165 106.027 209.519 105.941 209.912 105.941C210.402 105.941 210.778 106.097 211.041 106.409C211.306 106.72 211.387 107.186 211.282 107.809L210.672 111.466H209.606L210.203 107.908C210.262 107.536 210.205 107.269 210.032 107.106C209.86 106.94 209.634 106.857 209.354 106.857C209.009 106.857 208.722 106.963 208.495 107.177C208.268 107.387 208.128 107.658 208.076 107.99L207.49 111.466H206.435L207.042 107.841C207.09 107.542 207.035 107.304 206.879 107.127C206.725 106.947 206.5 106.857 206.204 106.857C206.003 106.857 205.808 106.91 205.618 107.017C205.431 107.123 205.272 107.27 205.139 107.457C205.006 107.644 204.92 107.86 204.88 108.103L204.319 111.466H203.257ZM213.664 111.587C213.319 111.587 213.017 111.523 212.759 111.395C212.501 111.265 212.31 111.077 212.187 110.831C212.064 110.584 212.032 110.283 212.091 109.925C212.143 109.617 212.245 109.364 212.397 109.165C212.551 108.966 212.738 108.809 212.958 108.693C213.178 108.574 213.417 108.486 213.675 108.427C213.933 108.367 214.194 108.324 214.456 108.295C214.788 108.257 215.056 108.225 215.262 108.199C215.471 108.173 215.627 108.133 215.731 108.079C215.835 108.022 215.898 107.929 215.919 107.802V107.777C215.969 107.469 215.924 107.23 215.784 107.059C215.647 106.887 215.408 106.8 215.067 106.8C214.712 106.8 214.414 106.878 214.172 107.034C213.933 107.191 213.757 107.366 213.643 107.56L212.691 107.333C212.862 107.001 213.078 106.734 213.341 106.53C213.606 106.324 213.896 106.175 214.211 106.083C214.526 105.988 214.848 105.941 215.177 105.941C215.395 105.941 215.621 105.967 215.855 106.019C216.09 106.069 216.303 106.161 216.495 106.296C216.689 106.431 216.833 106.624 216.928 106.875C217.023 107.123 217.037 107.446 216.971 107.844L216.37 111.466H215.333L215.461 110.721H215.419C215.329 110.858 215.203 110.993 215.042 111.125C214.884 111.258 214.69 111.368 214.46 111.456C214.23 111.543 213.965 111.587 213.664 111.587ZM214.027 110.735C214.323 110.735 214.584 110.677 214.811 110.561C215.041 110.445 215.227 110.293 215.369 110.106C215.511 109.917 215.6 109.714 215.635 109.499L215.752 108.796C215.708 108.834 215.628 108.868 215.515 108.899C215.403 108.93 215.278 108.957 215.138 108.981C214.998 109.004 214.861 109.024 214.726 109.041C214.594 109.057 214.484 109.073 214.396 109.087C214.188 109.113 213.992 109.157 213.81 109.218C213.63 109.28 213.48 109.369 213.359 109.485C213.238 109.598 213.163 109.75 213.132 109.939C213.089 110.202 213.152 110.401 213.32 110.536C213.49 110.668 213.726 110.735 214.027 110.735ZM220.054 104.194L218.846 111.466H217.785L218.992 104.194H220.054ZM222.612 111.576C222.076 111.576 221.634 111.462 221.283 111.232C220.935 111 220.692 110.674 220.552 110.255C220.412 109.834 220.39 109.34 220.484 108.775C220.577 108.216 220.763 107.723 221.042 107.297C221.321 106.871 221.669 106.539 222.086 106.299C222.505 106.06 222.968 105.941 223.474 105.941C223.782 105.941 224.072 105.992 224.344 106.093C224.619 106.195 224.852 106.355 225.044 106.573C225.236 106.791 225.368 107.074 225.442 107.422C225.518 107.767 225.515 108.187 225.435 108.682L225.374 109.059H221.035L221.159 108.263H224.455C224.504 107.984 224.491 107.736 224.415 107.521C224.34 107.303 224.21 107.132 224.025 107.006C223.843 106.881 223.613 106.818 223.336 106.818C223.052 106.818 222.787 106.892 222.54 107.042C222.294 107.191 222.088 107.381 221.923 107.613C221.759 107.843 221.656 108.08 221.614 108.324L221.489 109.052C221.428 109.449 221.438 109.769 221.521 110.01C221.607 110.252 221.756 110.427 221.969 110.536C222.182 110.645 222.448 110.699 222.768 110.699C222.974 110.699 223.164 110.671 223.339 110.614C223.517 110.555 223.674 110.468 223.812 110.355C223.949 110.239 224.064 110.094 224.156 109.922L225.129 110.103C224.999 110.399 224.812 110.658 224.568 110.88C224.324 111.101 224.037 111.272 223.705 111.395C223.376 111.516 223.012 111.576 222.612 111.576ZM230.383 111.587C230.038 111.587 229.736 111.523 229.478 111.395C229.22 111.265 229.029 111.077 228.906 110.831C228.783 110.584 228.751 110.283 228.81 109.925C228.862 109.617 228.964 109.364 229.115 109.165C229.269 108.966 229.456 108.809 229.676 108.693C229.897 108.574 230.136 108.486 230.394 108.427C230.652 108.367 230.912 108.324 231.175 108.295C231.507 108.257 231.775 108.225 231.981 108.199C232.19 108.173 232.346 108.133 232.45 108.079C232.554 108.022 232.617 107.929 232.638 107.802V107.777C232.688 107.469 232.643 107.23 232.503 107.059C232.366 106.887 232.127 106.8 231.786 106.8C231.431 106.8 231.132 106.878 230.891 107.034C230.652 107.191 230.475 107.366 230.362 107.56L229.41 107.333C229.581 107.001 229.797 106.734 230.06 106.53C230.325 106.324 230.615 106.175 230.93 106.083C231.245 105.988 231.567 105.941 231.896 105.941C232.114 105.941 232.34 105.967 232.574 106.019C232.809 106.069 233.022 106.161 233.213 106.296C233.408 106.431 233.552 106.624 233.647 106.875C233.741 107.123 233.756 107.446 233.689 107.844L233.089 111.466H232.052L232.18 110.721H232.137C232.047 110.858 231.922 110.993 231.761 111.125C231.602 111.258 231.408 111.368 231.179 111.456C230.949 111.543 230.684 111.587 230.383 111.587ZM230.745 110.735C231.041 110.735 231.303 110.677 231.53 110.561C231.76 110.445 231.946 110.293 232.088 110.106C232.23 109.917 232.319 109.714 232.354 109.499L232.471 108.796C232.426 108.834 232.347 108.868 232.233 108.899C232.122 108.93 231.997 108.957 231.857 108.981C231.717 109.004 231.58 109.024 231.445 109.041C231.312 109.057 231.202 109.073 231.115 109.087C230.906 109.113 230.711 109.157 230.529 109.218C230.349 109.28 230.199 109.369 230.078 109.485C229.957 109.598 229.881 109.75 229.85 109.939C229.808 110.202 229.871 110.401 230.039 110.536C230.209 110.668 230.445 110.735 230.745 110.735ZM236.449 113.625C236.014 113.625 235.649 113.569 235.356 113.455C235.064 113.341 234.835 113.191 234.667 113.004C234.501 112.817 234.386 112.612 234.322 112.39L235.302 112.013C235.35 112.117 235.416 112.227 235.501 112.343C235.586 112.462 235.713 112.562 235.881 112.645C236.052 112.728 236.285 112.77 236.581 112.77C236.983 112.77 237.335 112.671 237.635 112.475C237.936 112.281 238.122 111.971 238.193 111.544L238.36 110.472H238.292C238.212 110.588 238.101 110.717 237.959 110.859C237.817 111.001 237.633 111.124 237.408 111.228C237.183 111.333 236.904 111.385 236.57 111.385C236.139 111.385 235.768 111.284 235.455 111.083C235.145 110.879 234.922 110.58 234.787 110.184C234.653 109.787 234.634 109.298 234.731 108.718C234.825 108.138 235.005 107.641 235.27 107.226C235.538 106.812 235.862 106.495 236.243 106.275C236.627 106.052 237.038 105.941 237.476 105.941C237.814 105.941 238.078 105.998 238.268 106.111C238.459 106.222 238.601 106.353 238.694 106.502C238.786 106.651 238.854 106.782 238.896 106.896H238.974L239.12 106.012H240.16L239.237 111.587C239.161 112.056 238.99 112.441 238.722 112.741C238.457 113.042 238.127 113.264 237.731 113.409C237.338 113.553 236.911 113.625 236.449 113.625ZM236.932 110.504C237.235 110.504 237.505 110.433 237.742 110.291C237.981 110.146 238.18 109.941 238.339 109.673C238.497 109.403 238.607 109.08 238.669 108.704C238.73 108.337 238.727 108.013 238.658 107.734C238.592 107.455 238.463 107.237 238.271 107.081C238.082 106.922 237.834 106.843 237.529 106.843C237.207 106.843 236.928 106.926 236.691 107.091C236.454 107.255 236.261 107.477 236.112 107.759C235.965 108.041 235.862 108.356 235.803 108.704C235.746 109.061 235.747 109.375 235.807 109.645C235.868 109.914 235.991 110.125 236.176 110.277C236.361 110.428 236.613 110.504 236.932 110.504ZM243.012 111.576C242.477 111.576 242.034 111.462 241.684 111.232C241.336 111 241.092 110.674 240.952 110.255C240.813 109.834 240.79 109.34 240.885 108.775C240.977 108.216 241.163 107.723 241.442 107.297C241.722 106.871 242.07 106.539 242.486 106.299C242.905 106.06 243.368 105.941 243.875 105.941C244.183 105.941 244.473 105.992 244.745 106.093C245.019 106.195 245.253 106.355 245.444 106.573C245.636 106.791 245.769 107.074 245.842 107.422C245.918 107.767 245.916 108.187 245.835 108.682L245.775 109.059H241.435L241.559 108.263H244.855C244.905 107.984 244.892 107.736 244.816 107.521C244.74 107.303 244.61 107.132 244.425 107.006C244.243 106.881 244.013 106.818 243.736 106.818C243.452 106.818 243.187 106.892 242.941 107.042C242.695 107.191 242.489 107.381 242.323 107.613C242.16 107.843 242.057 108.08 242.014 108.324L241.89 109.052C241.828 109.449 241.839 109.769 241.922 110.01C242.007 110.252 242.156 110.427 242.369 110.536C242.582 110.645 242.849 110.699 243.168 110.699C243.374 110.699 243.565 110.671 243.74 110.614C243.917 110.555 244.075 110.468 244.212 110.355C244.349 110.239 244.464 110.094 244.557 109.922L245.53 110.103C245.399 110.399 245.212 110.658 244.969 110.88C244.725 111.101 244.437 111.272 244.106 111.395C243.777 111.516 243.412 111.576 243.012 111.576ZM251.771 111.566C251.274 111.566 250.844 111.483 250.482 111.317C250.119 111.149 249.85 110.915 249.672 110.614C249.497 110.313 249.436 109.965 249.491 109.57H250.588C250.565 109.783 250.6 109.969 250.695 110.128C250.792 110.286 250.935 110.408 251.124 110.493C251.314 110.579 251.54 110.621 251.803 110.621C252.089 110.621 252.356 110.57 252.602 110.468C252.85 110.367 253.057 110.222 253.223 110.035C253.391 109.846 253.494 109.624 253.532 109.371C253.568 109.137 253.54 108.932 253.45 108.757C253.36 108.579 253.208 108.441 252.992 108.341C252.777 108.242 252.501 108.192 252.165 108.192H251.529L251.678 107.297H252.261C252.533 107.297 252.782 107.246 253.007 107.145C253.234 107.043 253.423 106.9 253.575 106.715C253.726 106.53 253.821 106.315 253.859 106.069C253.897 105.856 253.883 105.671 253.816 105.515C253.75 105.356 253.636 105.233 253.475 105.145C253.317 105.055 253.113 105.01 252.865 105.01C252.625 105.01 252.391 105.054 252.161 105.142C251.932 105.227 251.736 105.35 251.575 105.511C251.414 105.67 251.314 105.86 251.274 106.083H250.215C250.289 105.69 250.457 105.344 250.72 105.046C250.982 104.748 251.306 104.514 251.689 104.346C252.075 104.178 252.486 104.094 252.921 104.094C253.397 104.094 253.793 104.19 254.107 104.382C254.422 104.574 254.648 104.824 254.786 105.135C254.925 105.445 254.967 105.78 254.91 106.14C254.844 106.544 254.673 106.881 254.399 107.148C254.124 107.413 253.787 107.596 253.387 107.695V107.741C253.848 107.817 254.188 108.019 254.406 108.348C254.624 108.677 254.695 109.073 254.619 109.534C254.552 109.944 254.388 110.302 254.125 110.607C253.862 110.91 253.529 111.146 253.124 111.314C252.719 111.482 252.268 111.566 251.771 111.566ZM258.156 111.587C257.595 111.587 257.14 111.44 256.792 111.147C256.444 110.851 256.212 110.422 256.096 109.861C255.98 109.3 255.986 108.624 256.114 107.833C256.244 107.045 256.461 106.372 256.764 105.813C257.069 105.254 257.444 104.828 257.889 104.534C258.337 104.241 258.839 104.094 259.395 104.094C259.949 104.094 260.401 104.242 260.752 104.538C261.102 104.832 261.338 105.257 261.458 105.813C261.581 106.369 261.577 107.043 261.444 107.833C261.311 108.627 261.094 109.302 260.791 109.861C260.488 110.42 260.112 110.847 259.665 111.143C259.218 111.439 258.714 111.587 258.156 111.587ZM258.312 110.639C258.807 110.639 259.233 110.399 259.59 109.918C259.948 109.437 260.202 108.743 260.354 107.833C260.453 107.23 260.473 106.72 260.414 106.303C260.357 105.884 260.228 105.567 260.027 105.351C259.828 105.133 259.566 105.025 259.239 105.025C258.751 105.025 258.327 105.267 257.968 105.753C257.61 106.235 257.357 106.929 257.208 107.833C257.106 108.44 257.083 108.952 257.14 109.371C257.197 109.788 257.325 110.104 257.524 110.319C257.722 110.532 257.985 110.639 258.312 110.639ZM263.399 110.472L263.275 110.859C263.192 111.143 263.083 111.439 262.948 111.747C262.815 112.055 262.683 112.341 262.55 112.606C262.418 112.874 262.312 113.086 262.234 113.242H261.481C261.533 113.095 261.606 112.897 261.698 112.649C261.793 112.4 261.892 112.122 261.996 111.814C262.1 111.507 262.192 111.192 262.27 110.87L262.376 110.472H263.399ZM267.957 111.466H266.792L270.617 104.194H271.884L273.294 111.466H272.129L271.068 105.515H271.011L267.957 111.466ZM268.624 108.618H272.403L272.247 109.542H268.468L268.624 108.618ZM276.455 111.576C275.924 111.576 275.49 111.457 275.151 111.218C274.813 110.976 274.577 110.644 274.445 110.22C274.312 109.796 274.291 109.311 274.381 108.764C274.471 108.21 274.654 107.721 274.931 107.297C275.211 106.871 275.56 106.539 275.979 106.299C276.4 106.06 276.868 105.941 277.382 105.941C277.796 105.941 278.152 106.018 278.45 106.172C278.749 106.323 278.975 106.536 279.129 106.811C279.283 107.085 279.349 107.406 279.328 107.773H278.294C278.278 107.517 278.183 107.297 278.01 107.113C277.837 106.928 277.583 106.836 277.247 106.836C276.951 106.836 276.678 106.914 276.43 107.07C276.181 107.224 275.972 107.444 275.801 107.731C275.631 108.015 275.515 108.351 275.453 108.739C275.387 109.137 275.391 109.48 275.464 109.769C275.537 110.058 275.672 110.281 275.869 110.44C276.065 110.599 276.313 110.678 276.611 110.678C276.815 110.678 277.004 110.641 277.179 110.568C277.357 110.492 277.513 110.384 277.648 110.245C277.785 110.105 277.892 109.937 277.968 109.74H279.004C278.903 110.093 278.732 110.408 278.493 110.685C278.256 110.962 277.965 111.18 277.619 111.338C277.274 111.497 276.886 111.576 276.455 111.576ZM283.3 106.012L283.162 106.864H280.183L280.321 106.012H283.3ZM281.333 104.705H282.395L281.536 109.865C281.502 110.071 281.508 110.226 281.553 110.33C281.598 110.432 281.667 110.502 281.759 110.539C281.854 110.575 281.959 110.593 282.075 110.593C282.161 110.593 282.235 110.587 282.299 110.575C282.363 110.563 282.414 110.554 282.452 110.547L282.509 111.424C282.438 111.447 282.342 111.471 282.221 111.495C282.103 111.521 281.958 111.535 281.788 111.537C281.508 111.542 281.256 111.492 281.031 111.388C280.806 111.282 280.638 111.121 280.527 110.905C280.416 110.687 280.388 110.414 280.445 110.085L281.333 104.705ZM283.566 111.466L284.475 106.012H285.537L284.628 111.466H283.566ZM285.228 105.159C285.043 105.159 284.887 105.098 284.759 104.975C284.634 104.849 284.576 104.7 284.585 104.527C284.595 104.352 284.668 104.203 284.805 104.08C284.943 103.954 285.102 103.892 285.285 103.892C285.469 103.892 285.624 103.954 285.75 104.08C285.875 104.203 285.934 104.352 285.927 104.527C285.918 104.7 285.845 104.849 285.707 104.975C285.572 105.098 285.412 105.159 285.228 105.159ZM291.631 106.012L288.744 111.466H287.608L286.536 106.012H287.633L288.315 110.209H288.371L290.449 106.012H291.631ZM293.871 111.576C293.336 111.576 292.894 111.462 292.543 111.232C292.195 111 291.951 110.674 291.812 110.255C291.672 109.834 291.649 109.34 291.744 108.775C291.836 108.216 292.022 107.723 292.302 107.297C292.581 106.871 292.929 106.539 293.346 106.299C293.765 106.06 294.228 105.941 294.734 105.941C295.042 105.941 295.332 105.992 295.604 106.093C295.879 106.195 296.112 106.355 296.304 106.573C296.496 106.791 296.628 107.074 296.702 107.422C296.777 107.767 296.775 108.187 296.694 108.682L296.634 109.059H292.295L292.419 108.263H295.714C295.764 107.984 295.751 107.736 295.675 107.521C295.599 107.303 295.469 107.132 295.285 107.006C295.102 106.881 294.873 106.818 294.596 106.818C294.312 106.818 294.046 106.892 293.8 107.042C293.554 107.191 293.348 107.381 293.182 107.613C293.019 107.843 292.916 108.08 292.873 108.324L292.749 109.052C292.688 109.449 292.698 109.769 292.781 110.01C292.866 110.252 293.015 110.427 293.229 110.536C293.442 110.645 293.708 110.699 294.028 110.699C294.233 110.699 294.424 110.671 294.599 110.614C294.777 110.555 294.934 110.468 295.072 110.355C295.209 110.239 295.324 110.094 295.416 109.922L296.389 110.103C296.259 110.399 296.072 110.658 295.828 110.88C295.584 111.101 295.296 111.272 294.965 111.395C294.636 111.516 294.271 111.576 293.871 111.576ZM301.227 107.933L301.074 108.853H297.846L297.999 107.933H301.227ZM305.884 109.204L306.417 106.012H307.482L306.573 111.466H305.529L305.689 110.522H305.632C305.461 110.813 305.22 111.056 304.907 111.25C304.597 111.441 304.237 111.537 303.828 111.537C303.477 111.537 303.18 111.46 302.936 111.307C302.695 111.15 302.523 110.919 302.422 110.614C302.32 110.309 302.306 109.931 302.379 109.481L302.961 106.012H304.023L303.466 109.353C303.406 109.725 303.462 110.021 303.632 110.241C303.803 110.461 304.051 110.571 304.378 110.571C304.577 110.571 304.783 110.522 304.996 110.422C305.209 110.323 305.397 110.173 305.561 109.971C305.726 109.77 305.834 109.514 305.884 109.204ZM312.776 107.343L311.785 107.514C311.764 107.388 311.72 107.27 311.654 107.159C311.59 107.048 311.491 106.958 311.359 106.889C311.226 106.818 311.05 106.782 310.83 106.782C310.524 106.782 310.257 106.852 310.027 106.992C309.8 107.132 309.67 107.309 309.637 107.525C309.606 107.7 309.647 107.842 309.761 107.951C309.874 108.057 310.075 108.146 310.361 108.217L311.199 108.416C311.682 108.532 312.028 108.713 312.236 108.959C312.447 109.203 312.52 109.52 312.456 109.911C312.402 110.235 312.26 110.523 312.03 110.774C311.803 111.025 311.512 111.221 311.156 111.363C310.801 111.505 310.406 111.576 309.97 111.576C309.35 111.576 308.867 111.445 308.521 111.182C308.176 110.919 307.998 110.548 307.989 110.067L309.04 109.911C309.059 110.178 309.155 110.381 309.328 110.518C309.503 110.653 309.745 110.721 310.056 110.721C310.411 110.723 310.708 110.648 310.947 110.497C311.186 110.345 311.322 110.162 311.355 109.946C311.384 109.778 311.346 109.639 311.242 109.527C311.14 109.416 310.96 109.331 310.702 109.272L309.821 109.069C309.329 108.953 308.981 108.766 308.777 108.508C308.574 108.25 308.505 107.926 308.571 107.535C308.623 107.216 308.758 106.937 308.976 106.701C309.196 106.462 309.474 106.276 309.811 106.143C310.147 106.008 310.518 105.941 310.926 105.941C311.52 105.941 311.966 106.069 312.264 106.324C312.563 106.578 312.733 106.917 312.776 107.343ZM315.697 111.576C315.162 111.576 314.72 111.462 314.369 111.232C314.021 111 313.777 110.674 313.638 110.255C313.498 109.834 313.476 109.34 313.57 108.775C313.663 108.216 313.848 107.723 314.128 107.297C314.407 106.871 314.755 106.539 315.172 106.299C315.591 106.06 316.054 105.941 316.56 105.941C316.868 105.941 317.158 105.992 317.43 106.093C317.705 106.195 317.938 106.355 318.13 106.573C318.322 106.791 318.454 107.074 318.528 107.422C318.603 107.767 318.601 108.187 318.521 108.682L318.46 109.059H314.121L314.245 108.263H317.54C317.59 107.984 317.577 107.736 317.501 107.521C317.426 107.303 317.295 107.132 317.111 107.006C316.929 106.881 316.699 106.818 316.422 106.818C316.138 106.818 315.873 106.892 315.626 107.042C315.38 107.191 315.174 107.381 315.009 107.613C314.845 107.843 314.742 108.08 314.7 108.324L314.575 109.052C314.514 109.449 314.524 109.769 314.607 110.01C314.692 110.252 314.842 110.427 315.055 110.536C315.268 110.645 315.534 110.699 315.854 110.699C316.06 110.699 316.25 110.671 316.425 110.614C316.603 110.555 316.76 110.468 316.898 110.355C317.035 110.239 317.15 110.094 317.242 109.922L318.215 110.103C318.085 110.399 317.898 110.658 317.654 110.88C317.41 111.101 317.123 111.272 316.791 111.395C316.462 111.516 316.098 111.576 315.697 111.576ZM319.249 111.466L320.159 106.012H321.185L321.039 106.878H321.096C321.243 106.585 321.457 106.354 321.739 106.186C322.021 106.015 322.321 105.93 322.641 105.93C322.709 105.93 322.788 105.932 322.875 105.937C322.963 105.94 323.034 105.945 323.088 105.955L322.918 106.971C322.878 106.959 322.804 106.946 322.698 106.932C322.591 106.915 322.481 106.907 322.367 106.907C322.119 106.907 321.888 106.96 321.675 107.066C321.462 107.171 321.283 107.316 321.139 107.503C320.994 107.688 320.901 107.899 320.858 108.135L320.311 111.466H319.249Z" fill="#1E1E1E"/>
</g>
</g>
<defs>
<filter id="filter0_bd_544_3912" x="-4" y="-4" width="379" height="159.466" filterUnits="userSpaceOnUse" color-interpolation-filters="sRGB">
<feFlood flood-opacity="0" result="BackgroundImageFix"/>
<feGaussianBlur in="BackgroundImageFix" stdDeviation="10"/>
<feComposite in2="SourceAlpha" operator="in" result="effect1_backgroundBlur_544_3912"/>
<feColorMatrix in="SourceAlpha" type="matrix" values="0 0 0 0 0 0 0 0 0 0 0 0 0 0 0 0 0 0 127 0" result="hardAlpha"/>
<feOffset/>
<feGaussianBlur stdDeviation="7.53198"/>
<feComposite in2="hardAlpha" operator="out"/>
<feColorMatrix type="matrix" values="0 0 0 0 0 0 0 0 0 0 0 0 0 0 0 0 0 0 0.08 0"/>
<feBlend mode="normal" in2="effect1_backgroundBlur_544_3912" result="effect2_dropShadow_544_3912"/>
<feBlend mode="normal" in="SourceGraphic" in2="effect2_dropShadow_544_3912" result="shape"/>
</filter>
</defs>
</svg>
