<svg width="178" height="91" viewBox="0 0 178 91" fill="none" xmlns="http://www.w3.org/2000/svg">
<path d="M1.23076 33.544C-1.36267 31.1232 14.5769 31.3793 14.5769 31.3793C18.5072 30.0158 27.1148 26.7832 30.1027 24.7606C33.8375 22.2324 31.1951 7.37328 36.768 8.21232C39.5976 8.63835 44.2248 17.6213 44.2248 17.6213C44.2248 17.6213 53.27 8.86607 64.1215 7.50492C70.5297 6.7011 75.1852 6.93059 79.2735 7.50492C84.7296 4.84033 102.113 -0.336568 127.997 0.272481C160.353 1.03379 174.057 23.4924 175.96 29.106C177.863 34.7196 181.67 48.235 165.302 60.5323C152.207 70.3702 94.9681 67.7795 67.9854 65.2544C65.0002 65.4172 58.4761 65.6452 56.2616 65.2544C54.0471 64.8636 53.7106 61.9435 53.8191 60.5323C49.5313 60.3152 46.5033 64.0219 41.5866 65.1656C37.0652 66.2173 30.2037 65.8169 27.5984 65.1656C24.9931 64.5143 17.8161 58.2717 16.3681 56.4552C15.4323 55.2813 13.1114 44.2429 12.7858 42.2889C12.4601 40.3349 10.3491 38.5089 7.91985 37.1718C5.84703 36.031 3.82418 35.9647 1.23076 33.544Z" fill="#4F4F4F"/>
<path d="M147.532 77.9214C166.562 66.2153 165.302 62.8881 161.832 41.5752C163.985 35.9641 174.067 23.8695 176.177 40.7696C179.421 66.7502 168.987 77.9214 153.359 85.4891C137.712 93.0666 113.385 91.7704 98.874 83.2163C95.1076 80.1027 97.593 74.9478 104.283 77.9214C116.373 83.2943 135.229 85.4891 147.532 77.9214Z" fill="#4F4F4F"/>
</svg>
