<svg width="26" height="19" viewBox="0 0 26 19" fill="none" xmlns="http://www.w3.org/2000/svg">
<path d="M10.7971 16.6341C10.7704 15.8264 15.4805 14.5522 15.841 15.1595C16.5711 16.3899 14.0993 18.6983 14.0993 18.6983C14.0993 18.6983 10.8393 17.9147 10.7971 16.6341Z" fill="#F8AAAA"/>
<path d="M6.07945 12.1972C6.04801 13.5804 3.37553 13.5549 2.57467 13.3904C1.17974 13.1039 0.139888 12.0622 0.139888 11.1635C0.304034 10.5511 1.42235 9.58872 2.57467 9.46845C4.51864 9.26556 5.72906 10.8647 6.07945 12.1972Z" fill="#83C9A0"/>
<path d="M18.7756 7.94638C19.9561 9.09789 22.7021 6.99201 23.5371 6.00824C24.7291 4.60395 25.3112 2.89336 24.1306 1.74184C23.48 1.35727 21.7249 1.4706 20.6435 2.32951C18.4767 4.05045 18.1872 6.37659 18.7756 7.94638Z" fill="#83C9A0"/>
</svg>
