<svg width="118" height="77" viewBox="0 0 118 77" fill="none" xmlns="http://www.w3.org/2000/svg">
<path d="M2.89014 0.579102C1.78557 0.579102 0.890137 1.47453 0.890137 2.5791C0.890137 3.68367 1.78557 4.5791 2.89014 4.5791V0.579102ZM102.89 2.5791H104.89C104.89 1.47453 103.995 0.579102 102.89 0.579102V2.5791ZM101.476 75.9933C102.257 76.7744 103.523 76.7744 104.304 75.9933L117.032 63.2654C117.813 62.4843 117.813 61.218 117.032 60.437C116.251 59.6559 114.985 59.6559 114.204 60.437L102.89 71.7507L91.5764 60.437C90.7954 59.6559 89.529 59.6559 88.748 60.437C87.9669 61.218 87.9669 62.4843 88.748 63.2654L101.476 75.9933ZM2.89014 4.5791H102.89V0.579102H2.89014V4.5791ZM100.89 2.5791V74.5791H104.89V2.5791H100.89Z" fill="#E0E0E0"/>
</svg>
