<svg width="32" height="32" viewBox="0 0 32 32" fill="none" xmlns="http://www.w3.org/2000/svg">
<mask id="mask0_14_1756" style="mask-type:alpha" maskUnits="userSpaceOnUse" x="0" y="0" width="32" height="32">
<rect width="32" height="32" fill="#D9D9D9"/>
</mask>
<g mask="url(#mask0_14_1756)">
<path d="M16.0001 21.4C17.0334 21.4 17.9584 21.0889 18.7751 20.4667C19.5917 19.8444 20.1889 19.0444 20.5667 18.0667H11.4334C11.8112 19.0444 12.4084 19.8444 13.2251 20.4667C14.0417 21.0889 14.9667 21.4 16.0001 21.4ZM12.7481 16.1833C13.2938 16.1833 13.7556 15.9935 14.1334 15.6137C14.5112 15.234 14.7001 14.7729 14.7001 14.2304C14.7001 13.6879 14.5102 13.225 14.1305 12.8417C13.7507 12.4583 13.2896 12.2667 12.7471 12.2667C12.2046 12.2667 11.7417 12.4577 11.3584 12.8397C10.9751 13.2217 10.7834 13.6856 10.7834 14.2314C10.7834 14.7771 10.9744 15.2389 11.3564 15.6167C11.7384 15.9944 12.2023 16.1833 12.7481 16.1833ZM19.2648 16.1833C19.8105 16.1833 20.2723 15.9935 20.6501 15.6137C21.0278 15.234 21.2167 14.7729 21.2167 14.2304C21.2167 13.6879 21.0269 13.225 20.6471 12.8417C20.2674 12.4583 19.8063 12.2667 19.2638 12.2667C18.7213 12.2667 18.2584 12.4577 17.8751 12.8397C17.4917 13.2217 17.3001 13.6856 17.3001 14.2314C17.3001 14.7771 17.4911 15.2389 17.8731 15.6167C18.2551 15.9944 18.719 16.1833 19.2648 16.1833ZM10.3167 8.73334L13.9834 3.98334C14.2389 3.65 14.5447 3.4 14.9008 3.23334C15.2568 3.06667 15.629 2.98334 16.0175 2.98334C16.4059 2.98334 16.7723 3.06667 17.1167 3.23334C17.4612 3.4 17.7612 3.65 18.0167 3.98334L21.6834 8.73334L27.2501 10.5833C27.8056 10.7611 28.2389 11.0806 28.5501 11.5417C28.8612 12.0028 29.0167 12.5082 29.0167 13.0581C29.0167 13.3118 28.9806 13.5656 28.9084 13.8194C28.8362 14.0731 28.7167 14.3167 28.5501 14.55L24.9667 19.6333L25.1001 25.0167C25.1112 25.7611 24.8667 26.3917 24.3667 26.9083C23.8667 27.425 23.2778 27.6833 22.6001 27.6833C22.5112 27.6833 22.2667 27.6444 21.8667 27.5667L16.0001 25.9333L10.1469 27.5679C10.0379 27.6115 9.91672 27.6417 9.78339 27.6583C9.65006 27.675 9.52784 27.6833 9.41672 27.6833C8.74117 27.6833 8.15006 27.4222 7.64339 26.9C7.13672 26.3778 6.8945 25.7444 6.91672 25L7.05006 19.6167L3.48339 14.5333C3.31746 14.3019 3.1982 14.0599 3.12562 13.8074C3.05302 13.555 3.01672 13.3025 3.01672 13.05C3.01672 12.5161 3.17051 12.0196 3.47809 11.5604C3.78567 11.1012 4.21521 10.7755 4.76672 10.5833L10.3167 8.73334Z" fill="#319A87"/>
</g>
</svg>
