<svg width="32" height="32" viewBox="0 0 32 32" fill="none" xmlns="http://www.w3.org/2000/svg">
<path d="M16 28.5C14.2709 28.5 12.6499 28.1758 11.1369 27.5274C9.64793 26.879 8.32709 25.9904 7.17435 24.8617C6.02161 23.7089 5.12104 22.3761 4.47262 20.8631C3.82421 19.3501 3.5 17.7291 3.5 16C3.5 14.2709 3.82421 12.6619 4.47262 11.1729C5.12104 9.65994 6.00961 8.32709 7.13833 7.17435C8.29107 6.02161 9.62392 5.12104 11.1369 4.47262C12.6499 3.82421 14.2709 3.5 16 3.5C17.7291 3.5 19.3501 3.82421 20.8631 4.47262C22.3761 5.12104 23.6969 6.02161 24.8256 7.17435C25.9784 8.30307 26.879 9.62392 27.5274 11.1369C28.1758 12.6499 28.5 14.2709 28.5 16C28.5 17.7291 28.1758 19.3501 27.5274 20.8631C26.879 22.3761 25.9784 23.7089 24.8256 24.8617C23.6969 25.9904 22.3761 26.879 20.8631 27.5274C19.3501 28.1758 17.7291 28.5 16 28.5ZM15.964 23.3127C18.4376 23.3127 20.4308 22.0399 21.9438 19.4942L19.7464 18.3055C19.2421 19.074 18.6657 19.6503 18.0173 20.0346C17.3929 20.4188 16.7085 20.611 15.964 20.611C15.1955 20.611 14.499 20.4188 13.8746 20.0346C13.2502 19.6503 12.6859 19.074 12.1816 18.3055L10.0202 19.4942C11.5091 22.0399 13.4904 23.3127 15.964 23.3127ZM11.6772 15.1715C12.2296 15.1715 12.6979 14.9793 13.0821 14.5951C13.4664 14.2109 13.6585 13.7426 13.6585 13.1902C13.6585 12.6378 13.4664 12.1695 13.0821 11.7853C12.7219 11.377 12.2536 11.1729 11.6772 11.1729C11.0769 11.1729 10.5845 11.377 10.2003 11.7853C9.84006 12.1695 9.65994 12.6378 9.65994 13.1902C9.65994 13.7426 9.85207 14.2109 10.2363 14.5951C10.6206 14.9793 11.1009 15.1715 11.6772 15.1715ZM20.3228 15.1715C20.8991 15.1715 21.3794 14.9914 21.7637 14.6311C22.1479 14.2469 22.3401 13.7666 22.3401 13.1902C22.3401 12.6138 22.1479 12.1335 21.7637 11.7493C21.3794 11.365 20.8991 11.1729 20.3228 11.1729C19.7464 11.1729 19.2661 11.377 18.8818 11.7853C18.4976 12.1695 18.3055 12.6378 18.3055 13.1902C18.3055 13.7426 18.4976 14.2109 18.8818 14.5951C19.2901 14.9793 19.7704 15.1715 20.3228 15.1715Z" fill="#319A87"/>
</svg>
